<svg width="488" height="506" viewBox="0 0 488 506" fill="none" xmlns="http://www.w3.org/2000/svg">
<path d="M68.0762 400.576L68.9237 401.966C69.8634 403.542 71.2413 404.81 72.8896 405.616L74.3455 406.344L72.9548 407.192C71.3788 408.131 70.1103 409.509 69.304 411.157L68.5761 412.612L67.7612 411.265C66.8153 409.695 65.439 408.428 63.7953 407.615L62.3394 406.898L63.7301 406.051C65.3066 405.109 66.5779 403.732 67.3917 402.086L68.0762 400.576Z" fill="#85A9D8"/>
<path d="M57.9701 48.2837L58.9046 49.841C59.9518 51.5852 61.4794 52.9909 63.3047 53.8899L64.9401 54.6945L63.3825 55.6419C61.6346 56.6887 60.2245 58.2158 59.3199 60.0412L58.5152 61.6633L57.5807 60.1191C56.529 58.3705 54.9973 56.9607 53.1676 56.0571L51.5452 55.2525L53.1027 54.3182C54.8477 53.2659 56.2534 51.7343 57.1523 49.9059L57.9701 48.2837Z" fill="#F28078"/>
<path d="M394.88 219.182L395.815 220.74C396.865 222.485 398.392 223.894 400.215 224.802L401.85 225.606L400.293 226.541C398.544 227.592 397.134 229.123 396.23 230.953L395.425 232.575L394.491 231.018C393.436 229.276 391.911 227.868 390.091 226.956L388.455 226.151L390.013 225.217C391.761 224.17 393.171 222.643 394.076 220.818L394.88 219.182Z" fill="#F28078"/>
<path d="M430.952 44.9226L431.886 46.4799C432.938 48.2284 434.47 49.6382 436.299 50.5418L437.922 51.3464L436.364 52.2808C434.622 53.3313 433.217 54.8577 432.315 56.6801L431.51 58.3152L430.575 56.7579C429.524 55.0094 427.992 53.5996 426.162 52.6961L424.54 51.8914L426.084 50.9571C427.829 49.9068 429.239 48.3807 430.147 46.5577L430.952 44.9226Z" fill="#85A9D8"/>
<path d="M420.776 0.799316L421.451 1.92835C422.215 3.20502 423.333 4.23278 424.67 4.88719L425.864 5.48414L424.722 6.15896C423.448 6.92718 422.421 8.04401 421.762 9.37735L421.178 10.5713L420.49 9.42926C419.722 8.15587 418.605 7.12912 417.271 6.47043L416.09 5.88644L417.22 5.19864C418.496 4.43444 419.524 3.31654 420.179 1.98026L420.776 0.799316Z" fill="#F28078"/>
<path d="M32.6856 77.5735L33.3606 78.7025C34.127 79.9807 35.2442 81.0121 36.5795 81.6743L37.7736 82.2583L36.6314 82.9331C35.3633 83.708 34.338 84.8231 33.6721 86.1515L33.088 87.3454L32.4001 86.2034C31.6317 84.93 30.5147 83.9033 29.1811 83.2446L28 82.6606L29.1292 81.9728C30.4061 81.2086 31.434 80.0907 32.0886 78.7544L32.6856 77.5735Z" fill="#F28078"/>
<path d="M453.588 7.83301L453.977 8.48188C454.418 9.20862 455.057 9.79404 455.82 10.1689L456.508 10.5063L455.859 10.8957C455.116 11.3281 454.516 11.9687 454.133 12.7384L453.795 13.4263L453.406 12.7774C452.97 12.044 452.329 11.4533 451.563 11.0773L450.888 10.7399L451.537 10.3506C452.264 9.91001 452.849 9.27056 453.224 8.50784L453.588 7.83301Z" fill="#85A9D8"/>
<path d="M297.97 422.567L298.905 424.125C299.952 425.869 301.479 427.275 303.305 428.174L304.94 428.978L303.383 429.926C301.635 430.972 300.224 432.499 299.32 434.325L298.515 435.947L297.581 434.403C296.529 432.654 294.997 431.244 293.168 430.341L291.545 429.536L293.103 428.602C294.848 427.55 296.253 426.018 297.152 424.19L297.97 422.567Z" fill="#85A9D8"/>
<path d="M272.686 451.857L273.361 452.986C274.127 454.264 275.244 455.296 276.58 455.958L277.774 456.542L276.631 457.217C275.363 457.991 274.338 459.106 273.672 460.435L273.088 461.629L272.4 460.487C271.632 459.213 270.515 458.187 269.181 457.528L268 456.944L269.129 456.256C270.406 455.492 271.434 454.374 272.089 453.038L272.686 451.857Z" fill="#F28078"/>
<g clip-path="url(#clip0_313_1170)">
<rect x="365" y="177" width="123" height="190" rx="9.15743" fill="url(#paint0_linear_313_1170)"/>
<rect x="67" y="152" width="123" height="190" rx="9.15743" fill="url(#paint1_linear_313_1170)"/>
<path d="M100.411 318C100.198 318 100.198 262.472 100.411 194C100.624 125.528 100.937 70 101.135 70C101.334 70 101.349 125.514 101.135 194C100.922 262.486 100.61 318 100.411 318Z" fill="#BCCEE6"/>
<path d="M197.598 342C197.349 342 197.349 272.522 197.598 186.848C197.847 101.175 198.256 31.6968 198.505 31.6968C198.753 31.6968 198.771 101.157 198.505 186.866C198.238 272.575 197.864 342 197.598 342Z" fill="#BCCEE6"/>
<path d="M294.92 379.341C294.621 379.341 294.621 301.572 294.92 205.649C295.218 109.725 295.656 31.9358 295.935 31.9358C296.214 31.9358 296.233 109.686 295.935 205.649C295.636 301.612 295.119 379.341 294.92 379.341Z" fill="#BCCEE6"/>
<path d="M392.416 219C392.301 219 392.301 186.764 392.416 147.004C392.532 107.244 392.722 75 392.837 75C392.953 75 392.961 107.227 392.837 147.004C392.713 186.781 392.556 219 392.416 219Z" fill="#BCCEE6"/>
<path d="M480.735 115.558C480.735 115.725 392.8 115.868 284.332 115.868C175.864 115.868 87.9053 115.725 87.9053 115.558C87.9053 115.391 175.84 115.247 284.332 115.247C392.824 115.247 480.735 115.379 480.735 115.558Z" fill="#BCCEE6"/>
<path d="M480.735 204.574C480.735 204.746 390.126 204.894 278.361 204.894C166.595 204.894 75.9622 204.746 75.9622 204.574C75.9622 204.402 166.57 204.254 278.361 204.254C390.151 204.254 480.735 204.389 480.735 204.574Z" fill="#BCCEE6"/>
<path d="M480.735 293.57C480.735 293.754 390.126 293.89 278.361 293.89C166.595 293.89 75.9622 293.754 75.9622 293.57C75.9622 293.385 166.57 293.25 278.361 293.25C390.151 293.25 480.735 293.398 480.735 293.57Z" fill="#BCCEE6"/>
<path d="M205.939 31C205.939 31 198.774 100.35 208.308 114.881L280.325 110.501L276.503 33.4683L205.939 31Z" fill="url(#paint2_linear_313_1170)"/>
<path d="M205.939 31C205.939 31 206.437 91.3327 209.522 109.725L285.162 106.142C285.162 106.142 278.514 46.8446 281.082 31H205.939Z" fill="#2A3E7A"/>
<path d="M243.202 39.5395H243.48H244.296C245.347 39.4975 246.4 39.5507 247.441 39.6987C249.108 39.9313 250.731 40.4075 252.258 41.112C254.273 42.1123 256.056 43.5225 257.494 45.2522C259.229 47.3805 260.466 49.8696 261.116 52.5376C261.697 55.6709 261.422 58.9029 260.32 61.893C259.755 63.5141 259.042 65.0799 258.19 66.5707C257.294 68.097 256.483 69.672 255.762 71.2883C254.262 74.709 253.238 78.3188 252.716 82.0172V82.276H252.477L245.013 82.3954L237.17 82.5148H236.892V82.2361C236.562 78.5448 235.317 74.9939 233.269 71.9053C232.353 70.3527 231.278 68.8996 230.442 67.4266C229.464 66.0369 228.573 64.5877 227.775 63.0873C226.383 60.2274 225.97 56.9889 226.601 53.8712C227.04 51.1894 228.029 48.6276 229.507 46.347C230.785 44.5039 232.475 42.984 234.443 41.9082C235.9 41.1018 237.461 40.499 239.081 40.1167C240.095 39.8671 241.127 39.6941 242.167 39.5992H243.261H242.983H242.186C241.157 39.7164 240.138 39.9161 239.141 40.1963C237.546 40.6067 236.012 41.2293 234.583 42.0475C232.685 43.1275 231.058 44.625 229.825 46.4266C228.396 48.6763 227.447 51.1974 227.039 53.8314C226.455 56.8546 226.874 59.9859 228.233 62.7489C229.028 64.2276 229.912 65.6568 230.88 67.0286C231.796 68.4816 232.871 69.9347 233.727 71.5072C235.847 74.6724 237.134 78.3216 237.469 82.1167L237.19 81.838L245.013 81.6987L252.477 81.5992L252.219 81.838C252.733 78.08 253.779 74.414 255.324 70.9499C256.062 69.3218 256.886 67.7338 257.792 66.1925C258.633 64.7336 259.339 63.2013 259.902 61.6143C260.994 58.7125 261.283 55.5699 260.738 52.5176C260.118 49.908 258.928 47.4677 257.255 45.3717C255.864 43.6691 254.136 42.273 252.179 41.2712C250.686 40.5513 249.097 40.0486 247.461 39.7783C246.435 39.607 245.397 39.5205 244.356 39.5195H243.261L243.202 39.5395Z" fill="#F28078"/>
<path d="M247.063 81.5591V81.3202V80.6236L246.645 77.9165C246.307 75.5676 245.809 72.1639 245.471 67.9639C245.471 66.889 245.312 65.7942 245.272 64.6397C245.232 63.4852 245.172 62.271 245.272 61.0169C245.297 59.7133 245.581 58.4277 246.108 57.2349C246.685 55.9524 247.712 54.9256 248.994 54.3487C249.683 54.0675 250.438 53.9912 251.169 54.1289C251.9 54.2666 252.576 54.6125 253.115 55.125C253.661 55.6469 253.982 56.3608 254.01 57.1155C253.986 57.9024 253.715 58.6616 253.234 59.2852C252.747 59.9122 252.12 60.4165 251.403 60.7581C250.69 61.1043 249.933 61.3521 249.154 61.4947C247.589 61.8319 245.996 62.0185 244.396 62.052C242.787 62.1195 241.175 62.0463 239.579 61.833C238.796 61.708 238.033 61.4804 237.31 61.1563C236.561 60.8449 235.884 60.3843 235.319 59.8027C234.777 59.2536 234.398 58.5644 234.225 57.8122C234.058 57.0545 234.149 56.2629 234.483 55.5629C234.811 54.8762 235.377 54.3316 236.076 54.0302C236.414 53.8774 236.78 53.7983 237.151 53.7983C237.521 53.7983 237.888 53.8774 238.226 54.0302C238.871 54.3342 239.427 54.8006 239.838 55.3837C240.228 55.9902 240.499 56.6659 240.634 57.3743C240.874 58.6477 241.001 59.94 241.012 61.2359C241.152 63.724 241.271 66.0529 241.39 68.1629C241.59 72.4027 241.769 75.8264 241.888 78.1155C241.888 79.2899 241.888 80.2056 242.008 80.8425V81.5591V81.798C242.003 81.7184 242.003 81.6387 242.008 81.5591V80.8425C242.008 80.2056 241.908 79.2899 241.828 78.1155C241.689 75.7468 241.49 72.3231 241.251 68.1629C241.132 66.033 241.012 63.724 240.873 61.2359C240.838 59.9537 240.705 58.676 240.475 57.4141C240.329 56.768 240.066 56.1541 239.699 55.6027C239.323 55.04 238.8 54.5922 238.186 54.3089C237.879 54.156 237.543 54.0682 237.201 54.0511C236.858 54.034 236.516 54.0879 236.195 54.2093C235.549 54.4894 235.031 55.0005 234.742 55.6425C234.42 56.2892 234.328 57.0268 234.483 57.7326C234.636 58.4838 235.002 59.175 235.538 59.7231C236.599 60.8217 238.004 61.5241 239.519 61.7136C241.096 61.9268 242.688 62.0001 244.277 61.9326C245.869 61.8959 247.454 61.716 249.014 61.3951C249.77 61.2341 250.504 60.987 251.204 60.6586C251.889 60.3382 252.489 59.8608 252.955 59.2653C253.394 58.6914 253.644 57.9962 253.672 57.2747C253.687 56.9038 253.621 56.5341 253.481 56.1907C253.34 55.8472 253.127 55.5381 252.856 55.2842C252.351 54.7967 251.715 54.4673 251.025 54.3365C250.336 54.2056 249.623 54.2791 248.974 54.5477C247.745 55.1007 246.761 56.085 246.208 57.3146C245.687 58.4823 245.396 59.7393 245.352 61.0169C245.352 62.271 245.352 63.4653 245.352 64.6198C245.352 65.7743 245.352 66.889 245.531 67.9439C245.849 72.1638 246.327 75.5676 246.626 77.8965C246.785 79.0709 246.924 79.8871 247.004 80.6036L247.103 81.3202C247.094 81.4005 247.081 81.4803 247.063 81.5591Z" fill="#F28078"/>
<path d="M237.111 81.9574C237.111 81.9574 237.21 82.8929 237.31 84.4654C237.409 86.0379 237.529 88.4465 237.648 91.0142V90.855L242.744 96.8266L242.485 96.727L248.457 96.3886L248.198 96.5081L251.124 92.9251L252.597 91.1536V91.3725C252.597 87.9289 252.458 84.6645 252.378 81.6787L252.697 81.9772L241.709 82.0967H238.524C238.126 82.124 237.727 82.124 237.33 82.0967C237.681 82.0632 238.034 82.0632 238.385 82.0967L241.49 81.9374L252.677 81.4995H252.995V81.818C252.995 84.8038 253.174 88.0683 253.274 91.5119V91.6512H253.174C252.697 92.2284 252.199 92.8256 251.721 93.4426C250.706 94.6569 249.731 95.8512 248.775 97.0057L248.676 97.1251H248.517L242.545 97.4038H242.386V97.2844L237.39 91.3128V91.2133C237.39 88.6057 237.39 86.3763 237.39 84.5052C237.111 82.7536 237.111 81.9175 237.111 81.9574Z" fill="#F28078"/>
<path d="M252.318 90.4769C252.125 90.416 251.938 90.336 251.761 90.238C251.403 90.0788 250.885 89.8598 250.228 89.6409C248.519 89.0553 246.719 88.779 244.913 88.8248C243.108 88.8823 241.327 89.2667 239.659 89.9593C239.148 90.1624 238.649 90.3951 238.166 90.656L237.628 90.9148C237.779 90.7818 237.947 90.6682 238.126 90.5764C238.59 90.282 239.076 90.0226 239.579 89.8001C241.261 89.0527 243.073 88.6403 244.913 88.5859C246.746 88.5395 248.57 88.8436 250.288 89.4816C250.807 89.6719 251.313 89.8981 251.801 90.1584C251.986 90.2417 252.16 90.3488 252.318 90.4769Z" fill="#F28078"/>
<path d="M252.318 88.128L251.761 87.8891C251.403 87.7299 250.885 87.5109 250.228 87.272C248.518 86.6941 246.718 86.4245 244.913 86.4758C243.108 86.5333 241.327 86.9178 239.659 87.6104C239.144 87.805 238.645 88.0379 238.166 88.3071C237.996 88.4125 237.816 88.4992 237.628 88.5659C237.628 88.5659 237.787 88.4265 238.126 88.2275C238.586 87.9254 239.072 87.6656 239.579 87.4512C242.968 85.9415 246.815 85.8271 250.288 87.1327C250.809 87.3182 251.315 87.5445 251.801 87.8095C251.986 87.8928 252.16 87.9998 252.318 88.128Z" fill="#F28078"/>
<path d="M252.179 85.8787C251.986 85.8178 251.799 85.7378 251.621 85.6398C251.263 85.4806 250.746 85.2616 250.089 85.0427C248.38 84.4571 246.58 84.1808 244.774 84.2266C242.968 84.2841 241.188 84.6685 239.519 85.3611C239.008 85.5642 238.51 85.7969 238.026 86.0578L237.489 86.3365C237.489 86.3365 237.648 86.1773 237.986 85.9782C238.455 85.6916 238.941 85.4324 239.439 85.2019C242.829 83.6922 246.676 83.5778 250.148 84.8834C250.666 85.0775 251.172 85.3035 251.661 85.5602C251.847 85.6435 252.021 85.7506 252.179 85.8787Z" fill="#F28078"/>
<g clip-path="url(#clip1_313_1170)">
<path d="M398.594 232.254L398.779 232.108L398.659 231.905L398.427 232.043C398.659 231.905 398.659 231.905 398.659 231.905L398.659 231.905L398.658 231.903L398.653 231.895L398.636 231.865L398.567 231.75C398.507 231.648 398.418 231.499 398.305 231.31C398.079 230.93 397.753 230.386 397.356 229.728C396.562 228.414 395.484 226.646 394.346 224.833C393.208 223.02 392.009 221.16 390.974 219.662C390.456 218.914 389.978 218.253 389.567 217.733C389.162 217.22 388.807 216.822 388.537 216.619C388.271 216.42 387.769 216.159 387.118 215.862C386.458 215.56 385.622 215.21 384.672 214.833C382.771 214.079 380.402 213.214 378.049 212.409C375.696 211.605 373.355 210.859 371.509 210.344C370.587 210.087 369.784 209.886 369.163 209.764C368.853 209.703 368.583 209.661 368.364 209.642C368.157 209.624 367.956 209.623 367.808 209.671C367.642 209.726 367.18 209.835 366.479 209.993C366.133 210.071 365.735 210.159 365.294 210.257C364.849 210.356 364.36 210.464 363.835 210.582C361.75 211.049 359.127 211.652 356.621 212.317C354.119 212.98 351.719 213.708 350.087 214.425C349.278 214.781 348.624 215.148 348.247 215.522C348.059 215.71 347.911 215.927 347.878 216.171C347.842 216.432 347.942 216.667 348.131 216.863C348.475 217.219 349.014 217.453 349.648 217.608C350.289 217.765 351.062 217.85 351.91 217.884C353.606 217.951 355.639 217.812 357.588 217.598C359.54 217.385 361.417 217.096 362.806 216.861C363.5 216.743 364.073 216.639 364.473 216.564C364.672 216.526 364.829 216.496 364.935 216.475L365.011 216.46L366.158 216.999C365.846 217.057 365.458 217.129 365.011 217.215C363.808 217.445 362.177 217.767 360.465 218.139C358.753 218.51 356.957 218.93 355.426 219.356C353.905 219.778 352.612 220.215 351.929 220.624C350.557 221.447 350.096 222.649 350.364 223.641C350.631 224.632 351.605 225.314 352.868 225.103C353.368 225.02 354.286 224.849 355.417 224.639C356.846 224.374 358.616 224.045 360.312 223.749C361.838 223.483 363.309 223.243 364.439 223.095C364.78 223.05 365.087 223.014 365.355 222.989C365.202 223.037 365.034 223.089 364.852 223.143C363.772 223.466 362.255 223.868 360.67 224.285C360.584 224.307 360.498 224.33 360.411 224.353C358.909 224.748 357.366 225.154 356.104 225.516C355.436 225.707 354.844 225.887 354.376 226.047C353.923 226.202 353.555 226.349 353.356 226.48C352.382 227.073 351.846 228.236 351.865 229.231C351.874 229.734 352.027 230.223 352.37 230.575C352.719 230.932 353.23 231.113 353.882 231.058L353.883 231.057C354.07 231.041 354.415 230.973 354.856 230.875C355.305 230.775 355.87 230.64 356.508 230.481C357.786 230.163 359.363 229.751 360.898 229.343C361.554 229.168 362.202 228.994 362.816 228.829C360.752 229.739 358.719 230.717 356.72 231.763L356.684 231.782L356.655 231.81C355.887 232.567 355.798 233.539 356.23 234.261C356.661 234.982 357.574 235.394 358.678 235.132C359.05 235.046 359.735 234.773 360.556 234.423C361.282 234.112 362.134 233.731 363.01 233.34C363.137 233.284 363.264 233.227 363.392 233.17C364.401 232.719 365.421 232.267 366.303 231.899C367.143 231.55 367.84 231.285 368.28 231.169C368.321 231.185 368.383 231.211 368.463 231.252C368.632 231.339 368.881 231.492 369.183 231.754C369.787 232.277 370.606 233.24 371.409 234.982C371.836 235.908 372.702 237.02 373.739 238.154C374.781 239.293 376.013 240.475 377.191 241.543C378.369 242.612 379.495 243.569 380.327 244.258C380.743 244.603 381.086 244.881 381.324 245.074C381.444 245.17 381.537 245.244 381.601 245.295L381.673 245.352L381.692 245.367L381.697 245.371L381.698 245.372L381.699 245.372C381.699 245.372 381.699 245.372 381.866 245.16L381.699 245.372L381.866 245.504L382.033 245.372L398.594 232.254ZM368.222 231.149C368.221 231.149 368.222 231.149 368.222 231.149L368.222 231.149Z" fill="#162141" stroke="#F28078" stroke-width="0.54"/>
<path d="M348.325 216.676C349.495 217.265 350.778 217.598 352.087 217.651C353.5 217.826 354.927 217.866 356.347 217.77C357.92 217.571 359.631 217.293 361.443 217.014L365.265 216.377H365.026C367.928 217.495 370.917 218.374 373.963 219.005C371.189 217.592 368.299 216.42 365.324 215.501H365.225H365.105L361.303 216.078L356.267 216.895C354.899 217.033 353.521 217.067 352.147 216.994C349.798 216.855 348.365 216.536 348.325 216.676Z" fill="#F28078"/>
<path d="M333.376 206.882C333.376 206.882 318.527 251.928 313.471 261.024L364.03 276.471L373.227 270.599C373.227 270.599 385.508 234.332 387.061 222.15L333.376 206.882Z" fill="#161617"/>
<path d="M333.376 206.882C333.376 206.882 318.527 251.928 313.471 261.024L364.03 276.471L373.227 270.599C373.227 270.599 385.508 234.332 387.061 222.15L333.376 206.882Z" fill="url(#paint3_linear_313_1170)"/>
<path d="M366.777 268.927L364.11 276.471L373.306 270.599L366.777 268.927Z" fill="#135AB8"/>
<path d="M373.406 237.875C371.475 237.443 369.584 236.85 367.753 236.103L354.237 231.445L340.701 227.006C338.793 226.494 336.929 225.829 335.128 225.016C337.092 225.282 339.03 225.715 340.92 226.31C344.463 227.265 349.32 228.718 354.615 230.49C359.91 232.261 364.667 234.053 368.071 235.426C369.925 236.065 371.712 236.885 373.406 237.875Z" fill="#F28078"/>
<path d="M369.106 247.967C367.221 247.718 365.362 247.299 363.553 246.713C360.169 245.797 355.591 244.424 350.415 242.732C345.24 241.04 340.761 239.408 337.497 238.134C335.689 237.54 333.942 236.773 332.281 235.844C334.143 236.213 335.968 236.746 337.736 237.437L350.734 241.756L363.752 245.996C365.59 246.496 367.382 247.155 369.106 247.967Z" fill="#F28078"/>
<path d="M363.991 257.183C358.226 255.767 352.544 254.033 346.972 251.988C341.302 250.258 335.739 248.198 330.311 245.817C341.747 248.955 352.992 252.749 363.991 257.183Z" fill="#F28078"/>
<path d="M393.192 233.516C392.496 234.018 391.66 234.288 390.803 234.288C389.945 234.288 389.11 234.018 388.414 233.516C386.921 232.66 385.787 231.326 384.433 230.351C380.213 227.484 374.182 228.36 370.082 225.195C369.524 224.777 368.947 224.061 369.246 223.404C369.544 222.747 370.32 222.727 370.997 222.727L387.956 222.866" fill="#162141"/>
<path d="M387.877 222.946C387.28 222.784 386.664 222.71 386.046 222.727L381.049 222.548L373.625 222.388H371.475C370.611 222.244 369.725 222.444 369.007 222.946C368.806 223.153 368.674 223.417 368.628 223.701C368.582 223.986 368.624 224.278 368.748 224.538C368.938 224.969 369.24 225.34 369.624 225.613C370.281 226.131 371.004 226.56 371.774 226.887C374.653 227.886 377.6 228.677 380.592 229.256C381.835 229.592 383.022 230.108 384.115 230.788C385.11 231.445 385.946 232.242 386.782 232.898C387.415 233.502 388.173 233.959 389.002 234.238C389.83 234.517 390.71 234.61 391.579 234.511C392.833 234.252 393.231 233.555 393.192 233.555C392.68 233.846 392.121 234.042 391.54 234.133C390.737 234.159 389.938 234.017 389.194 233.716C388.45 233.414 387.777 232.959 387.22 232.381C386.353 231.556 385.443 230.779 384.493 230.052C383.364 229.277 382.112 228.698 380.791 228.34C377.854 227.705 374.956 226.901 372.112 225.932C371.407 225.632 370.739 225.251 370.122 224.797C369.564 224.359 369.286 223.762 369.584 223.523C369.883 223.284 370.639 223.225 371.376 223.244H373.525H380.95C383.06 223.244 384.772 223.244 385.946 223.125C386.595 223.153 387.244 223.092 387.877 222.946Z" fill="#F28078"/>
<path d="M599.649 274.938L613.403 237.457C610.537 227.823 600.246 217.392 585.934 214.665C581.376 213.79 576.957 212.137 571.622 211.918C566.745 215.772 560.73 217.903 554.515 217.978C548.3 218.054 542.235 216.07 537.266 212.336L536.768 211.978C535.394 212.137 533.563 212.317 531.274 212.595H530.816C525.104 213.31 519.67 215.476 515.031 218.885L443.233 261.741L401.074 229.694L379.716 246.434C379.716 246.434 434.953 301.671 440.307 302.985C444.03 303.9 480.874 283.776 503.208 271.316C502.292 284.692 497.236 359.038 497.535 369.19H600.126V322.313V309.554L599.649 274.938Z" fill="url(#paint4_linear_313_1170)"/>
<path d="M412.36 238.83C412.599 239.069 407.961 243.468 402.049 248.644C398.577 251.887 394.878 254.881 390.982 257.601C394.196 254.101 397.662 250.841 401.353 247.847C404.318 245.26 407.026 242.971 409.016 241.338C410.041 240.389 411.162 239.549 412.36 238.83Z" fill="#462631"/>
<path d="M417.257 242.473C414.023 246.043 410.53 249.369 406.806 252.426C403.84 255.053 401.113 257.402 399.103 259.054C398.083 260.036 396.939 260.879 395.699 261.562C396.541 260.427 397.517 259.398 398.605 258.497C400.596 256.705 403.144 254.277 406.13 251.649C409.115 249.022 411.842 246.693 413.853 245.041C414.885 244.057 416.027 243.195 417.257 242.473Z" fill="#462631"/>
</g>
<g clip-path="url(#clip2_313_1170)">
<path d="M-50.6674 385.189L45.7187 386.762L44.2327 372.191C44.2327 372.191 33.6135 316.715 33.6927 315.999L35.3569 312.456C37.5849 308.147 38.8152 303.389 38.9558 298.536C39.0965 293.683 38.1439 288.86 36.1692 284.429H82.9655L80.9843 246.291L31.87 239.025L13.6032 237.572C13.6032 237.572 -18.5915 239.264 -19.285 239.344C-32.7572 240.976 -48.4286 242.011 -54.1543 256.502C-57.2252 264.245 -54.3128 275.87 -49.3202 287.873L-37.4329 324.677C-32.678 344.921 -40.266 343.966 -44.4266 364.329C-45.0209 367.394 -50.7268 382.343 -50.6674 385.189Z" fill="url(#paint5_linear_313_1170)"/>
<path d="M87.463 153.134C87.463 153.134 87.245 151.9 87.0469 149.472C86.8252 145.861 87.1052 142.236 87.879 138.703C89.388 131.885 92.4687 125.518 96.8732 120.115C101.278 114.711 106.883 110.422 113.239 107.591C117.606 105.656 122.231 104.376 126.968 103.789C132.187 103.12 137.475 103.234 142.66 104.128C154.483 106.25 165.347 112.042 173.725 120.689C178.434 125.391 182.438 130.755 185.612 136.613C188.948 142.889 191.206 149.686 192.289 156.717C193.482 164.163 193.26 171.768 191.635 179.131C190.787 182.957 189.497 186.671 187.792 190.198C186.001 193.804 183.736 197.152 181.056 200.15C175.361 206.272 168.104 210.706 160.074 212.969C151.73 215.287 143.057 216.181 134.418 215.617C125.432 215.219 116.538 213.626 107.969 210.879C98.9314 208.06 90.9856 202.497 85.2242 194.955C79.5523 186.957 76.4925 177.386 76.4673 167.566C76.4275 162.573 77.0946 157.6 78.4485 152.796C79.9264 147.953 81.996 143.313 84.61 138.982C87.3624 134.644 90.5996 130.637 94.2585 127.039C98.0491 123.482 102.245 120.388 106.76 117.823C111.403 115.328 116.362 113.48 121.5 112.329C126.712 111.257 132.055 110.976 137.35 111.493C148.3 112.721 158.737 116.819 167.615 123.376C176.492 129.933 183.498 138.72 187.93 148.855C192.397 159.425 193.43 171.141 190.882 182.335C189.575 188.003 187.149 193.35 183.75 198.06C180.248 202.772 175.721 206.619 170.515 209.307C165.274 211.984 159.584 213.664 153.735 214.263C147.846 214.894 141.898 214.646 136.082 213.527C124.262 211.265 113.367 205.553 104.759 197.105C100.418 192.846 96.8866 187.827 94.3378 182.296C91.7852 176.685 90.6033 170.543 90.8905 164.381C91.5641 151.98 98.1219 140.495 107.235 132.114C116.4 123.719 128.004 118.5 140.342 117.225C146.432 116.633 152.578 117.18 158.47 118.838C164.299 120.472 169.779 123.171 174.636 126.8C179.455 130.425 183.498 134.987 186.524 140.216C188.045 142.813 189.261 145.578 190.149 148.457C190.664 149.87 190.942 151.343 191.318 152.796C191.695 154.249 191.873 155.742 191.972 157.235C193.162 169.156 189.884 181.094 182.779 190.715C175.668 200.024 165.636 206.646 154.309 209.506C143.256 212.407 131.583 211.83 120.866 207.854C99.7861 200.17 83.4807 181.28 79.974 159.902C78.1265 149.308 80.011 138.398 85.3034 129.049C90.433 119.997 98.0651 112.633 107.275 107.85C116.21 103.272 126.073 100.82 136.102 100.684C145.795 100.484 155.435 102.167 164.493 105.641C182.323 112.408 196.885 125.964 203.285 142.605C206.319 150.58 207.519 159.141 206.795 167.649C206.071 176.156 203.442 184.388 199.104 191.731C194.972 198.549 189.149 204.173 182.205 208.053C175.626 211.697 168.381 213.965 160.907 214.721C147.201 215.853 133.457 213.044 121.282 206.62C110.552 201.357 101 193.954 93.2085 184.863C86.6249 177.303 82.1479 168.129 80.2315 158.27C78.9331 150.292 79.8518 142.109 82.8864 134.623C85.0694 129.127 88.455 124.194 92.7924 120.191C95.4633 117.76 98.5159 115.789 101.827 114.359C104.105 113.543 105.294 113.185 105.294 113.185L104.422 113.503C103.848 113.722 102.976 114.021 101.866 114.459C98.5878 115.953 95.5706 117.97 92.9311 120.43C88.6708 124.443 85.3544 129.359 83.2232 134.822C80.2393 142.252 79.3415 150.362 80.6278 158.27C82.5384 168.123 87.0242 177.288 93.6246 184.823C101.397 193.834 110.907 201.167 121.579 206.381C133.69 212.738 147.351 215.5 160.966 214.343C168.343 213.578 175.492 211.331 181.987 207.734C188.822 203.901 194.544 198.344 198.589 191.611C202.858 184.366 205.442 176.245 206.148 167.856C206.855 159.466 205.666 151.025 202.671 143.162C196.331 126.78 181.848 113.304 164.314 106.715C155.355 103.295 145.822 101.646 136.24 101.859C126.349 101.986 116.62 104.405 107.81 108.925C98.7589 113.617 91.2469 120.832 86.1752 129.706C80.992 138.869 79.1495 149.561 80.9646 159.942C84.4119 180.942 100.499 199.573 121.262 207.117C131.794 211.031 143.27 211.594 154.131 208.73C165.234 205.926 175.066 199.43 182.026 190.297C189.034 180.903 192.298 169.219 191.18 157.533C191.08 156.08 190.744 154.647 190.526 153.194C189.604 148.893 188.034 144.758 185.87 140.932C182.874 135.821 178.894 131.361 174.161 127.815C164.505 120.551 152.479 117.21 140.48 118.459C128.376 119.686 116.981 124.779 107.969 132.99C99.0333 141.151 92.6142 152.477 91.9604 164.54C91.68 170.544 92.8277 176.528 95.3085 181.997C97.8133 187.405 101.27 192.314 105.512 196.488C113.979 204.794 124.695 210.409 136.32 212.631C142.031 213.73 147.872 213.978 153.655 213.368C159.385 212.798 164.957 211.151 170.08 208.511C175.159 205.906 179.572 202.159 182.977 197.563C186.303 192.976 188.674 187.763 189.951 182.236C192.444 171.241 191.433 159.737 187.059 149.352C182.703 139.367 175.813 130.706 167.079 124.236C158.345 117.767 148.073 113.715 137.29 112.488C132.075 111.99 126.815 112.265 121.679 113.304C116.636 114.444 111.771 116.266 107.216 118.718C102.762 121.223 98.6247 124.257 94.8925 127.755C91.2776 131.284 88.086 135.225 85.3827 139.499C82.8038 143.754 80.7607 148.314 79.3004 153.075C77.9646 157.794 77.2976 162.679 77.3192 167.586C77.3428 177.219 80.3401 186.608 85.8978 194.458C91.5452 201.838 99.3327 207.277 108.186 210.023C116.676 212.771 125.489 214.384 134.398 214.821C142.949 215.398 151.536 214.523 159.797 212.233C165.674 210.684 171.151 207.887 175.861 204.031C180.571 200.175 184.402 195.35 187.098 189.879C188.784 186.404 190.06 182.743 190.902 178.971C192.512 171.695 192.748 164.18 191.596 156.817C189.444 143.229 183.046 130.681 173.329 120.987C165.038 112.414 154.287 106.658 142.58 104.526C137.443 103.626 132.201 103.505 127.028 104.168C122.327 104.73 117.734 105.984 113.397 107.89C106.08 111.083 99.7749 116.233 95.1699 122.779C91.7809 127.564 89.3702 132.976 88.0771 138.703C87.2914 142.222 86.9782 145.83 87.146 149.432C87.146 150.646 87.3441 151.562 87.3837 152.179C87.4233 152.796 87.463 153.134 87.463 153.134Z" fill="#F28078"/>
<path d="M165.424 142.823C165.424 143.082 152.526 147.421 136.439 152.497C120.351 157.573 107.216 161.475 107.137 161.196C107.057 160.917 120.034 156.598 136.122 151.522C152.209 146.446 165.246 142.545 165.424 142.823Z" fill="#F28078"/>
<path d="M169.01 152.299C169.109 152.557 157.004 156.996 141.986 162.251C126.969 167.506 114.744 171.428 114.645 171.149C114.546 170.87 126.652 166.451 141.669 161.196C156.687 155.941 168.911 152 169.01 152.299Z" fill="#F28078"/>
<path d="M146.84 171.726C147.157 172.164 140.896 174.652 133.328 177.359C129.524 178.712 126.037 179.867 123.422 180.663C122.079 181.195 120.674 181.556 119.242 181.738C120.489 180.993 121.819 180.398 123.204 179.966C125.681 179.011 129.148 177.737 132.932 176.384C136.716 175.03 140.223 173.836 142.739 173C145.255 172.164 146.939 171.686 146.84 171.726Z" fill="#F28078"/>
<path d="M156.999 184.669C156.868 184.624 156.696 184.566 156.493 184.497C156.004 184.331 155.333 184.105 154.606 183.861C153.153 183.374 151.47 182.815 150.565 182.535C149.687 182.264 149.164 181.928 148.89 181.446C148.614 180.959 148.555 180.257 148.769 179.163C148.801 179.002 148.902 178.887 149.125 178.812C149.362 178.732 149.708 178.71 150.15 178.75C151.029 178.829 152.18 179.139 153.337 179.526C154.49 179.911 155.631 180.366 156.485 180.726C156.912 180.905 157.266 181.061 157.513 181.171C157.588 181.204 157.652 181.233 157.706 181.257L156.999 184.669Z" fill="#162141" stroke="#F28078" stroke-width="0.54"/>
<path d="M156.484 188.829L155.98 188.659C155.492 188.496 154.824 188.271 154.098 188.028C152.647 187.543 150.966 186.985 150.052 186.696C149.162 186.414 148.639 186.078 148.368 185.599C148.095 185.115 148.04 184.419 148.254 183.323C148.286 183.162 148.387 183.047 148.609 182.972C148.847 182.892 149.192 182.87 149.635 182.91C150.514 182.989 151.665 183.299 152.822 183.686C153.975 184.071 155.116 184.526 155.97 184.886C156.396 185.065 156.751 185.22 156.998 185.331C157.072 185.364 157.137 185.393 157.191 185.417L156.484 188.829Z" fill="#162141" stroke="#F28078" stroke-width="0.54"/>
<path d="M143.927 176.304L144.106 209.725C144.108 210.094 144.185 210.46 144.332 210.798C144.48 211.136 144.695 211.441 144.964 211.692C145.233 211.944 145.551 212.138 145.897 212.262C146.244 212.385 146.612 212.437 146.979 212.412C147.658 212.362 148.294 212.055 148.757 211.552C149.22 211.05 149.477 210.39 149.475 209.705V175.866L146.305 170.691L143.927 176.304Z" fill="url(#paint6_linear_313_1170)"/>
<path d="M146.265 170.791L145.394 172.801L147.434 172.701L146.265 170.791Z" fill="#135AB8"/>
<path d="M149.435 175.946C148.64 176.538 147.671 176.846 146.681 176.822C145.702 176.938 144.711 176.765 143.828 176.324C143.828 176.185 145.116 176.503 146.661 176.423C148.207 176.344 149.376 175.826 149.435 175.946Z" fill="#135AB8"/>
<path d="M146.602 212.412C146.529 211.945 146.496 211.472 146.503 210.999C146.503 209.844 146.503 208.57 146.503 207.157C146.503 203.554 146.503 199.195 146.404 194.477C146.305 189.76 146.404 185.421 146.404 181.818C146.404 180.404 146.404 179.13 146.404 177.976C146.358 177.506 146.358 177.033 146.404 176.563C146.437 177.033 146.437 177.506 146.404 177.976C146.404 179.13 146.404 180.404 146.404 181.818C146.404 185.421 146.404 189.78 146.404 194.477C146.404 199.175 146.404 203.554 146.404 207.157C146.404 208.57 146.404 209.844 146.404 210.999C146.494 211.466 146.561 211.938 146.602 212.412Z" fill="#135AB8"/>
<path d="M136.901 194.676L136.852 194.74L102.423 240.038C97.4688 247.4 89.7725 251.093 84.5263 251.238L81.5649 251.494L83.1412 281.819L96.447 280.299C100.639 279.819 104.662 278.361 108.194 276.041C111.726 273.721 114.669 270.603 116.789 266.937L136.901 194.676ZM136.901 194.676L136.906 194.595L136.637 194.577L136.906 194.595L136.906 194.595L136.906 194.594L136.907 194.589L136.908 194.569L136.914 194.491C136.919 194.423 136.927 194.321 136.938 194.191C136.96 193.931 136.994 193.556 137.043 193.098C137.141 192.182 137.298 190.935 137.532 189.61C137.766 188.285 138.076 186.887 138.481 185.668C138.888 184.442 139.38 183.431 139.958 182.845C141.382 181.444 142.44 180.89 143.121 180.68C143.461 180.575 143.708 180.555 143.862 180.558C143.867 180.559 143.871 180.559 143.876 180.559V189.82V190.311L144.29 190.048L157.844 181.449C157.897 181.671 157.971 181.99 158.053 182.387C158.221 183.2 158.425 184.338 158.568 185.639C158.854 188.248 158.888 191.473 157.922 194.038C156.145 198.203 154.099 202.247 151.798 206.144L151.797 206.147L116.789 266.937L136.901 194.676Z" fill="#162141" stroke="#F28078" stroke-width="0.54"/>
</g>
</g>
<defs>
<linearGradient id="paint0_linear_313_1170" x1="426.5" y1="177" x2="426.436" y2="389.558" gradientUnits="userSpaceOnUse">
<stop stop-color="#2B407E"/>
<stop offset="1" stop-color="#162141" stop-opacity="0"/>
</linearGradient>
<linearGradient id="paint1_linear_313_1170" x1="128.5" y1="152" x2="128.436" y2="364.558" gradientUnits="userSpaceOnUse">
<stop stop-color="#2B407E"/>
<stop offset="1" stop-color="#162141" stop-opacity="0"/>
</linearGradient>
<linearGradient id="paint2_linear_313_1170" x1="241.84" y1="31" x2="241.84" y2="114.881" gradientUnits="userSpaceOnUse">
<stop stop-color="#D7D9DE"/>
<stop offset="1" stop-color="#D7D9DE" stop-opacity="0"/>
</linearGradient>
<linearGradient id="paint3_linear_313_1170" x1="350.266" y1="206.882" x2="350.266" y2="276.471" gradientUnits="userSpaceOnUse">
<stop stop-color="#1554AD"/>
<stop offset="1" stop-color="#1355B0" stop-opacity="0"/>
</linearGradient>
<linearGradient id="paint4_linear_313_1170" x1="496.559" y1="211.918" x2="496.559" y2="369.19" gradientUnits="userSpaceOnUse">
<stop stop-color="#F28078"/>
<stop offset="1" stop-color="#F28078" stop-opacity="0"/>
</linearGradient>
<linearGradient id="paint5_linear_313_1170" x1="13.7766" y1="237.572" x2="13.7766" y2="386.762" gradientUnits="userSpaceOnUse">
<stop stop-color="#F28078"/>
<stop offset="1" stop-color="#F28078" stop-opacity="0"/>
</linearGradient>
<linearGradient id="paint6_linear_313_1170" x1="146.701" y1="170.691" x2="146.701" y2="212.418" gradientUnits="userSpaceOnUse">
<stop stop-color="#1058B8"/>
<stop offset="1" stop-color="#1058B8" stop-opacity="0"/>
</linearGradient>
<clipPath id="clip0_313_1170">
<rect width="420" height="356.303" fill="white" transform="translate(68 31)"/>
</clipPath>
<clipPath id="clip1_313_1170">
<rect width="175.166" height="181.137" fill="white" transform="translate(312.834 206.166)"/>
</clipPath>
<clipPath id="clip2_313_1170">
<rect width="139.336" height="286.635" fill="white" transform="translate(68 100.668)"/>
</clipPath>
</defs>
</svg>
