<svg width="600" height="506" viewBox="0 0 600 506" fill="none" xmlns="http://www.w3.org/2000/svg">
<path d="M180.077 400.576L180.924 401.966C181.864 403.542 183.242 404.81 184.89 405.616L186.346 406.344L184.955 407.192C183.379 408.131 182.111 409.509 181.305 411.157L180.577 412.612L179.762 411.265C178.816 409.695 177.439 408.428 175.796 407.615L174.34 406.898L175.731 406.051C177.307 405.109 178.578 403.732 179.392 402.086L180.077 400.576Z" fill="#0051BA"/>
<path d="M169.97 48.2837L170.904 49.841C171.952 51.5852 173.479 52.9909 175.304 53.8899L176.94 54.6945L175.382 55.6419C173.634 56.6887 172.224 58.2158 171.32 60.0412L170.515 61.6633L169.58 60.1191C168.529 58.3705 166.997 56.9607 165.167 56.0571L163.545 55.2525L165.102 54.3182C166.847 53.2659 168.253 51.7343 169.152 49.9059L169.97 48.2837Z" fill="#EF4135"/>
<path d="M506.88 219.182L507.815 220.74C508.865 222.485 510.391 223.894 512.215 224.802L513.85 225.606L512.292 226.541C510.544 227.592 509.134 229.123 508.23 230.953L507.425 232.575L506.491 231.018C505.436 229.276 503.911 227.868 502.091 226.956L500.455 226.151L502.013 225.217C503.761 224.17 505.171 222.643 506.075 220.818L506.88 219.182Z" fill="#F28078"/>
<path d="M542.952 44.9226L543.886 46.4799C544.938 48.2284 546.47 49.6382 548.3 50.5418L549.922 51.3464L548.364 52.2808C546.623 53.3313 545.218 54.8577 544.315 56.6801L543.51 58.3152L542.576 56.7579C541.524 55.0094 539.992 53.5996 538.162 52.6961L536.54 51.8914L538.085 50.9571C539.83 49.9068 541.239 48.3807 542.147 46.5577L542.952 44.9226Z" fill="#0051BA"/>
<path d="M532.775 0.799316L533.45 1.92835C534.215 3.20502 535.333 4.23278 536.669 4.88719L537.863 5.48414L536.721 6.15896C535.448 6.92718 534.421 8.04401 533.762 9.37735L533.178 10.5713L532.49 9.42926C531.722 8.15587 530.605 7.12912 529.271 6.47043L528.09 5.88644L529.219 5.19864C530.496 4.43444 531.524 3.31654 532.178 1.98026L532.775 0.799316Z" fill="#EF4135"/>
<path d="M144.686 77.5735L145.361 78.7025C146.127 79.9807 147.244 81.0121 148.58 81.6743L149.774 82.2583L148.631 82.9331C147.363 83.708 146.338 84.8231 145.672 86.1515L145.088 87.3454L144.4 86.2034C143.632 84.93 142.515 83.9033 141.181 83.2446L140 82.6606L141.129 81.9728C142.406 81.2086 143.434 80.0907 144.089 78.7544L144.686 77.5735Z" fill="#EF4135"/>
<path d="M565.587 7.83301L565.977 8.48188C566.418 9.20862 567.057 9.79404 567.82 10.1689L568.508 10.5063L567.859 10.8957C567.116 11.3281 566.516 11.9687 566.133 12.7384L565.795 13.4263L565.406 12.7774C564.969 12.044 564.329 11.4533 563.563 11.0773L562.888 10.7399L563.537 10.3506C564.264 9.91001 564.849 9.27056 565.224 8.50784L565.587 7.83301Z" fill="#0051BA"/>
<path d="M409.97 422.567L410.904 424.125C411.952 425.869 413.479 427.275 415.304 428.174L416.94 428.978L415.382 429.926C413.634 430.972 412.224 432.499 411.32 434.325L410.515 435.947L409.58 434.403C408.529 432.654 406.997 431.244 405.167 430.341L403.545 429.536L405.102 428.602C406.847 427.55 408.253 426.018 409.152 424.19L409.97 422.567Z" fill="#0051BA"/>
<path d="M384.686 451.857L385.361 452.986C386.127 454.264 387.244 455.296 388.58 455.958L389.774 456.542L388.631 457.217C387.363 457.991 386.338 459.106 385.672 460.435L385.088 461.629L384.4 460.487C383.632 459.213 382.515 458.187 381.181 457.528L380 456.944L381.129 456.256C382.406 455.492 383.434 454.374 384.089 453.038L384.686 451.857Z" fill="#EF4135"/>
<g clip-path="url(#clip0_408_2726)">
<rect x="477" y="177" width="123" height="190" rx="9.15743" fill="url(#paint0_linear_408_2726)"/>
<rect x="179" y="152" width="123" height="190" rx="9.15743" fill="url(#paint1_linear_408_2726)"/>
<path d="M212.411 318C212.198 318 212.198 262.472 212.411 194C212.624 125.528 212.937 70 213.135 70C213.334 70 213.349 125.514 213.135 194C212.922 262.486 212.61 318 212.411 318Z" fill="#A9BEDB"/>
<path d="M309.598 342C309.349 342 309.349 272.522 309.598 186.848C309.847 101.175 310.256 31.6968 310.505 31.6968C310.753 31.6968 310.771 101.157 310.505 186.866C310.238 272.575 309.864 342 309.598 342Z" fill="#0051BA"/>
<path d="M406.919 379.341C406.621 379.341 406.621 301.572 406.919 205.649C407.218 109.725 407.656 31.9358 407.934 31.9358C408.213 31.9358 408.233 109.686 407.934 205.649C407.636 301.612 407.118 379.341 406.919 379.341Z" fill="#0051BA"/>
<path d="M504.416 219C504.3 219 504.3 186.764 504.416 147.004C504.531 107.244 504.721 75 504.837 75C504.952 75 504.96 107.227 504.837 147.004C504.713 186.781 504.556 219 504.416 219Z" fill="#A9BEDB"/>
<path d="M592.735 115.558C592.735 115.725 504.8 115.868 396.332 115.868C287.864 115.868 199.905 115.725 199.905 115.558C199.905 115.391 287.84 115.247 396.332 115.247C504.824 115.247 592.735 115.379 592.735 115.558Z" fill="#0051BA"/>
<path d="M592.734 204.574C592.734 204.746 502.126 204.894 390.361 204.894C278.595 204.894 187.962 204.746 187.962 204.574C187.962 204.402 278.57 204.254 390.361 204.254C502.151 204.254 592.734 204.389 592.734 204.574Z" fill="#0051BA"/>
<path d="M592.734 293.57C592.734 293.754 502.126 293.89 390.361 293.89C278.595 293.89 187.962 293.754 187.962 293.57C187.962 293.385 278.57 293.25 390.361 293.25C502.151 293.25 592.734 293.398 592.734 293.57Z" fill="#0051BA"/>
<path d="M317.939 31C317.939 31 310.774 100.35 320.308 114.881L392.325 110.501L388.503 33.4683L317.939 31Z" fill="url(#paint2_linear_408_2726)"/>
<path d="M317.939 31C317.939 31 318.437 91.3327 321.522 109.725L397.162 106.142C397.162 106.142 390.514 46.8446 393.082 31H317.939Z" fill="#0051BA"/>
<path d="M355.201 39.5395H355.48H356.296C357.347 39.4975 358.4 39.5507 359.441 39.6987C361.107 39.9313 362.73 40.4075 364.258 41.112C366.272 42.1123 368.056 43.5225 369.493 45.2522C371.228 47.3805 372.466 49.8696 373.116 52.5376C373.697 55.6709 373.422 58.9029 372.32 61.893C371.754 63.5141 371.041 65.0799 370.19 66.5707C369.293 68.097 368.483 69.672 367.761 71.2883C366.262 74.709 365.237 78.3188 364.716 82.0172V82.276H364.477L357.012 82.3954L349.17 82.5148H348.891V82.2361C348.562 78.5448 347.317 74.9939 345.268 71.9053C344.353 70.3527 343.278 68.8996 342.442 67.4266C341.464 66.0369 340.573 64.5877 339.775 63.0873C338.382 60.2274 337.97 56.9889 338.6 53.8712C339.039 51.1894 340.029 48.6276 341.506 46.347C342.784 44.5039 344.475 42.984 346.443 41.9082C347.9 41.1018 349.46 40.499 351.081 40.1167C352.095 39.8671 353.126 39.6941 354.166 39.5992H355.261H354.982H354.186C353.156 39.7164 352.138 39.9161 351.14 40.1963C349.545 40.6067 348.012 41.2293 346.582 42.0475C344.685 43.1275 343.058 44.625 341.825 46.4266C340.395 48.6763 339.446 51.1974 339.038 53.8314C338.454 56.8546 338.873 59.9859 340.232 62.7489C341.028 64.2276 341.912 65.6568 342.88 67.0286C343.795 68.4816 344.87 69.9347 345.726 71.5072C347.847 74.6724 349.134 78.3216 349.468 82.1167L349.19 81.838L357.012 81.6987L364.477 81.5992L364.218 81.838C364.733 78.08 365.778 74.414 367.323 70.9499C368.062 69.3218 368.886 67.7338 369.792 66.1925C370.632 64.7336 371.339 63.2013 371.902 61.6143C372.993 58.7125 373.282 55.5699 372.738 52.5176C372.117 49.908 370.928 47.4677 369.254 45.3717C367.863 43.6691 366.135 42.273 364.178 41.2712C362.685 40.5513 361.096 40.0486 359.461 39.7783C358.435 39.607 357.396 39.5205 356.356 39.5195H355.261L355.201 39.5395Z" fill="white"/>
<path d="M359.064 81.5591V81.3202V80.6236L358.646 77.9165C358.307 75.5676 357.81 72.1639 357.471 67.9639C357.471 66.889 357.312 65.7942 357.272 64.6397C357.232 63.4852 357.173 62.271 357.272 61.0169C357.297 59.7133 357.582 58.4277 358.108 57.2349C358.685 55.9524 359.712 54.9256 360.995 54.3487C361.683 54.0675 362.438 53.9912 363.169 54.1289C363.9 54.2666 364.576 54.6125 365.115 55.125C365.661 55.6469 365.982 56.3608 366.011 57.1155C365.987 57.9024 365.715 58.6616 365.234 59.2852C364.747 59.9122 364.12 60.4165 363.403 60.7581C362.69 61.1043 361.933 61.3521 361.154 61.4947C359.589 61.8319 357.996 62.0185 356.396 62.052C354.787 62.1195 353.176 62.0463 351.579 61.833C350.797 61.708 350.034 61.4804 349.31 61.1563C348.562 60.8449 347.884 60.3843 347.32 59.8027C346.777 59.2536 346.398 58.5644 346.225 57.8122C346.058 57.0545 346.149 56.2629 346.484 55.5629C346.811 54.8762 347.377 54.3316 348.076 54.0302C348.414 53.8774 348.78 53.7983 349.151 53.7983C349.522 53.7983 349.888 53.8774 350.226 54.0302C350.871 54.3342 351.427 54.8006 351.838 55.3837C352.228 55.9902 352.499 56.6659 352.634 57.3743C352.874 58.6477 353.001 59.94 353.013 61.2359C353.152 63.724 353.271 66.0529 353.391 68.1629C353.59 72.4027 353.769 75.8264 353.888 78.1155C353.888 79.2899 353.888 80.2056 354.008 80.8425V81.5591V81.798C354.004 81.7184 354.004 81.6387 354.008 81.5591V80.8425C354.008 80.2056 353.908 79.2899 353.829 78.1155C353.689 75.7468 353.49 72.3231 353.251 68.1629C353.132 66.033 353.013 63.724 352.873 61.2359C352.838 59.9537 352.705 58.676 352.475 57.4141C352.329 56.768 352.066 56.1541 351.699 55.6027C351.324 55.04 350.8 54.5922 350.186 54.3089C349.879 54.156 349.544 54.0682 349.201 54.0511C348.859 54.034 348.516 54.0879 348.195 54.2093C347.549 54.4894 347.031 55.0005 346.742 55.6425C346.42 56.2892 346.329 57.0268 346.484 57.7326C346.636 58.4838 347.003 59.175 347.539 59.7231C348.599 60.8217 350.004 61.5241 351.52 61.7136C353.096 61.9268 354.688 62.0001 356.277 61.9326C357.869 61.8959 359.455 61.716 361.014 61.3951C361.77 61.2341 362.505 60.987 363.204 60.6586C363.889 60.3382 364.489 59.8608 364.956 59.2653C365.394 58.6914 365.644 57.9962 365.672 57.2747C365.687 56.9038 365.622 56.5341 365.481 56.1907C365.34 55.8472 365.127 55.5381 364.856 55.2842C364.351 54.7967 363.715 54.4673 363.025 54.3365C362.336 54.2056 361.623 54.2791 360.975 54.5477C359.745 55.1007 358.761 56.085 358.208 57.3146C357.687 58.4823 357.397 59.7393 357.352 61.0169C357.352 62.271 357.352 63.4653 357.352 64.6198C357.352 65.7743 357.352 66.889 357.531 67.9439C357.849 72.1638 358.327 75.5676 358.626 77.8965C358.785 79.0709 358.924 79.8871 359.004 80.6036L359.104 81.3202C359.095 81.4005 359.081 81.4803 359.064 81.5591Z" fill="white"/>
<path d="M349.11 81.9574C349.11 81.9574 349.21 82.8929 349.309 84.4654C349.409 86.0379 349.528 88.4465 349.648 91.0142V90.855L354.744 96.8266L354.485 96.727L360.456 96.3886L360.198 96.5081L363.124 92.9251L364.597 91.1536V91.3725C364.597 87.9289 364.457 84.6645 364.378 81.6787L364.696 81.9772L353.708 82.0967H350.524C350.126 82.124 349.727 82.124 349.329 82.0967C349.68 82.0632 350.033 82.0632 350.384 82.0967L353.489 81.9374L364.676 81.4995H364.995V81.818C364.995 84.8038 365.174 88.0683 365.273 91.5119V91.6512H365.174C364.696 92.2284 364.198 92.8256 363.721 93.4426C362.706 94.6569 361.73 95.8512 360.775 97.0057L360.675 97.1251H360.516L354.544 97.4038H354.385V97.2844L349.389 91.3128V91.2133C349.389 88.6057 349.389 86.3763 349.389 84.5052C349.11 82.7536 349.11 81.9175 349.11 81.9574Z" fill="white"/>
<path d="M364.318 90.4769C364.125 90.416 363.938 90.336 363.761 90.238C363.402 90.0788 362.885 89.8598 362.228 89.6409C360.519 89.0553 358.719 88.779 356.913 88.8248C355.107 88.8823 353.327 89.2667 351.658 89.9593C351.148 90.1624 350.649 90.3951 350.165 90.656L349.628 90.9148C349.779 90.7818 349.946 90.6682 350.126 90.5764C350.59 90.282 351.076 90.0226 351.579 89.8001C353.261 89.0527 355.073 88.6403 356.913 88.5859C358.745 88.5395 360.57 88.8436 362.288 89.4816C362.807 89.6719 363.312 89.8981 363.8 90.1584C363.986 90.2417 364.16 90.3488 364.318 90.4769Z" fill="white"/>
<path d="M364.318 88.128L363.761 87.8891C363.402 87.7299 362.885 87.5109 362.228 87.272C360.517 86.6941 358.718 86.4245 356.913 86.4758C355.107 86.5333 353.327 86.9178 351.658 87.6104C351.144 87.805 350.645 88.0379 350.165 88.3071C349.996 88.4125 349.816 88.4992 349.628 88.5659C349.628 88.5659 349.787 88.4265 350.126 88.2275C350.585 87.9254 351.072 87.6656 351.579 87.4512C354.968 85.9415 358.815 85.8271 362.288 87.1327C362.809 87.3182 363.315 87.5445 363.8 87.8095C363.986 87.8928 364.16 87.9998 364.318 88.128Z" fill="white"/>
<path d="M364.178 85.8787C363.985 85.8178 363.798 85.7378 363.621 85.6398C363.263 85.4806 362.745 85.2616 362.088 85.0427C360.379 84.4571 358.58 84.1808 356.774 84.2266C354.968 84.2841 353.187 84.6685 351.519 85.3611C351.008 85.5642 350.509 85.7969 350.026 86.0578L349.488 86.3365C349.488 86.3365 349.648 86.1773 349.986 85.9782C350.455 85.6916 350.94 85.4324 351.439 85.2019C354.828 83.6922 358.675 83.5778 362.148 84.8834C362.666 85.0775 363.171 85.3035 363.661 85.5602C363.846 85.6435 364.02 85.7506 364.178 85.8787Z" fill="white"/>
<g clip-path="url(#clip1_408_2726)">
<path d="M510.594 232.254L510.779 232.108L510.659 231.905L510.427 232.043C510.659 231.905 510.659 231.905 510.659 231.905L510.659 231.905L510.658 231.903L510.653 231.895L510.636 231.865L510.567 231.75C510.507 231.648 510.418 231.499 510.305 231.31C510.079 230.93 509.753 230.386 509.356 229.728C508.562 228.414 507.484 226.646 506.346 224.833C505.208 223.02 504.009 221.16 502.974 219.662C502.456 218.914 501.978 218.253 501.567 217.733C501.162 217.22 500.807 216.822 500.537 216.619C500.271 216.42 499.769 216.159 499.118 215.862C498.458 215.56 497.622 215.21 496.672 214.833C494.771 214.079 492.402 213.214 490.049 212.409C487.696 211.605 485.355 210.859 483.509 210.344C482.587 210.087 481.784 209.886 481.163 209.764C480.853 209.703 480.583 209.661 480.364 209.642C480.157 209.624 479.956 209.623 479.808 209.671C479.642 209.726 479.18 209.835 478.479 209.993C478.133 210.071 477.735 210.159 477.294 210.257C476.849 210.356 476.36 210.464 475.835 210.582C473.75 211.049 471.127 211.652 468.621 212.317C466.119 212.98 463.719 213.708 462.087 214.425C461.278 214.781 460.624 215.148 460.247 215.522C460.059 215.71 459.911 215.927 459.878 216.171C459.842 216.432 459.942 216.667 460.131 216.863C460.475 217.219 461.014 217.453 461.648 217.608C462.289 217.765 463.062 217.85 463.91 217.884C465.606 217.951 467.639 217.812 469.588 217.598C471.54 217.385 473.417 217.096 474.806 216.861C475.5 216.743 476.073 216.639 476.473 216.564C476.672 216.526 476.829 216.496 476.935 216.475L477.011 216.46L478.158 216.999C477.846 217.057 477.458 217.129 477.011 217.215C475.808 217.445 474.177 217.767 472.465 218.139C470.753 218.51 468.957 218.93 467.426 219.356C465.905 219.778 464.612 220.215 463.929 220.624C462.557 221.447 462.096 222.649 462.364 223.641C462.631 224.632 463.605 225.314 464.868 225.103C465.368 225.02 466.286 224.849 467.417 224.639C468.846 224.374 470.616 224.045 472.312 223.749C473.838 223.483 475.309 223.243 476.439 223.095C476.78 223.05 477.087 223.014 477.355 222.989C477.202 223.037 477.034 223.089 476.852 223.143C475.772 223.466 474.255 223.868 472.67 224.285C472.584 224.307 472.498 224.33 472.411 224.353C470.909 224.748 469.366 225.154 468.104 225.516C467.436 225.707 466.844 225.887 466.376 226.047C465.923 226.202 465.555 226.349 465.356 226.48C464.382 227.073 463.846 228.236 463.865 229.231C463.874 229.734 464.027 230.223 464.37 230.575C464.719 230.932 465.23 231.113 465.882 231.058L465.883 231.057C466.07 231.041 466.415 230.973 466.856 230.875C467.305 230.775 467.87 230.64 468.508 230.481C469.786 230.163 471.363 229.751 472.898 229.343C473.554 229.168 474.202 228.994 474.816 228.829C472.752 229.739 470.719 230.717 468.72 231.763L468.684 231.782L468.655 231.81C467.887 232.567 467.798 233.539 468.23 234.261C468.661 234.982 469.574 235.394 470.678 235.132C471.05 235.046 471.735 234.773 472.556 234.423C473.282 234.112 474.134 233.731 475.01 233.34C475.137 233.284 475.264 233.227 475.392 233.17C476.401 232.719 477.421 232.267 478.303 231.899C479.143 231.55 479.84 231.285 480.28 231.169C480.321 231.185 480.383 231.211 480.463 231.252C480.632 231.339 480.881 231.492 481.183 231.754C481.787 232.277 482.606 233.24 483.409 234.982C483.836 235.908 484.702 237.02 485.739 238.154C486.781 239.293 488.013 240.475 489.191 241.543C490.369 242.612 491.495 243.569 492.327 244.258C492.743 244.603 493.086 244.881 493.324 245.074C493.444 245.17 493.537 245.244 493.601 245.295L493.673 245.352L493.692 245.367L493.697 245.371L493.698 245.372L493.699 245.372C493.699 245.372 493.699 245.372 493.866 245.16L493.699 245.372L493.866 245.504L494.033 245.372L510.594 232.254ZM480.222 231.149C480.221 231.149 480.222 231.149 480.222 231.149L480.222 231.149Z" stroke="#EF4135" stroke-width="0.54"/>
<path d="M460.325 216.676C461.495 217.265 462.778 217.598 464.087 217.651C465.5 217.826 466.927 217.866 468.347 217.77C469.92 217.571 471.631 217.293 473.443 217.014L477.265 216.377H477.026C479.928 217.495 482.917 218.374 485.963 219.005C483.189 217.592 480.299 216.42 477.324 215.501H477.225H477.105L473.303 216.078L468.267 216.895C466.899 217.033 465.521 217.067 464.147 216.994C461.798 216.855 460.365 216.536 460.325 216.676Z" fill="#EF4135"/>
<path d="M445.376 206.882C445.376 206.882 430.527 251.928 425.471 261.024L476.03 276.471L485.226 270.599C485.226 270.599 497.508 234.332 499.06 222.15L445.376 206.882Z" fill="#D2D2DA"/>
<path d="M445.376 206.882C445.376 206.882 430.527 251.928 425.471 261.024L476.03 276.471L485.226 270.599C485.226 270.599 497.508 234.332 499.06 222.15L445.376 206.882Z" fill="url(#paint3_linear_408_2726)"/>
<path d="M478.777 268.927L476.109 276.471L485.306 270.599L478.777 268.927Z" fill="#85A9D8"/>
<path d="M485.406 237.875C483.475 237.443 481.584 236.85 479.753 236.103L466.237 231.445L452.701 227.006C450.793 226.494 448.929 225.829 447.128 225.016C449.092 225.282 451.03 225.715 452.92 226.31C456.463 227.265 461.32 228.718 466.615 230.49C471.91 232.261 476.667 234.053 480.071 235.426C481.925 236.065 483.712 236.885 485.406 237.875Z" fill="white"/>
<path d="M481.106 247.967C479.22 247.718 477.362 247.299 475.552 246.713C472.168 245.797 467.59 244.424 462.415 242.732C457.24 241.04 452.761 239.408 449.496 238.134C447.689 237.54 445.942 236.773 444.281 235.844C446.143 236.213 447.968 236.746 449.735 237.437L462.733 241.756L475.751 245.996C477.59 246.496 479.382 247.155 481.106 247.967Z" fill="white"/>
<path d="M475.99 257.183C470.226 255.767 464.544 254.033 458.971 251.988C453.302 250.258 447.739 248.198 442.311 245.817C453.746 248.955 464.992 252.749 475.99 257.183Z" fill="white"/>
<path d="M500.267 222.603C499.671 222.442 499.054 222.368 498.436 222.384L493.44 222.205L486.015 222.046H483.865C483.001 221.901 482.115 222.101 481.397 222.603C481.197 222.811 481.065 223.074 481.018 223.359C480.972 223.644 481.014 223.936 481.138 224.196C481.328 224.626 481.631 224.998 482.014 225.271C482.671 225.789 483.394 226.217 484.164 226.545C487.043 227.543 489.99 228.335 492.982 228.913C494.225 229.25 495.412 229.766 496.505 230.446C497.501 231.103 498.337 231.899 499.173 232.556C499.805 233.159 500.563 233.617 501.392 233.895C502.221 234.174 503.101 234.267 503.97 234.168C505.224 233.909 505.622 233.213 505.582 233.213C505.071 233.504 504.511 233.699 503.93 233.79C503.127 233.817 502.328 233.675 501.584 233.373C500.84 233.071 500.168 232.617 499.61 232.038C498.744 231.214 497.834 230.436 496.883 229.709C495.755 228.934 494.503 228.356 493.181 227.998C490.244 227.362 487.347 226.558 484.502 225.589C483.797 225.29 483.129 224.909 482.512 224.454C481.955 224.017 481.676 223.419 481.975 223.181C482.273 222.942 483.029 222.882 483.766 222.902H485.916H493.34C495.45 222.902 497.162 222.902 498.337 222.782C498.985 222.81 499.635 222.75 500.267 222.603Z" fill="#EF4135"/>
<path d="M711.649 274.938L725.403 237.457C722.537 227.823 712.246 217.392 697.934 214.665C693.376 213.79 688.957 212.137 683.622 211.918C678.745 215.772 672.73 217.903 666.515 217.978C660.3 218.054 654.235 216.07 649.266 212.336L648.768 211.978C647.394 212.137 645.563 212.317 643.274 212.595H642.816C637.104 213.31 631.67 215.476 627.031 218.885L555.233 261.741L513.074 229.694L491.716 246.434C491.716 246.434 546.953 301.671 552.307 302.985C556.03 303.9 592.874 283.776 615.208 271.316C614.292 284.692 609.236 359.038 609.535 369.19H712.126V322.313V309.554L711.649 274.938Z" fill="url(#paint4_linear_408_2726)"/>
<path d="M524.36 238.83C524.598 239.069 519.961 243.468 514.049 248.644C510.576 251.887 506.878 254.881 502.981 257.601C506.196 254.101 509.662 250.841 513.352 247.847C516.318 245.26 519.025 242.971 521.016 241.338C522.041 240.389 523.161 239.549 524.36 238.83Z" fill="#0051BA"/>
<path d="M529.257 242.473C526.023 246.043 522.53 249.369 518.806 252.426C515.84 255.053 513.113 257.402 511.103 259.054C510.083 260.036 508.939 260.879 507.699 261.562C508.541 260.427 509.517 259.398 510.605 258.497C512.596 256.705 515.144 254.277 518.13 251.649C521.115 249.022 523.842 246.693 525.853 245.041C526.885 244.057 528.027 243.195 529.257 242.473Z" fill="#0051BA"/>
</g>
<g clip-path="url(#clip2_408_2726)">
<path d="M61.3329 385.189L157.719 386.762L156.233 372.191C156.233 372.191 145.614 316.715 145.693 315.999L147.357 312.456C149.585 308.147 150.815 303.389 150.956 298.536C151.097 293.683 150.144 288.86 148.169 284.429H194.966L192.985 246.291L143.87 239.025L125.603 237.572C125.603 237.572 93.4087 239.264 92.7153 239.344C79.243 240.976 63.5717 242.011 57.846 256.502C54.7751 264.245 57.6874 275.87 62.6801 287.873L74.5674 324.677C79.3223 344.921 71.7342 343.966 67.5737 364.329C66.9793 367.394 61.2734 382.343 61.3329 385.189Z" fill="url(#paint5_linear_408_2726)"/>
<path d="M199.463 153.134C199.463 153.134 199.245 151.9 199.047 149.472C198.825 145.861 199.105 142.236 199.879 138.703C201.388 131.885 204.469 125.518 208.873 120.115C213.278 114.711 218.883 110.422 225.239 107.591C229.606 105.656 234.232 104.376 238.969 103.789C244.187 103.12 249.475 103.234 254.66 104.128C266.483 106.25 277.348 112.042 285.725 120.689C290.434 125.391 294.438 130.755 297.613 136.613C300.949 142.889 303.206 149.686 304.289 156.717C305.482 164.163 305.26 171.768 303.635 179.131C302.787 182.957 301.497 186.671 299.792 190.198C298.002 193.804 295.736 197.152 293.056 200.15C287.361 206.272 280.104 210.706 272.075 212.969C263.73 215.287 255.057 216.181 246.418 215.617C237.432 215.219 228.538 213.626 219.969 210.879C210.932 208.06 202.986 202.497 197.224 194.955C191.553 186.957 188.493 177.386 188.467 167.566C188.428 162.573 189.095 157.6 190.449 152.796C191.927 147.953 193.996 143.313 196.61 138.982C199.363 134.644 202.6 130.637 206.259 127.039C210.049 123.482 214.246 120.388 218.76 117.823C223.403 115.328 228.362 113.48 233.5 112.329C238.713 111.257 244.055 110.976 249.35 111.493C260.301 112.721 270.737 116.819 279.615 123.376C288.492 129.933 295.498 138.72 299.931 148.855C304.397 159.425 305.43 171.141 302.883 182.335C301.575 188.003 299.15 193.35 295.75 198.06C292.248 202.772 287.722 206.619 282.516 209.307C277.274 211.984 271.585 213.664 265.735 214.263C259.847 214.894 253.898 214.646 248.082 213.527C236.262 211.265 225.367 205.553 216.759 197.105C212.418 192.846 208.887 187.827 206.338 182.296C203.785 176.685 202.604 170.543 202.891 164.381C203.564 151.98 210.122 140.495 219.236 132.114C228.4 123.719 240.005 118.5 252.342 117.225C258.432 116.633 264.578 117.18 270.47 118.838C276.299 120.472 281.78 123.171 286.637 126.8C291.455 130.425 295.498 134.987 298.524 140.216C300.045 142.813 301.261 145.578 302.15 148.457C302.665 149.87 302.942 151.343 303.318 152.796C303.695 154.249 303.873 155.742 303.972 157.235C305.162 169.156 301.884 181.094 294.779 190.715C287.669 200.024 277.636 206.646 266.309 209.506C255.256 212.407 243.583 211.83 232.866 207.854C211.786 200.17 195.481 181.28 191.974 159.902C190.127 149.308 192.011 138.398 197.304 129.049C202.433 119.997 210.065 112.633 219.275 107.85C228.21 103.272 238.073 100.82 248.102 100.684C257.795 100.484 267.435 102.167 276.493 105.641C294.324 112.408 308.886 125.964 315.285 142.605C318.319 150.58 319.519 159.141 318.796 167.649C318.072 176.156 315.442 184.388 311.105 191.731C306.972 198.549 301.149 204.173 294.205 208.053C287.626 211.697 280.381 213.965 272.907 214.721C259.201 215.853 245.458 213.044 233.283 206.62C222.552 201.357 213 193.954 205.209 184.863C198.625 177.303 194.148 168.129 192.232 158.27C190.933 150.292 191.852 142.109 194.887 134.623C197.07 129.127 200.455 124.194 204.793 120.191C207.464 117.76 210.516 115.789 213.827 114.359C216.105 113.543 217.294 113.185 217.294 113.185L216.422 113.503C215.848 113.722 214.976 114.021 213.867 114.459C210.588 115.953 207.571 117.97 204.931 120.43C200.671 124.443 197.355 129.359 195.223 134.822C192.239 142.252 191.342 150.362 192.628 158.27C194.539 168.123 199.024 177.288 205.625 184.823C213.397 193.834 222.907 201.167 233.58 206.381C245.69 212.738 259.351 215.5 272.966 214.343C280.343 213.578 287.492 211.331 293.987 207.734C300.822 203.901 306.544 198.344 310.589 191.611C314.858 184.366 317.442 176.245 318.148 167.856C318.855 159.466 317.666 151.025 314.671 143.162C308.331 126.78 293.848 113.304 276.314 106.715C267.355 103.295 257.823 101.646 248.241 101.859C238.349 101.986 228.62 104.405 219.81 108.925C210.759 113.617 203.247 120.832 198.175 129.706C192.992 138.869 191.15 149.561 192.965 159.942C196.412 180.942 212.5 199.573 233.263 207.117C243.794 211.031 255.27 211.594 266.131 208.73C277.234 205.926 287.066 199.43 294.027 190.297C301.034 180.903 304.298 169.219 303.18 157.533C303.081 156.08 302.744 154.647 302.526 153.194C301.604 148.893 300.034 144.758 297.87 140.932C294.874 135.821 290.894 131.361 286.161 127.815C276.505 120.551 264.479 117.21 252.481 118.459C240.376 119.686 228.981 124.779 219.969 132.99C211.034 141.151 204.614 152.477 203.961 164.54C203.68 170.544 204.828 176.528 207.309 181.997C209.813 187.405 213.27 192.314 217.512 196.488C225.979 204.794 236.695 210.409 248.32 212.631C254.031 213.73 259.872 213.978 265.656 213.368C271.385 212.798 276.957 211.151 282.08 208.511C287.159 205.906 291.573 202.159 294.978 197.563C298.303 192.976 300.675 187.763 301.951 182.236C304.445 171.241 303.433 159.737 299.059 149.352C294.703 139.367 287.814 130.706 279.08 124.236C270.345 117.767 260.073 113.715 249.291 112.488C244.075 111.99 238.815 112.265 233.679 113.304C228.637 114.444 223.771 116.266 219.216 118.718C214.762 121.223 210.625 124.257 206.893 127.755C203.278 131.284 200.086 135.225 197.383 139.499C194.804 143.754 192.761 148.314 191.301 153.075C189.965 157.794 189.298 162.679 189.319 167.586C189.343 177.219 192.34 186.608 197.898 194.458C203.545 201.838 211.333 207.277 220.187 210.023C228.677 212.771 237.489 214.384 246.398 214.821C254.949 215.398 263.536 214.523 271.797 212.233C277.674 210.684 283.152 207.887 287.861 204.031C292.571 200.175 296.403 195.35 299.098 189.879C300.784 186.404 302.06 182.743 302.902 178.971C304.513 171.695 304.748 164.18 303.596 156.817C301.444 143.229 295.047 130.681 285.329 120.987C277.038 112.414 266.288 106.658 254.581 104.526C249.443 103.626 244.201 103.505 239.028 104.168C234.327 104.73 229.735 105.984 225.397 107.89C218.08 111.083 211.775 116.233 207.17 122.779C203.781 127.564 201.37 132.976 200.077 138.703C199.292 142.222 198.978 145.83 199.146 149.432C199.146 150.646 199.344 151.562 199.384 152.179C199.424 152.796 199.463 153.134 199.463 153.134Z" fill="#EF4135"/>
<path d="M277.424 142.823C277.424 143.082 264.527 147.421 248.439 152.497C232.352 157.573 219.216 161.475 219.137 161.196C219.058 160.917 232.035 156.598 248.122 151.522C264.21 146.446 277.246 142.545 277.424 142.823Z" fill="#EF4135"/>
<path d="M281.01 152.299C281.109 152.557 269.004 156.996 253.986 162.251C238.968 167.506 226.744 171.428 226.645 171.149C226.546 170.87 238.651 166.451 253.669 161.196C268.687 155.941 280.911 152 281.01 152.299Z" fill="#EF4135"/>
<path d="M258.84 171.726C259.157 172.164 252.897 174.652 245.329 177.359C241.525 178.712 238.038 179.867 235.423 180.663C234.079 181.195 232.675 181.556 231.242 181.738C232.489 180.993 233.819 180.398 235.205 179.966C237.681 179.011 241.148 177.737 244.932 176.384C248.716 175.03 252.223 173.836 254.739 173C257.255 172.164 258.94 171.686 258.84 171.726Z" fill="#EF4135"/>
<path d="M255.928 176.304L256.106 209.725C256.108 210.094 256.185 210.46 256.333 210.798C256.48 211.136 256.695 211.441 256.964 211.692C257.234 211.944 257.551 212.138 257.898 212.262C258.244 212.385 258.612 212.437 258.979 212.412C259.659 212.362 260.294 212.055 260.757 211.552C261.22 211.05 261.477 210.39 261.475 209.705V175.866L258.305 170.691L255.928 176.304Z" fill="url(#paint6_linear_408_2726)"/>
<path d="M258.265 170.791L257.394 172.801L259.434 172.701L258.265 170.791Z" fill="#135AB8"/>
<path d="M261.435 175.946C260.64 176.538 259.671 176.846 258.681 176.822C257.702 176.938 256.711 176.765 255.828 176.324C255.828 176.185 257.116 176.503 258.661 176.423C260.207 176.344 261.375 175.826 261.435 175.946Z" fill="#135AB8"/>
<path d="M258.603 212.412C258.529 211.945 258.496 211.472 258.503 210.999C258.503 209.844 258.503 208.57 258.503 207.157C258.503 203.554 258.503 199.195 258.404 194.477C258.305 189.76 258.404 185.421 258.404 181.818C258.404 180.404 258.404 179.13 258.404 177.976C258.358 177.506 258.358 177.033 258.404 176.563C258.438 177.033 258.438 177.506 258.404 177.976C258.404 179.13 258.404 180.404 258.404 181.818C258.404 185.421 258.404 189.78 258.404 194.477C258.404 199.175 258.404 203.554 258.404 207.157C258.404 208.57 258.404 209.844 258.404 210.999C258.495 211.466 258.561 211.938 258.603 212.412Z" fill="#135AB8"/>
<path d="M249.035 194.88L249.126 194.76L249.136 194.611L249.136 194.611L249.136 194.609L249.137 194.605L249.138 194.586L249.144 194.509C249.149 194.441 249.157 194.34 249.168 194.211C249.19 193.952 249.224 193.579 249.273 193.123C249.37 192.21 249.526 190.968 249.759 189.65C249.992 188.33 250.3 186.945 250.7 185.741C251.104 184.522 251.582 183.555 252.121 183.008C253.527 181.625 254.554 181.096 255.189 180.9C255.373 180.843 255.526 180.813 255.646 180.799V189.82V190.729L256.414 190.242L269.694 181.817C269.734 181.992 269.78 182.199 269.828 182.434C269.996 183.241 270.198 184.372 270.34 185.664C270.624 188.262 270.653 191.44 269.709 193.953C267.936 198.107 265.896 202.14 263.601 206.027L263.598 206.032L228.59 266.822C226.489 270.457 223.57 273.548 220.068 275.849C216.567 278.149 212.578 279.595 208.421 280.071C208.421 280.071 208.421 280.071 208.421 280.071L195.359 281.563L193.807 251.704L196.54 251.468C201.867 251.317 209.622 247.582 214.611 240.172L249.035 194.88Z" stroke="#EF4135"/>
</g>
</g>
<defs>
<linearGradient id="paint0_linear_408_2726" x1="538.5" y1="177" x2="538.436" y2="389.558" gradientUnits="userSpaceOnUse">
<stop stop-color="#A4BFE2"/>
<stop offset="1" stop-color="#A3BDE1" stop-opacity="0"/>
</linearGradient>
<linearGradient id="paint1_linear_408_2726" x1="240.5" y1="152" x2="240.436" y2="364.558" gradientUnits="userSpaceOnUse">
<stop stop-color="#9EBAE0"/>
<stop offset="1" stop-color="#A0BCE0" stop-opacity="0"/>
</linearGradient>
<linearGradient id="paint2_linear_408_2726" x1="353.84" y1="31" x2="353.84" y2="114.881" gradientUnits="userSpaceOnUse">
<stop stop-color="#1860BE"/>
<stop offset="1" stop-color="#0E59BC" stop-opacity="0.21"/>
</linearGradient>
<linearGradient id="paint3_linear_408_2726" x1="462.265" y1="206.882" x2="462.265" y2="276.471" gradientUnits="userSpaceOnUse">
<stop stop-color="#0051BA"/>
<stop offset="1" stop-color="#0051BA" stop-opacity="0.44"/>
</linearGradient>
<linearGradient id="paint4_linear_408_2726" x1="608.559" y1="211.918" x2="658" y2="407" gradientUnits="userSpaceOnUse">
<stop stop-color="#EF4135"/>
<stop offset="1" stop-color="#EF4135" stop-opacity="0"/>
</linearGradient>
<linearGradient id="paint5_linear_408_2726" x1="125.777" y1="237.572" x2="125.777" y2="386.762" gradientUnits="userSpaceOnUse">
<stop stop-color="#EF4135"/>
<stop offset="1" stop-color="#EF4135"/>
</linearGradient>
<linearGradient id="paint6_linear_408_2726" x1="258.701" y1="170.691" x2="259" y2="224" gradientUnits="userSpaceOnUse">
<stop stop-color="#4674F9"/>
<stop offset="1" stop-color="#4674F9" stop-opacity="0"/>
</linearGradient>
<clipPath id="clip0_408_2726">
<rect width="420" height="356.303" fill="white" transform="translate(180 31)"/>
</clipPath>
<clipPath id="clip1_408_2726">
<rect width="175.166" height="181.137" fill="white" transform="translate(424.834 206.166)"/>
</clipPath>
<clipPath id="clip2_408_2726">
<rect width="139.336" height="286.635" fill="white" transform="translate(180 100.668)"/>
</clipPath>
</defs>
</svg>
