<svg width="501" height="704" viewBox="0 0 501 704" fill="none" xmlns="http://www.w3.org/2000/svg">
<rect x="38.9189" y="62.9573" width="244.389" height="357.14" rx="9.15743" fill="url(#paint0_linear_408_2616)"/>
<path d="M86.6352 41.7634C85.8756 42.1442 85.2383 42.7309 84.7961 43.4565C84.3538 44.1821 84.1244 45.0174 84.1341 45.8671L84.3516 79.9041C84.3514 80.6865 84.5537 81.4556 84.9388 82.1366C85.324 82.8176 85.8788 83.3873 86.5494 83.7903L114.811 100.634L141.866 83.092C142.505 82.6745 143.028 82.1026 143.387 81.4294C143.746 80.7561 143.93 80.0032 143.921 79.2402L143.697 43.7036C143.696 42.8257 143.44 41.9669 142.961 41.2314C142.481 40.4959 141.799 39.9153 140.996 39.5599L114.359 28.0444L86.6352 41.7634Z" fill="url(#paint1_linear_408_2616)"/>
<g opacity="0.2">
<path d="M114.359 28.0444L114.817 100.634L141.837 83.1264C142.481 82.7151 143.01 82.148 143.377 81.4777C143.743 80.8074 143.934 80.0555 143.932 79.2917L143.72 43.6121C143.719 42.7525 143.467 41.9121 142.995 41.1935C142.523 40.4749 141.853 39.9092 141.065 39.5656L114.359 28.0444Z" fill="white"/>
</g>
<path d="M122.269 68.8063L105.786 68.9093L102.426 76.8763H97.8477L111.698 45.0142H116.082L130.391 76.6989L125.738 76.7332L122.269 68.8063ZM120.695 65.2006L113.908 49.6558L107.297 65.2693L120.695 65.2006Z" fill="#0051BA"/>
<path d="M294.236 302.646C294.018 302.773 292.079 299.548 288.166 294.017C286.215 291.252 283.748 287.924 280.684 284.229C277.236 280.05 273.481 276.133 269.45 272.513C267.127 270.417 264.649 268.499 262.037 266.775C259.304 264.909 256.262 263.541 253.052 262.736C251.463 262.352 249.808 262.328 248.209 262.667C246.648 263.049 245.259 263.942 244.262 265.203C243.199 266.582 242.458 268.182 242.093 269.885C241.657 271.716 241.426 273.591 241.405 275.473C241.406 279.483 241.845 283.481 242.713 287.396C243.593 291.529 244.743 295.6 246.155 299.583C252.268 316.425 261.3 332.06 272.835 345.77C275.576 348.989 278.519 352.028 281.648 354.87C284.605 357.582 287.849 359.963 291.322 361.973C292.967 362.891 294.706 363.629 296.508 364.176C298.168 364.704 299.923 364.86 301.649 364.635C303.242 364.401 304.709 363.637 305.815 362.467C306.91 361.259 307.718 359.819 308.179 358.255C309.086 355.073 309.42 351.755 309.166 348.455C308.996 345.334 308.586 342.23 307.938 339.172C306.802 333.869 305.268 328.66 303.348 323.589C301.684 319.09 300.031 315.292 298.62 312.217C295.785 306.055 293.961 302.773 294.179 302.646C294.808 303.316 295.348 304.065 295.785 304.873C296.726 306.399 298.081 308.682 299.664 311.7C301.248 314.718 303.107 318.482 304.908 322.981C307.007 328.089 308.692 333.358 309.946 338.736C310.683 341.887 311.174 345.091 311.415 348.318C311.744 351.906 311.429 355.524 310.485 359.001C309.932 360.934 308.952 362.719 307.616 364.222C306.143 365.82 304.174 366.875 302.028 367.217C299.921 367.537 297.769 367.384 295.728 366.77C293.734 366.188 291.809 365.388 289.991 364.383C286.307 362.313 282.866 359.838 279.732 357.005C276.469 354.101 273.402 350.984 270.552 347.675C258.722 333.761 249.508 317.822 243.355 300.627C241.928 296.501 240.777 292.284 239.913 288.004C239.021 283.857 238.594 279.623 238.639 275.381C238.684 273.295 238.961 271.221 239.465 269.196C239.947 267.103 240.888 265.144 242.219 263.459C243.597 261.778 245.494 260.604 247.613 260.119C249.586 259.711 251.626 259.754 253.58 260.246C257.059 261.167 260.347 262.702 263.288 264.778C265.961 266.605 268.493 268.63 270.861 270.837C274.903 274.648 278.633 278.777 282.015 283.185C284.999 287.029 287.34 290.483 289.164 293.363C290.989 296.243 292.297 298.561 293.135 300.145C293.61 300.927 293.98 301.768 294.236 302.646Z" fill="#0051BA"/>
<path d="M258.802 302.577C259.008 302.704 257.149 305.836 254.211 311.758C252.766 314.695 251.067 318.333 249.357 322.648C247.406 327.511 245.844 332.523 244.687 337.634C244.02 340.579 243.59 343.572 243.402 346.585C243.133 349.766 243.444 352.97 244.32 356.04C244.778 357.557 245.561 358.955 246.615 360.137C247.683 361.275 249.078 362.053 250.608 362.363C252.262 362.684 253.966 362.637 255.6 362.225C257.372 361.816 259.09 361.2 260.718 360.389C264.177 358.647 267.423 356.509 270.391 354.021C273.538 351.415 276.505 348.602 279.273 345.598C290.934 332.789 300.127 317.935 306.389 301.786C307.844 297.966 309.036 294.051 309.958 290.069C310.86 286.311 311.326 282.46 311.346 278.594C311.341 276.778 311.125 274.968 310.704 273.201C310.343 271.555 309.626 270.008 308.604 268.668C307.64 267.435 306.317 266.533 304.817 266.086C303.29 265.678 301.692 265.608 300.135 265.88C296.999 266.465 293.994 267.612 291.265 269.265C288.656 270.787 286.17 272.51 283.829 274.417C279.775 277.737 275.988 281.371 272.503 285.284C269.405 288.727 266.903 291.883 264.918 294.464C260.947 299.674 258.974 302.738 258.767 302.612C259.025 301.758 259.412 300.95 259.915 300.214C260.775 298.71 262.095 296.507 263.965 293.787C266.225 290.463 268.649 287.253 271.229 284.171C274.649 280.058 278.411 276.243 282.475 272.765C284.855 270.722 287.399 268.88 290.083 267.257C293.042 265.393 296.316 264.087 299.745 263.401C301.65 263.058 303.607 263.128 305.483 263.608C307.498 264.179 309.286 265.362 310.601 266.993C311.879 268.614 312.791 270.494 313.274 272.501C313.762 274.469 314.024 276.486 314.055 278.514C314.102 282.585 313.674 286.648 312.781 290.62C311.856 294.738 310.648 298.787 309.166 302.738C302.833 319.27 293.43 334.454 281.454 347.491C278.595 350.582 275.528 353.473 272.273 356.144C269.101 358.75 265.635 360.976 261.946 362.776C260.116 363.658 258.191 364.324 256.208 364.761C254.199 365.232 252.111 365.256 250.092 364.83C248.047 364.383 246.19 363.313 244.779 361.766C243.501 360.296 242.557 358.565 242.013 356.694C241.102 353.333 240.81 349.833 241.153 346.367C241.408 343.239 241.923 340.138 242.69 337.095C243.988 331.904 245.723 326.833 247.877 321.936C249.481 318.253 251.27 314.653 253.236 311.149C254.843 308.258 256.22 306.1 257.183 304.654C258.147 303.209 258.71 302.52 258.802 302.577Z" fill="#0051BA"/>
<path d="M274.258 289.37C274.258 289.622 270.609 289.679 264.079 290.311C260.82 290.632 256.838 291.114 252.271 291.917C247.109 292.828 242.025 294.14 237.067 295.842C234.214 296.827 231.444 298.036 228.782 299.456C225.933 300.894 223.371 302.838 221.219 305.194C220.168 306.374 219.385 307.768 218.924 309.279C218.52 310.794 218.592 312.397 219.131 313.869C219.734 315.442 220.67 316.867 221.873 318.046C223.16 319.328 224.588 320.46 226.131 321.42C229.431 323.444 232.955 325.081 236.631 326.297C240.506 327.606 244.467 328.649 248.484 329.418C265.508 332.601 282.973 332.601 299.997 329.418C304.014 328.654 307.975 327.615 311.85 326.308C315.531 325.094 319.058 323.458 322.362 321.431C323.904 320.472 325.332 319.34 326.619 318.058C327.823 316.878 328.758 315.454 329.362 313.881C329.9 312.408 329.973 310.805 329.568 309.291C329.107 307.779 328.324 306.385 327.273 305.205C325.122 302.849 322.559 300.905 319.711 299.468C317.053 298.038 314.282 296.829 311.426 295.853C306.468 294.151 301.384 292.839 296.221 291.929C291.631 291.125 287.672 290.643 284.413 290.322C277.884 289.691 274.235 289.634 274.246 289.381C275.107 289.158 275.997 289.065 276.886 289.106C278.618 289.048 281.189 289.014 284.494 289.163C287.798 289.312 291.826 289.622 296.485 290.311C301.782 291.054 307.007 292.244 312.103 293.868C315.09 294.825 317.995 296.023 320.79 297.448C323.934 298.98 326.769 301.076 329.155 303.633C330.46 305.078 331.435 306.789 332.012 308.648C332.583 310.661 332.519 312.801 331.829 314.776C331.125 316.719 330.005 318.486 328.547 319.951C327.136 321.407 325.557 322.69 323.842 323.772C320.373 325.954 316.66 327.722 312.78 329.039C308.792 330.419 304.712 331.52 300.57 332.333C283.176 335.668 265.305 335.668 247.911 332.333C243.769 331.52 239.69 330.419 235.701 329.039C231.821 327.722 228.108 325.954 224.639 323.772C222.926 322.687 221.347 321.405 219.934 319.951C218.474 318.488 217.353 316.721 216.652 314.776C215.962 312.801 215.898 310.661 216.469 308.648C217.049 306.79 218.023 305.079 219.326 303.633C221.713 301.077 224.548 298.981 227.691 297.448C230.483 296.019 233.388 294.826 236.378 293.879C241.472 292.245 246.697 291.051 251.996 290.311C256.655 289.645 260.694 289.335 263.987 289.163C267.281 288.991 269.863 289.048 271.595 289.106C272.491 289.061 273.388 289.15 274.258 289.37Z" fill="#0051BA"/>
<path d="M286.555 315.428C287.407 310.193 283.853 305.258 278.617 304.406C273.382 303.554 268.447 307.108 267.595 312.344C266.743 317.58 270.297 322.514 275.533 323.366C280.769 324.218 285.703 320.664 286.555 315.428Z" fill="#0051BA"/>
<rect x="295.899" y="276.44" width="244.389" height="357.14" rx="9.15743" fill="url(#paint2_linear_408_2616)"/>
<g clip-path="url(#clip0_408_2616)">
<path d="M542.422 501.601C542.422 501.601 526.419 510.717 522.964 538.76C521.166 553.409 514.679 580.55 514.679 580.55L501.622 565.777L481.71 588.371C481.71 588.371 502.932 634.157 514.972 646.665C527.013 659.172 550.981 663.113 550.981 663.113L556.122 586.762L542.422 501.601Z" fill="url(#paint3_linear_408_2616)"/>
<path d="M472.78 534.715L472.78 534.715L472.779 534.714L472.778 534.708L472.773 534.685C472.77 534.674 472.766 534.659 472.762 534.64C472.758 534.626 472.754 534.61 472.749 534.593C472.728 534.511 472.696 534.389 472.65 534.234C472.559 533.924 472.417 533.48 472.213 532.948C471.804 531.882 471.15 530.47 470.166 529.076C468.201 526.293 464.935 523.597 459.675 523.86C448.9 524.398 446.262 524.389 441.588 523.784C440.386 523.628 439.035 523.15 437.669 522.563C436.637 522.119 435.581 521.605 434.561 521.108C434.23 520.947 433.903 520.788 433.582 520.634C432.263 520 431.048 519.451 430.041 519.164C429.537 519.021 429.102 518.949 428.741 518.958C428.383 518.967 428.118 519.057 427.927 519.218C427.026 519.981 426.784 521.227 427.259 522.752C427.734 524.278 428.917 526.032 430.775 527.696C432.629 529.356 435.164 530.78 437.25 531.793C438.29 532.299 439.214 532.699 439.877 532.973C440.209 533.11 440.475 533.216 440.658 533.287C440.749 533.322 440.82 533.349 440.868 533.367L440.921 533.387L440.935 533.392L440.938 533.393L440.939 533.394L440.939 533.394L441.954 533.766L440.888 533.945L427.114 536.252L427.018 536.269L426.931 536.222L427.067 535.97C426.931 536.222 426.931 536.222 426.931 536.222L426.931 536.222L426.929 536.221L426.923 536.217L426.896 536.203L426.793 536.148C426.702 536.1 426.568 536.029 426.397 535.939C426.054 535.759 425.56 535.504 424.959 535.201C423.756 534.594 422.122 533.798 420.398 533.038C418.673 532.278 416.866 531.557 415.312 531.098C414.535 530.869 413.829 530.707 413.234 530.638C412.634 530.568 412.18 530.595 411.882 530.712C411.097 531.056 410.435 531.633 409.985 532.363C409.535 533.096 409.319 533.948 409.368 534.807L409.394 535.276L408.965 535.084L408.965 535.084L408.965 535.084L408.964 535.083L408.962 535.082L408.952 535.078L408.91 535.06C408.874 535.044 408.819 535.021 408.749 534.992C408.608 534.934 408.406 534.853 408.157 534.762C407.66 534.58 406.984 534.359 406.266 534.2C405.546 534.04 404.8 533.946 404.155 534.008C403.509 534.069 403.009 534.282 402.712 534.69C401.987 535.686 401.568 536.49 401.485 537.161C401.444 537.489 401.484 537.782 401.607 538.054C401.721 538.306 401.913 538.554 402.206 538.799C402.218 538.808 402.228 538.816 402.238 538.824C402.258 538.84 402.275 538.853 402.287 538.864C402.292 538.869 402.297 538.874 402.301 538.877L402.306 538.882L402.308 538.884L402.309 538.885L402.31 538.886C402.31 538.886 402.31 538.886 402.108 539.089L402.31 538.886L401.931 539.313C401.905 539.293 401.88 539.273 401.855 539.252C401.834 539.237 401.806 539.219 401.772 539.199C401.664 539.135 401.486 539.051 401.228 538.988C400.711 538.861 399.855 538.812 398.556 539.189L472.78 534.715ZM472.78 534.715L472.796 534.788L472.846 534.843L501.079 566.217L481.715 588.384L464.603 560.999L472.78 534.715ZM399.303 545.1L399.306 545.102L399.316 545.108L399.358 545.132L399.521 545.227L400.139 545.586C400.673 545.895 401.435 546.337 402.352 546.868C404.186 547.929 406.637 549.345 409.106 550.764C411.576 552.182 414.064 553.603 415.971 554.674C416.924 555.209 417.731 555.657 418.318 555.973C418.612 556.131 418.848 556.255 419.019 556.34C419.105 556.383 419.172 556.415 419.22 556.436C419.243 556.446 419.26 556.453 419.27 556.457C420.11 556.569 422.037 556.607 424.65 556.591C427.271 556.575 430.558 556.504 434.079 556.404C441.119 556.205 449.086 555.89 454.501 555.661C456.507 555.576 458.499 556.025 460.274 556.963C462.049 557.901 463.543 559.293 464.603 560.998L399.303 545.1ZM399.303 545.1L399.303 545.1L399.302 545.1L398.596 544.686L398.597 544.686L398.589 544.682C397.669 544.18 397.129 542.961 397.11 541.741C397.092 540.516 397.596 539.468 398.556 539.189L399.303 545.1ZM401.907 539.293L401.907 539.292C401.908 539.293 401.909 539.294 401.909 539.294L401.908 539.294L401.907 539.293Z" stroke="#EF4135" stroke-width="0.57234"/>
<mask id="path-12-inside-1_408_2616" fill="white">
<path d="M438.041 541.064C436.997 541.374 435.93 541.607 434.851 541.759C432.828 542.128 429.993 542.619 426.679 543.165L426.599 543.164L426.519 543.164L422.118 541.124L411.618 536.238L408.449 534.717C408.044 534.55 407.661 534.334 407.31 534.073C407.732 534.165 408.142 534.309 408.53 534.5L411.78 535.85L416.557 537.937L422.36 540.611L426.749 542.674L426.578 542.673C429.892 542.161 432.75 541.75 434.784 541.473C435.857 541.251 436.946 541.114 438.041 541.064Z"/>
</mask>
<path d="M438.041 541.064C436.997 541.374 435.93 541.607 434.851 541.759C432.828 542.128 429.993 542.619 426.679 543.165L426.599 543.164L426.519 543.164L422.118 541.124L411.618 536.238L408.449 534.717C408.044 534.55 407.661 534.334 407.31 534.073C407.732 534.165 408.142 534.309 408.53 534.5L411.78 535.85L416.557 537.937L422.36 540.611L426.749 542.674L426.578 542.673C429.892 542.161 432.75 541.75 434.784 541.473C435.857 541.251 436.946 541.114 438.041 541.064Z" fill="#AA6550"/>
<path d="M438.041 541.064L438.204 541.613L438.015 540.492L438.041 541.064ZM434.851 541.759L434.771 541.192L434.76 541.194L434.749 541.196L434.851 541.759ZM426.679 543.165L426.676 543.737L426.724 543.737L426.772 543.729L426.679 543.165ZM426.519 543.164L426.278 543.683L426.391 543.736L426.516 543.736L426.519 543.164ZM422.118 541.124L421.877 541.643L421.877 541.643L422.118 541.124ZM411.618 536.238L411.371 536.754L411.377 536.757L411.618 536.238ZM408.449 534.717L408.697 534.201L408.682 534.194L408.667 534.188L408.449 534.717ZM407.31 534.073L407.432 533.514L406.968 534.532L407.31 534.073ZM408.53 534.5L408.277 535.014L408.293 535.022L408.31 535.029L408.53 534.5ZM411.78 535.85L412.009 535.326L411.999 535.322L411.78 535.85ZM416.557 537.937L416.797 537.417L416.786 537.413L416.557 537.937ZM422.36 540.611L422.604 540.093L422.6 540.091L422.36 540.611ZM426.749 542.674L426.747 543.246L426.993 542.156L426.749 542.674ZM426.578 542.673L426.491 542.107L426.576 543.245L426.578 542.673ZM434.784 541.473L434.861 542.04L434.881 542.038L434.9 542.034L434.784 541.473ZM437.878 540.515C436.861 540.818 435.822 541.044 434.771 541.192L434.931 542.326C436.038 542.17 437.132 541.931 438.204 541.613L437.878 540.515ZM434.749 541.196C432.73 541.564 429.898 542.054 426.586 542.6L426.772 543.729C430.089 543.183 432.927 542.691 434.954 542.322L434.749 541.196ZM426.681 542.592L426.601 542.592L426.596 543.737L426.676 543.737L426.681 542.592ZM426.601 542.592L426.521 542.592L426.516 543.736L426.596 543.737L426.601 542.592ZM426.759 542.645L422.359 540.605L421.877 541.643L426.278 543.683L426.759 542.645ZM422.36 540.605L411.86 535.719L411.377 536.757L421.877 541.643L422.36 540.605ZM411.866 535.722L408.697 534.201L408.202 535.233L411.371 536.754L411.866 535.722ZM408.667 534.188C408.306 534.039 407.964 533.846 407.651 533.613L406.968 534.532C407.358 534.822 407.782 535.061 408.231 535.246L408.667 534.188ZM407.187 534.632C407.564 534.715 407.93 534.843 408.277 535.014L408.783 533.987C408.354 533.775 407.9 533.616 407.432 533.514L407.187 534.632ZM408.31 535.029L411.56 536.379L411.999 535.322L408.75 533.972L408.31 535.029ZM411.551 536.375L416.328 538.462L416.786 537.413L412.009 535.326L411.551 536.375ZM416.318 538.457L422.121 541.131L422.6 540.091L416.797 537.417L416.318 538.457ZM422.117 541.129L426.506 543.192L426.993 542.156L422.604 540.093L422.117 541.129ZM426.752 542.101L426.58 542.101L426.576 543.245L426.747 543.246L426.752 542.101ZM426.665 543.239C429.977 542.727 432.831 542.317 434.861 542.04L434.707 540.906C432.669 541.184 429.808 541.595 426.491 542.107L426.665 543.239ZM434.9 542.034C435.944 541.818 437.003 541.684 438.067 541.636L438.015 540.492C436.89 540.544 435.771 540.684 434.668 540.913L434.9 542.034Z" fill="#EF4135" mask="url(#path-12-inside-1_408_2616)"/>
<path d="M428.578 548.471C428.834 548.269 429.101 548.081 429.375 547.907C428.841 548.28 428.329 548.682 427.841 549.114C428.075 548.888 428.321 548.673 428.578 548.471Z" fill="#AA6550" stroke="#EF4135" stroke-width="0.57234"/>
<path d="M453.115 537.701C454.658 537.076 456.258 536.604 457.891 536.292C457.893 536.294 457.896 536.296 457.898 536.298C456.267 536.641 454.67 537.128 453.126 537.754L453.125 537.754C451.741 538.317 450.406 538.987 449.131 539.757C450.392 538.955 451.725 538.266 453.115 537.701Z" fill="#AA6550" stroke="#EF4135" stroke-width="0.57234"/>
<path d="M413.26 543.789C414.162 544.124 415.036 544.458 415.87 544.786C415.027 544.472 414.145 544.149 413.236 543.822C411.702 543.269 410.243 542.728 408.92 542.219L413.259 543.789C413.26 543.789 413.26 543.789 413.26 543.789Z" fill="#AA6550" stroke="#EF4135" stroke-width="0.57234"/>
<path d="M425.087 548.788C425.469 548.749 425.84 548.705 426.191 548.659C425.514 548.784 424.828 548.853 424.139 548.867C424.445 548.846 424.762 548.82 425.087 548.788Z" fill="#AA6550" stroke="#EF4135" stroke-width="0.57234"/>
</g>
<path d="M125.357 191.803C125.276 194.353 127.296 196.478 129.848 196.525L334.184 200.342C336.691 200.389 338.77 198.411 338.847 195.905L340.661 136.769C340.739 134.218 338.716 132.095 336.164 132.051L131.869 128.506C129.366 128.463 127.292 130.437 127.213 132.94L125.357 191.803Z" fill="url(#paint4_linear_408_2616)"/>
<path d="M144.993 144.535C142.659 144.761 140.306 144.711 137.984 144.384C139.136 144.2 140.306 144.154 141.468 144.248C142.65 144.208 143.833 144.304 144.993 144.535Z" fill="white"/>
<path d="M145.387 137.517C144.236 137.704 143.066 137.75 141.903 137.653C140.733 137.7 139.561 137.605 138.413 137.371C139.565 137.194 140.734 137.149 141.897 137.236C143.067 137.203 144.237 137.297 145.387 137.517Z" fill="white"/>
<path d="M144.844 152.143C143.692 152.327 142.523 152.373 141.36 152.279C140.186 152.318 139.011 152.223 137.859 151.996C139.01 151.812 140.18 151.766 141.342 151.86C142.517 151.821 143.691 151.915 144.844 152.143Z" fill="white"/>
<path d="M144.697 159.66C143.545 159.846 142.375 159.891 141.213 159.795C140.042 159.836 138.871 159.741 137.722 159.514C140.052 159.288 142.401 159.338 144.719 159.663L144.697 159.66Z" fill="white"/>
<path d="M144.554 167.235C143.401 167.405 142.234 167.446 141.072 167.359C139.901 167.406 138.729 167.311 137.581 167.078C139.911 166.848 142.26 166.902 144.577 167.238L144.554 167.235Z" fill="white"/>
<path d="M144.412 174.799C143.26 174.975 142.091 175.017 140.93 174.923C139.755 174.969 138.58 174.874 137.428 174.64C138.58 174.462 139.749 174.417 140.912 174.504C142.086 174.465 143.261 174.564 144.412 174.799Z" fill="white"/>
<path d="M144.27 182.362C143.118 182.539 141.95 182.58 140.788 182.486C139.61 182.526 138.432 182.422 137.278 182.179C138.43 182.002 139.599 181.961 140.76 182.055C141.938 182.016 143.117 182.119 144.27 182.362Z" fill="white"/>
<path d="M173.064 144.717C173.047 144.83 168.995 144.834 163.979 144.716C158.963 144.599 154.89 144.426 154.896 144.312C154.902 144.197 158.966 144.195 163.983 144.301C169.001 144.408 173.07 144.603 173.064 144.717Z" fill="#EF4135"/>
<path d="M198.074 160.856C198.057 160.969 190.464 160.869 181.071 160.684C171.679 160.498 164.068 160.211 164.073 160.096C164.079 159.981 171.683 160.083 181.087 160.27C190.491 160.457 198.08 160.742 198.074 160.856Z" fill="#EF4135"/>
<path d="M237.404 161.723C237.387 161.836 229.783 161.735 220.388 161.56C210.994 161.386 203.396 161.089 203.39 160.973C203.385 160.857 211 160.96 220.404 161.147C229.808 161.334 237.397 161.618 237.404 161.723Z" fill="white"/>
<path d="M222.222 168.959C222.205 169.072 211.007 168.916 197.157 168.662C183.307 168.408 172.099 168.008 172.103 167.905C172.107 167.801 183.331 167.938 197.18 168.203C211.028 168.468 222.228 168.844 222.222 168.959Z" fill="#E0E0E0"/>
<path d="M222.08 176.523C222.063 176.635 210.865 176.479 197.023 176.169C183.181 175.859 171.964 175.527 171.969 175.412C171.975 175.297 183.184 175.455 197.034 175.709C210.885 175.963 222.082 176.431 222.08 176.523Z" fill="#E0E0E0"/>
<path d="M241.544 184.522C241.527 184.635 230.329 184.479 216.479 184.225C202.629 183.971 191.42 183.582 191.425 183.468C191.431 183.353 202.652 183.513 216.482 183.821C230.312 184.13 241.55 184.407 241.544 184.522Z" fill="#EF4135"/>
<path d="M302.782 185.882C302.765 185.995 291.567 185.839 277.717 185.585C263.867 185.331 252.659 184.931 252.665 184.817C252.67 184.702 263.891 184.862 277.733 185.172C291.574 185.482 302.786 185.779 302.782 185.882Z" fill="white"/>
<path d="M281.778 170.286C281.761 170.399 270.551 170.241 256.713 169.989C242.874 169.737 231.655 169.335 231.66 169.22C231.666 169.106 242.875 169.264 256.726 169.517C270.576 169.771 281.783 170.171 281.778 170.286Z" fill="#FAFAFA"/>
<path d="M309.332 178.46C309.315 178.573 291.914 178.283 270.421 177.806C248.927 177.329 231.521 176.842 231.514 176.737C231.507 176.632 248.943 176.916 270.436 177.393C291.93 177.87 309.337 178.346 309.332 178.46Z" fill="white"/>
<path d="M172.869 152.722C172.853 152.824 168.799 152.839 163.783 152.722C158.767 152.604 154.695 152.432 154.689 152.316C154.683 152.199 158.77 152.201 163.788 152.307C168.805 152.413 172.885 152.61 172.869 152.722Z" fill="white"/>
<path d="M181.345 183.179C181.328 183.292 177.264 183.294 172.246 183.188C167.229 183.082 163.169 182.9 163.163 182.784C163.158 182.667 167.233 182.667 172.262 182.775C177.291 182.883 181.337 183.074 181.345 183.179Z" fill="white"/>
<path d="M327.006 186.399C326.989 186.512 322.925 186.514 317.907 186.408C312.889 186.302 308.82 186.107 308.824 186.004C308.828 185.9 312.894 185.887 317.923 185.995C322.952 186.103 326.995 186.317 327.006 186.399Z" fill="#EF4135"/>
<path d="M149.695 192.365C149.537 192.342 149.842 178.846 150.39 162.188C150.938 145.53 151.509 132.028 151.682 132.031C151.854 132.034 151.535 145.551 150.987 162.208C150.439 178.866 149.857 192.367 149.695 192.365Z" fill="white"/>
<path d="M140.905 196.187C140.905 196.187 140.294 206.869 133.642 212.114L126.855 217.436L123.764 239.664L100.425 224.382L103.7 202.627L112.281 151.875C112.75 149.731 113.775 147.742 115.259 146.095L127.564 132.903" stroke="#EF4135" stroke-width="0.57234"/>
<mask id="path-40-inside-2_408_2616" fill="white">
<path d="M111.382 176.778C115.543 171.349 120.196 166.315 125.281 161.741C126.851 160.152 128.74 158.912 130.823 158.105C131.872 157.712 133.012 157.627 134.108 157.86C135.204 158.093 136.211 158.633 137.01 159.419C137.744 160.456 138.142 161.694 138.149 162.965C138.157 164.236 137.775 165.478 137.054 166.525C135.584 168.597 133.783 170.413 131.724 171.902C129.67 173.415 128.13 175.52 127.31 177.936C126.984 180.306 127.083 182.716 127.604 185.052C127.985 188.938 127.368 192.857 125.813 196.438C124.257 200.019 121.815 203.145 118.715 205.52"/>
</mask>
<path d="M125.281 161.741L125.664 162.166L125.677 162.155L125.689 162.143L125.281 161.741ZM130.823 158.105L130.622 157.569L130.616 157.571L130.823 158.105ZM137.01 159.419L137.478 159.088L137.448 159.046L137.411 159.01L137.01 159.419ZM137.054 166.525L137.521 166.856L137.526 166.85L137.054 166.525ZM131.724 171.902L131.389 171.439L131.385 171.441L131.724 171.902ZM127.31 177.936L126.768 177.752L126.75 177.804L126.743 177.858L127.31 177.936ZM127.604 185.052L128.174 184.996L128.171 184.961L128.163 184.927L127.604 185.052ZM111.836 177.126C115.976 171.725 120.605 166.717 125.664 162.166L124.899 161.315C119.787 165.913 115.11 170.973 110.927 176.43L111.836 177.126ZM125.689 162.143C127.202 160.611 129.022 159.417 131.03 158.639L130.616 157.571C128.458 158.408 126.501 159.692 124.874 161.338L125.689 162.143ZM131.023 158.641C131.971 158.286 133 158.21 133.989 158.42L134.227 157.3C133.024 157.045 131.774 157.138 130.622 157.569L131.023 158.641ZM133.989 158.42C134.979 158.63 135.888 159.118 136.609 159.827L137.411 159.01C136.534 158.149 135.43 157.555 134.227 157.3L133.989 158.42ZM136.543 159.749C137.209 160.691 137.57 161.815 137.577 162.968L138.722 162.961C138.713 161.573 138.279 160.221 137.478 159.088L136.543 159.749ZM137.577 162.968C137.584 164.122 137.237 165.25 136.583 166.201L137.526 166.85C138.313 165.707 138.73 164.349 138.722 162.961L137.577 162.968ZM136.588 166.194C135.153 168.214 133.397 169.986 131.389 171.439L132.06 172.366C134.169 170.84 136.014 168.979 137.521 166.856L136.588 166.194ZM131.385 171.441C129.237 173.023 127.625 175.226 126.768 177.752L127.852 178.12C128.634 175.815 130.104 173.806 132.064 172.363L131.385 171.441ZM126.743 177.858C126.407 180.296 126.51 182.774 127.046 185.176L128.163 184.927C127.657 182.658 127.56 180.317 127.877 178.014L126.743 177.858ZM127.035 185.108C127.406 188.897 126.804 192.718 125.288 196.21L126.338 196.666C127.932 192.995 128.564 188.979 128.174 184.996L127.035 185.108ZM125.288 196.21C123.771 199.702 121.389 202.75 118.367 205.066L119.063 205.974C122.24 203.54 124.743 200.336 126.338 196.666L125.288 196.21Z" fill="#EF4135" mask="url(#path-40-inside-2_408_2616)"/>
<path d="M38.7617 191.932C38.7617 191.932 55.1821 208.743 60.1519 225.876C64.6939 239.903 70.1094 253.632 76.3667 266.982L96.1478 221.238L129.456 243.168C129.456 243.168 108.126 316.166 104.292 324.546C98.978 336.144 88.7507 345.776 75.3684 342.606C61.9861 339.435 54.7606 332.186 47.6228 318.151L38.5947 294.713L38.7617 191.932Z" fill="url(#paint5_linear_408_2616)"/>
<path d="M76.2897 267.173C72.4177 278.884 70.4417 291.138 70.4364 303.472C70.29 304.994 70.6133 306.524 71.3627 307.856C71.5617 308.173 71.8235 308.446 72.132 308.659C72.4405 308.871 72.7891 309.017 73.1565 309.09C73.5238 309.162 73.9021 309.158 74.268 309.079C74.6338 309 74.9796 308.846 75.284 308.628C75.643 308.103 75.8755 307.502 75.9631 306.872C76.0507 306.242 75.9911 305.6 75.7889 304.997C73.7392 292.456 73.892 279.654 76.2403 267.166" fill="#EF4135"/>
<path d="M93.3447 431.719L93.4386 450.317C93.4386 450.317 124.279 432.885 115.241 416.191L93.3447 431.719Z" fill="url(#paint6_linear_408_2616)"/>
<path d="M96.3485 388.757C96.3485 388.757 74.0767 380.618 57.2354 395.703L74.5594 405.478L96.3485 388.757Z" fill="url(#paint7_linear_408_2616)"/>
<path d="M74.5576 405.531C75.2549 406.443 93.3298 431.719 93.3298 431.719L140.555 398.197C142.5 396.819 144.138 395.054 145.367 393.012C146.595 390.969 147.387 388.694 147.691 386.331C147.996 383.967 147.808 381.566 147.138 379.279C146.468 376.991 145.332 374.868 143.8 373.042C140.934 369.655 136.873 367.501 132.461 367.029C128.049 366.557 123.625 367.803 120.107 370.508L74.5576 405.531Z" fill="#456AD7"/>
<path d="M74.5583 405.531C74.6737 405.413 74.7993 405.306 74.9338 405.21L76.1137 404.258L80.7263 400.651L97.8358 387.322L109.703 378.124L116.326 373.002L119.799 370.32C121.008 369.394 122.328 368.624 123.728 368.027C124.438 367.716 125.169 367.452 125.914 367.236C126.672 367.037 127.443 366.884 128.22 366.78C129.803 366.552 131.41 366.552 132.993 366.78C136.282 367.223 139.375 368.596 141.91 370.736C143.206 371.83 144.34 373.103 145.276 374.517C146.218 375.959 146.954 377.525 147.461 379.17C148.45 382.575 148.403 386.197 147.327 389.575C146.294 392.803 144.341 395.659 141.709 397.795C139.027 399.806 136.439 401.563 133.865 403.426L118.955 413.966L93.478 431.933L93.2635 432.081L93.116 431.88C87.3636 423.754 82.6974 417.13 79.4391 412.571L75.7785 407.342L74.8399 406.001C74.7279 405.858 74.6292 405.706 74.5449 405.545C74.6749 405.694 74.7958 405.851 74.907 406.014C75.1617 406.336 75.4969 406.792 75.926 407.355L79.7207 412.544L93.5316 431.571H93.183L118.566 413.483C123.326 410.117 128.3 406.577 133.449 402.917C136.01 401.066 138.706 399.27 141.253 397.312C143.768 395.254 145.631 392.51 146.617 389.414C147.647 386.17 147.689 382.693 146.737 379.425C146.255 377.84 145.551 376.333 144.646 374.946C143.321 372.937 141.583 371.233 139.549 369.948C137.514 368.662 135.229 367.825 132.846 367.491C131.325 367.27 129.781 367.27 128.26 367.491C127.51 367.586 126.766 367.729 126.034 367.92C125.316 368.12 124.612 368.371 123.929 368.671C121.154 369.784 118.981 371.835 116.675 373.525L110.078 378.567L98.2113 387.577L80.9409 400.704L76.2076 404.284L74.9472 405.21L74.5583 405.531Z" fill="#F28078"/>
<path d="M97.1925 404.083L67.6934 425.309C67.6934 425.309 69.0342 428.541 69.7717 428.219C70.5092 427.897 92.6872 412.799 99.8877 407.891C100.164 407.702 100.397 407.454 100.569 407.167C100.742 406.879 100.85 406.557 100.887 406.224C100.924 405.89 100.889 405.553 100.783 405.234C100.678 404.916 100.505 404.624 100.277 404.378C99.8892 403.958 99.3602 403.695 98.791 403.64C98.2218 403.586 97.6525 403.744 97.1925 404.083Z" fill="url(#paint8_linear_408_2616)"/>
<path d="M127.805 390.755C127.805 390.755 127.711 389.883 127.215 388.422C126.503 386.35 125.121 384.576 123.286 383.38C121.944 382.504 120.405 381.977 118.807 381.848C117.21 381.719 115.606 381.992 114.141 382.643C112.347 383.438 110.839 384.764 109.82 386.442C108.801 388.12 108.32 390.069 108.442 392.029C108.589 394.051 109.362 395.977 110.655 397.54C111.806 398.926 113.326 399.958 115.039 400.518C116.752 401.078 118.588 401.143 120.336 400.704C121.788 400.351 123.135 399.657 124.265 398.679C125.939 397.266 127.087 395.329 127.523 393.182C127.657 392.387 127.751 391.586 127.805 390.782C127.865 390.986 127.892 391.199 127.885 391.412C127.927 392.022 127.891 392.635 127.778 393.235C127.474 395.142 126.621 396.919 125.323 398.348C124.025 399.777 122.339 400.796 120.47 401.281C118.618 401.77 116.665 401.722 114.839 401.142C113.013 400.563 111.39 399.476 110.159 398.009C108.762 396.349 107.931 394.287 107.785 392.122C107.655 390.034 108.171 387.957 109.263 386.172C110.354 384.387 111.968 382.982 113.886 382.146C115.554 381.433 117.382 381.174 119.183 381.395C121.092 381.644 122.889 382.438 124.358 383.682C125.828 384.926 126.908 386.567 127.469 388.408C127.656 388.986 127.768 389.585 127.805 390.192C127.833 390.378 127.833 390.568 127.805 390.755Z" fill="#85A9D8"/>
<path d="M142.768 396.387C158.631 381.557 155.802 364.38 155.802 364.38C134.468 358.775 120.067 370.508 120.067 370.508C134.267 372.506 141.87 381.101 142.768 396.387Z" fill="url(#paint9_linear_408_2616)"/>
<mask id="path-51-inside-3_408_2616" fill="white">
<path d="M97.134 428.047C97.134 428.047 96.7652 428.265 96.0274 428.662C95.2897 429.059 94.2021 429.608 92.8023 430.459C88.6843 432.801 84.7111 435.388 80.9042 438.208C74.8627 442.641 69.243 447.623 64.1164 453.089C60.9198 456.505 57.9199 460.099 55.1313 463.855C51.9769 468.041 49.2429 472.529 46.9691 477.252C45.778 479.803 44.7636 482.433 43.9331 485.123C43.0977 487.938 42.5339 490.828 42.2496 493.751C41.9866 496.799 42.149 499.868 42.732 502.871C43.0359 504.42 43.4564 505.945 43.9899 507.431C44.5501 508.926 45.2269 510.375 46.0139 511.764C49.4419 517.517 54.3383 522.255 60.2008 525.491C66.4423 528.878 73.2338 531.133 80.2611 532.151C83.8551 532.747 87.5153 533.154 91.2417 533.438C93.1333 533.599 95.0249 533.656 96.8597 533.741L102.535 533.987C104.426 534.11 106.318 534.062 108.285 534.062H114.092C116.04 534.062 117.998 533.93 119.956 533.864L125.877 533.589C142.218 532.513 158.441 530.077 174.377 526.305C207.196 518.68 237.187 506.797 263.594 494.47C276.835 488.349 289.196 481.954 299.619 474.234C304.664 470.538 309.314 466.331 313.494 461.679L314.969 459.995C315.452 459.437 315.915 458.832 316.35 458.264L317.703 456.533L318.942 454.745C320.596 452.468 322.013 450.027 323.169 447.46C325.417 442.734 326.549 437.556 326.48 432.323C326.389 427.628 324.515 423.143 321.24 419.778C318.27 416.984 314.537 415.137 310.515 414.471C307.149 413.873 303.704 413.873 300.338 414.471C297.648 414.944 295.003 415.643 292.431 416.562C290.189 417.338 288.336 418.104 286.832 418.738L283.437 420.195L282.283 420.687L283.418 420.147C284.174 419.807 285.309 419.286 286.794 418.643C288.279 418 290.142 417.215 292.384 416.42C294.957 415.483 297.605 414.768 300.3 414.282C303.691 413.658 307.165 413.642 310.562 414.234C314.633 414.881 318.419 416.725 321.439 419.532C324.781 422.94 326.698 427.494 326.801 432.266C326.893 437.562 325.76 442.807 323.491 447.593C322.336 450.183 320.916 452.646 319.254 454.943L318.015 456.741L316.71 458.482C316.246 459.059 315.811 459.664 315.319 460.232L313.844 461.925C309.654 466.601 304.992 470.831 299.931 474.546C289.48 482.313 277.081 488.737 263.859 494.867C237.443 507.232 207.423 519.134 174.557 526.778C141.69 534.422 109.212 536.598 80.2421 532.596C73.1684 531.555 66.335 529.268 60.0589 525.841C54.1251 522.565 49.1698 517.768 45.7017 511.944C44.8994 510.535 44.213 509.064 43.6494 507.544C43.1128 506.046 42.6891 504.509 42.382 502.947C41.7978 499.909 41.6386 496.804 41.9091 493.722C42.201 490.773 42.7743 487.859 43.621 485.019C44.4625 482.312 45.4895 479.666 46.6948 477.1C48.9851 472.36 51.7415 467.86 54.9232 463.666C62.2179 453.869 70.9518 445.232 80.8285 438.047C84.6533 435.243 88.6491 432.68 92.7928 430.374C95.5924 428.785 97.134 428.047 97.134 428.047Z"/>
</mask>
<path d="M97.134 428.047C97.134 428.047 96.7652 428.265 96.0274 428.662C95.2897 429.059 94.2021 429.608 92.8023 430.459C88.6843 432.801 84.7111 435.388 80.9042 438.208C74.8627 442.641 69.243 447.623 64.1164 453.089C60.9198 456.505 57.9199 460.099 55.1313 463.855C51.9769 468.041 49.2429 472.529 46.9691 477.252C45.778 479.803 44.7636 482.433 43.9331 485.123C43.0977 487.938 42.5339 490.828 42.2496 493.751C41.9866 496.799 42.149 499.868 42.732 502.871C43.0359 504.42 43.4564 505.945 43.9899 507.431C44.5501 508.926 45.2269 510.375 46.0139 511.764C49.4419 517.517 54.3383 522.255 60.2008 525.491C66.4423 528.878 73.2338 531.133 80.2611 532.151C83.8551 532.747 87.5153 533.154 91.2417 533.438C93.1333 533.599 95.0249 533.656 96.8597 533.741L102.535 533.987C104.426 534.11 106.318 534.062 108.285 534.062H114.092C116.04 534.062 117.998 533.93 119.956 533.864L125.877 533.589C142.218 532.513 158.441 530.077 174.377 526.305C207.196 518.68 237.187 506.797 263.594 494.47C276.835 488.349 289.196 481.954 299.619 474.234C304.664 470.538 309.314 466.331 313.494 461.679L314.969 459.995C315.452 459.437 315.915 458.832 316.35 458.264L317.703 456.533L318.942 454.745C320.596 452.468 322.013 450.027 323.169 447.46C325.417 442.734 326.549 437.556 326.48 432.323C326.389 427.628 324.515 423.143 321.24 419.778C318.27 416.984 314.537 415.137 310.515 414.471C307.149 413.873 303.704 413.873 300.338 414.471C297.648 414.944 295.003 415.643 292.431 416.562C290.189 417.338 288.336 418.104 286.832 418.738L283.437 420.195L282.283 420.687L283.418 420.147C284.174 419.807 285.309 419.286 286.794 418.643C288.279 418 290.142 417.215 292.384 416.42C294.957 415.483 297.605 414.768 300.3 414.282C303.691 413.658 307.165 413.642 310.562 414.234C314.633 414.881 318.419 416.725 321.439 419.532C324.781 422.94 326.698 427.494 326.801 432.266C326.893 437.562 325.76 442.807 323.491 447.593C322.336 450.183 320.916 452.646 319.254 454.943L318.015 456.741L316.71 458.482C316.246 459.059 315.811 459.664 315.319 460.232L313.844 461.925C309.654 466.601 304.992 470.831 299.931 474.546C289.48 482.313 277.081 488.737 263.859 494.867C237.443 507.232 207.423 519.134 174.557 526.778C141.69 534.422 109.212 536.598 80.2421 532.596C73.1684 531.555 66.335 529.268 60.0589 525.841C54.1251 522.565 49.1698 517.768 45.7017 511.944C44.8994 510.535 44.213 509.064 43.6494 507.544C43.1128 506.046 42.6891 504.509 42.382 502.947C41.7978 499.909 41.6386 496.804 41.9091 493.722C42.201 490.773 42.7743 487.859 43.621 485.019C44.4625 482.312 45.4895 479.666 46.6948 477.1C48.9851 472.36 51.7415 467.86 54.9232 463.666C62.2179 453.869 70.9518 445.232 80.8285 438.047C84.6533 435.243 88.6491 432.68 92.7928 430.374C95.5924 428.785 97.134 428.047 97.134 428.047Z" fill="#0051BA"/>
<path d="M97.134 428.047L99.1663 431.492L95.407 424.439L97.134 428.047ZM92.8023 430.459L94.7794 433.937L94.8307 433.908L94.881 433.877L92.8023 430.459ZM80.9042 438.208L83.2708 441.432L83.2778 441.427L83.2848 441.422L80.9042 438.208ZM64.1164 453.089L61.1987 450.353L61.1959 450.356L64.1164 453.089ZM55.1313 463.855L58.3259 466.263L58.3345 466.251L58.343 466.24L55.1313 463.855ZM46.9691 477.252L43.365 475.516L43.3548 475.538L43.3447 475.559L46.9691 477.252ZM43.9331 485.123L40.1111 483.943L40.1046 483.964L40.0984 483.985L43.9331 485.123ZM42.2496 493.751L38.2684 493.364L38.2663 493.385L38.2644 493.407L42.2496 493.751ZM42.732 502.871L38.8053 503.633L38.8067 503.641L42.732 502.871ZM43.9899 507.431L40.2251 508.782L40.2345 508.809L40.2442 508.835L43.9899 507.431ZM46.0139 511.764L42.5336 513.736L42.5552 513.774L42.5776 513.811L46.0139 511.764ZM60.2008 525.491L58.2677 528.993L58.2804 529L58.2931 529.007L60.2008 525.491ZM80.2611 532.151L80.9155 528.205L80.8753 528.199L80.8349 528.193L80.2611 532.151ZM91.2417 533.438L91.5806 529.452L91.5631 529.451L91.5455 529.45L91.2417 533.438ZM96.8597 533.741L96.6743 537.737L96.6865 537.737L96.8597 533.741ZM102.535 533.987L102.794 529.995L102.751 529.992L102.708 529.991L102.535 533.987ZM119.956 533.864L120.091 537.862L120.116 537.861L120.141 537.86L119.956 533.864ZM125.877 533.589L126.062 537.585L126.101 537.583L126.14 537.581L125.877 533.589ZM174.377 526.305L173.472 522.409L173.464 522.41L173.456 522.412L174.377 526.305ZM263.594 494.47L261.915 490.839L261.909 490.842L261.902 490.845L263.594 494.47ZM299.619 474.234L297.255 471.007L297.247 471.013L297.238 471.019L299.619 474.234ZM313.494 461.679L316.469 464.353L316.486 464.334L316.502 464.315L313.494 461.679ZM314.969 459.995L317.978 462.631L317.987 462.621L317.996 462.611L314.969 459.995ZM316.35 458.264L313.198 455.802L313.187 455.816L313.175 455.831L316.35 458.264ZM317.703 456.533L320.855 458.995L320.925 458.905L320.99 458.811L317.703 456.533ZM318.942 454.745L315.706 452.393L315.679 452.43L315.654 452.467L318.942 454.745ZM323.169 447.46L319.557 445.742L319.539 445.779L319.522 445.817L323.169 447.46ZM326.48 432.323L330.479 432.27L330.479 432.258L330.479 432.246L326.48 432.323ZM321.24 419.778L324.106 416.988L324.045 416.925L323.981 416.865L321.24 419.778ZM310.515 414.471L309.815 418.409L309.838 418.413L309.861 418.417L310.515 414.471ZM300.338 414.471L301.03 418.411L301.037 418.409L300.338 414.471ZM292.431 416.562L293.739 420.342L293.758 420.335L293.776 420.329L292.431 416.562ZM286.832 418.738L285.278 415.052L285.266 415.057L285.255 415.062L286.832 418.738ZM283.437 420.195L285.005 423.874L285.014 423.871L283.437 420.195ZM282.283 420.687L280.566 417.074L283.851 424.366L282.283 420.687ZM283.418 420.147L281.776 416.5L281.738 416.517L281.701 416.534L283.418 420.147ZM292.384 416.42L293.72 420.19L293.736 420.184L293.752 420.178L292.384 416.42ZM300.3 414.282L301.01 418.218L301.017 418.217L301.024 418.216L300.3 414.282ZM310.562 414.234L309.874 418.175L309.904 418.18L309.935 418.185L310.562 414.234ZM321.439 419.532L324.294 416.732L324.23 416.666L324.162 416.603L321.439 419.532ZM326.801 432.266L330.801 432.197L330.8 432.189L330.8 432.18L326.801 432.266ZM323.491 447.593L319.877 445.879L319.857 445.921L319.837 445.964L323.491 447.593ZM319.254 454.943L316.013 452.598L315.986 452.636L315.96 452.673L319.254 454.943ZM318.015 456.741L321.215 459.141L321.263 459.077L321.308 459.011L318.015 456.741ZM316.71 458.482L319.828 460.986L319.87 460.935L319.91 460.881L316.71 458.482ZM315.319 460.232L318.335 462.86L318.342 462.851L315.319 460.232ZM313.844 461.925L316.823 464.595L316.841 464.574L316.86 464.553L313.844 461.925ZM299.931 474.546L297.564 471.321L297.555 471.328L297.545 471.335L299.931 474.546ZM263.859 494.867L262.176 491.238L262.169 491.241L262.163 491.244L263.859 494.867ZM80.2421 532.596L79.6594 536.553L79.6771 536.556L79.6948 536.558L80.2421 532.596ZM60.0589 525.841L58.1255 529.343L58.1338 529.348L58.1422 529.352L60.0589 525.841ZM45.7017 511.944L42.2262 513.924L42.2452 513.957L42.2648 513.99L45.7017 511.944ZM43.6494 507.544L39.8834 508.893L39.8911 508.914L39.899 508.935L43.6494 507.544ZM42.382 502.947L38.454 503.702L38.4555 503.71L38.4571 503.718L42.382 502.947ZM41.9091 493.722L37.9286 493.328L37.9264 493.351L37.9244 493.373L41.9091 493.722ZM43.621 485.019L39.8013 483.831L39.7944 483.854L39.7877 483.876L43.621 485.019ZM46.6948 477.1L43.0932 475.36L43.0837 475.38L43.0744 475.399L46.6948 477.1ZM54.9232 463.666L58.1099 466.084L58.1208 466.069L58.1316 466.055L54.9232 463.666ZM80.8285 438.047L83.1816 441.282L83.1875 441.277L83.1935 441.273L80.8285 438.047ZM92.7928 430.374L94.738 433.869L94.7529 433.861L94.7677 433.853L92.7928 430.374ZM97.134 428.047C95.1017 424.602 95.1018 424.602 95.1019 424.602C95.102 424.602 95.1021 424.601 95.1022 424.601C95.1023 424.601 95.1025 424.601 95.1026 424.601C95.1029 424.601 95.1032 424.601 95.1035 424.601C95.104 424.6 95.1044 424.6 95.1047 424.6C95.1054 424.6 95.1056 424.599 95.1056 424.599C95.1054 424.6 95.1039 424.6 95.1008 424.602C95.0948 424.606 95.0831 424.613 95.0656 424.623C95.0306 424.643 94.9726 424.676 94.8917 424.722C94.7298 424.813 94.4762 424.954 94.1306 425.14L97.9243 432.184C98.3164 431.972 98.616 431.806 98.8231 431.689C98.9266 431.631 99.0069 431.585 99.0641 431.552C99.0927 431.535 99.1156 431.522 99.1326 431.512C99.1411 431.507 99.1482 431.503 99.1538 431.5C99.1566 431.498 99.1591 431.496 99.1612 431.495C99.1622 431.495 99.1632 431.494 99.164 431.494C99.1645 431.493 99.1649 431.493 99.1653 431.493C99.1654 431.493 99.1656 431.493 99.1658 431.493C99.1659 431.492 99.166 431.492 99.1661 431.492C99.1662 431.492 99.1663 431.492 97.134 428.047ZM94.1306 425.14C93.4783 425.492 92.2413 426.119 90.7235 427.042L94.881 433.877C96.1629 433.097 97.1012 432.627 97.9243 432.184L94.1306 425.14ZM90.8252 426.982C86.5676 429.403 82.4596 432.078 78.5236 434.993L83.2848 441.422C86.9626 438.698 90.8011 436.199 94.7794 433.937L90.8252 426.982ZM78.5376 434.983C72.2978 439.562 66.4936 444.707 61.1987 450.353L67.034 455.826C71.9923 450.539 77.4276 445.721 83.2708 441.432L78.5376 434.983ZM61.1959 450.356C57.8957 453.882 54.7986 457.593 51.9196 461.471L58.343 466.24C61.0412 462.605 63.9438 459.127 67.0368 455.822L61.1959 450.356ZM51.9367 461.448C48.6241 465.844 45.7529 470.557 43.365 475.516L50.5732 478.987C52.7329 474.501 55.3297 470.239 58.3259 466.263L51.9367 461.448ZM43.3447 475.559C42.076 478.276 40.9956 481.078 40.1111 483.943L47.7551 486.303C48.5315 483.788 49.4799 481.329 50.5935 478.944L43.3447 475.559ZM40.0984 483.985C39.1902 487.046 38.5774 490.186 38.2684 493.364L46.2308 494.138C46.4904 491.469 47.0051 488.831 47.7679 486.261L40.0984 483.985ZM38.2644 493.407C37.9696 496.824 38.1516 500.266 38.8053 503.633L46.6586 502.109C46.1464 499.47 46.0037 496.773 46.2348 494.095L38.2644 493.407ZM38.8067 503.641C39.1494 505.388 39.6235 507.107 40.2251 508.782L47.7546 506.079C47.2892 504.783 46.9223 503.453 46.6572 502.101L38.8067 503.641ZM40.2442 508.835C40.8779 510.526 41.6434 512.164 42.5336 513.736L49.4941 509.792C48.8103 508.585 48.2223 507.326 47.7355 506.027L40.2442 508.835ZM42.5776 513.811C46.3688 520.174 51.7839 525.414 58.2677 528.993L62.1338 521.989C56.8927 519.096 52.5151 514.86 49.4501 509.716L42.5776 513.811ZM58.2931 529.007C64.9496 532.619 72.1926 535.024 79.6872 536.11L80.8349 528.193C74.275 527.242 67.935 525.137 62.1084 521.975L58.2931 529.007ZM79.6066 536.098C83.3418 536.717 87.1224 537.136 90.9379 537.427L91.5455 529.45C87.9082 529.173 84.3683 528.778 80.9155 528.205L79.6066 536.098ZM90.9028 537.424C92.8963 537.593 94.9266 537.655 96.6743 537.737L97.0452 529.745C95.1232 529.656 93.3703 529.605 91.5806 529.452L90.9028 537.424ZM96.6865 537.737L102.361 537.983L102.708 529.991L97.033 529.745L96.6865 537.737ZM102.275 537.978C104.338 538.113 106.452 538.062 108.285 538.062V530.062C106.183 530.062 104.514 530.107 102.794 529.995L102.275 537.978ZM108.285 538.062H114.092V530.062H108.285V538.062ZM114.092 538.062C116.119 538.062 118.325 537.921 120.091 537.862L119.821 529.866C117.671 529.939 115.962 530.062 114.092 530.062V538.062ZM120.141 537.86L126.062 537.585L125.692 529.594L119.771 529.868L120.141 537.86ZM126.14 537.581C142.702 536.49 159.146 534.02 175.298 530.197L173.456 522.412C157.736 526.133 141.733 528.537 125.614 529.598L126.14 537.581ZM175.282 530.201C208.462 522.492 238.728 510.492 265.286 498.094L261.902 490.845C235.647 503.102 205.93 514.867 173.472 522.409L175.282 530.201ZM265.272 498.101C278.58 491.949 291.241 485.417 302 477.448L297.238 471.019C287.152 478.49 275.089 484.749 261.915 490.839L265.272 498.101ZM301.983 477.461C307.25 473.602 312.105 469.21 316.469 464.353L310.519 459.006C306.523 463.453 302.078 467.474 297.255 471.007L301.983 477.461ZM316.502 464.315L317.978 462.631L311.961 457.359L310.485 459.043L316.502 464.315ZM317.996 462.611C318.569 461.948 319.104 461.247 319.525 460.697L313.175 455.831C312.726 456.417 312.335 456.926 311.943 457.38L317.996 462.611ZM319.502 460.727L320.855 458.995L314.55 454.07L313.198 455.802L319.502 460.727ZM320.99 458.811L322.229 457.023L315.654 452.467L314.415 454.255L320.99 458.811ZM322.177 457.096C323.993 454.598 325.547 451.919 326.816 449.103L319.522 445.817C318.478 448.134 317.2 450.338 315.706 452.393L322.177 457.096ZM326.782 449.178C329.292 443.899 330.557 438.115 330.479 432.27L322.48 432.376C322.541 436.997 321.541 441.57 319.557 445.742L326.782 449.178ZM330.479 432.246C330.368 426.535 328.09 421.08 324.106 416.988L318.374 422.569C320.941 425.205 322.409 428.72 322.48 432.401L330.479 432.246ZM323.981 416.865C320.433 413.527 315.973 411.32 311.168 410.525L309.861 418.417C313.1 418.954 316.107 420.441 318.499 422.692L323.981 416.865ZM311.214 410.533C307.385 409.853 303.467 409.853 299.638 410.533L301.037 418.409C303.941 417.894 306.912 417.894 309.815 418.409L311.214 410.533ZM299.645 410.531C296.733 411.043 293.87 411.8 291.086 412.795L293.776 420.329C296.136 419.486 298.563 418.844 301.03 418.411L299.645 410.531ZM291.123 412.782C288.756 413.601 286.806 414.408 285.278 415.052L288.386 422.424C289.865 421.8 291.623 421.074 293.739 420.342L291.123 412.782ZM285.255 415.062L281.859 416.519L285.014 423.871L288.409 422.414L285.255 415.062ZM281.868 416.515L280.714 417.007L283.851 424.366L285.005 423.874L281.868 416.515ZM283.999 424.3L285.134 423.76L281.701 416.534L280.566 417.074L283.999 424.3ZM285.059 423.795C285.84 423.444 286.933 422.942 288.384 422.313L285.204 414.973C283.685 415.631 282.509 416.17 281.776 416.5L285.059 423.795ZM288.384 422.313C289.835 421.685 291.603 420.94 293.72 420.19L291.047 412.65C288.681 413.489 286.723 414.315 285.204 414.973L288.384 422.313ZM293.752 420.178C296.111 419.319 298.539 418.664 301.01 418.218L299.59 410.345C296.671 410.872 293.802 411.646 291.015 412.661L293.752 420.178ZM301.024 418.216C303.948 417.678 306.945 417.664 309.874 418.175L311.25 410.294C307.386 409.62 303.433 409.638 299.576 410.348L301.024 418.216ZM309.935 418.185C313.221 418.707 316.277 420.195 318.715 422.462L324.162 416.603C320.561 413.255 316.045 411.055 311.189 410.284L309.935 418.185ZM318.583 422.333C321.212 425.014 322.721 428.597 322.802 432.353L330.8 432.18C330.676 426.39 328.349 420.866 324.294 416.732L318.583 422.333ZM322.802 432.336C322.883 437.015 321.882 441.65 319.877 445.879L327.105 449.306C329.638 443.964 330.903 438.109 330.801 432.197L322.802 432.336ZM319.837 445.964C318.795 448.302 317.514 450.525 316.013 452.598L322.494 457.289C324.319 454.767 325.877 452.064 327.144 449.221L319.837 445.964ZM315.96 452.673L314.721 454.471L321.308 459.011L322.547 457.214L315.96 452.673ZM314.814 454.341L313.509 456.082L319.91 460.881L321.215 459.141L314.814 454.341ZM313.591 455.977C312.922 456.81 312.751 457.088 312.296 457.613L318.342 462.851C318.871 462.241 319.57 461.308 319.828 460.986L313.591 455.977ZM312.303 457.604L310.828 459.298L316.86 464.553L318.335 462.86L312.303 457.604ZM310.865 459.256C306.859 463.727 302.402 467.77 297.564 471.321L302.298 477.77C307.582 473.892 312.449 469.476 316.823 464.595L310.865 459.256ZM297.545 471.335C287.431 478.852 275.333 485.138 262.176 491.238L265.541 498.496C278.829 492.335 291.529 485.774 302.317 477.756L297.545 471.335ZM262.163 491.244C235.901 503.537 206.156 515.322 173.651 522.882L175.463 530.674C208.69 522.946 238.984 510.927 265.554 498.49L262.163 491.244ZM173.651 522.882C141.165 530.438 109.186 532.556 80.7895 528.634L79.6948 536.558C109.238 540.64 142.216 538.407 175.463 530.674L173.651 522.882ZM80.8248 528.639C74.2186 527.666 67.8369 525.53 61.9756 522.33L58.1422 529.352C64.8331 533.005 72.1181 535.443 79.6594 536.553L80.8248 528.639ZM61.9923 522.34C56.68 519.407 52.2437 515.112 49.1387 509.897L42.2648 513.99C46.096 520.425 51.5702 525.724 58.1255 529.343L61.9923 522.34ZM49.1773 509.963C48.4824 508.744 47.8879 507.47 47.3997 506.153L39.899 508.935C40.5382 510.659 41.3165 512.327 42.2262 513.924L49.1773 509.963ZM47.4153 506.196C46.946 504.885 46.5755 503.541 46.3069 502.175L38.4571 503.718C38.8028 505.476 39.2796 507.206 39.8834 508.893L47.4153 506.196ZM46.31 502.191C45.7958 499.517 45.6557 496.785 45.8938 494.072L37.9244 493.373C37.6215 496.824 37.7998 500.3 38.454 503.702L46.31 502.191ZM45.8897 494.117C46.1565 491.421 46.6804 488.757 47.4543 486.162L39.7877 483.876C38.8682 486.96 38.2456 490.126 37.9286 493.328L45.8897 494.117ZM47.4407 486.206C48.2276 483.675 49.1881 481.2 50.3152 478.801L43.0744 475.399C41.791 478.132 40.6973 480.949 39.8013 483.831L47.4407 486.206ZM50.2965 478.84C52.4712 474.339 55.0886 470.066 58.1099 466.084L51.7366 461.248C48.3943 465.654 45.4989 470.381 43.0932 475.36L50.2965 478.84ZM58.1316 466.055C65.1855 456.581 73.6309 448.229 83.1816 441.282L78.4755 434.812C68.2726 442.234 59.2504 451.157 51.7149 461.277L58.1316 466.055ZM83.1935 441.273C86.884 438.567 90.7397 436.095 94.738 433.869L90.8476 426.879C86.5585 429.266 82.4225 431.919 78.4636 434.821L83.1935 441.273ZM94.7677 433.853C96.1245 433.082 97.1675 432.524 97.8616 432.162C98.2086 431.981 98.4683 431.85 98.6364 431.766C98.7204 431.724 98.7815 431.694 98.8191 431.675C98.8379 431.666 98.8509 431.66 98.8579 431.656C98.8614 431.655 98.8634 431.654 98.8639 431.654C98.8642 431.653 98.8641 431.653 98.8636 431.654C98.8633 431.654 98.863 431.654 98.8626 431.654C98.8624 431.654 98.8621 431.654 98.8619 431.655C98.8617 431.655 98.8615 431.655 98.8615 431.655C98.8612 431.655 98.861 431.655 97.134 428.047C95.407 424.439 95.4068 424.439 95.4065 424.439C95.4065 424.439 95.4062 424.439 95.406 424.439C95.4057 424.44 95.4053 424.44 95.4049 424.44C95.4041 424.44 95.4032 424.441 95.4022 424.441C95.4002 424.442 95.3978 424.443 95.3951 424.445C95.3896 424.447 95.3826 424.451 95.3741 424.455C95.3572 424.463 95.3343 424.474 95.3055 424.488C95.2478 424.516 95.1666 424.556 95.0624 424.608C94.8539 424.713 94.5533 424.865 94.1649 425.067C93.3883 425.472 92.2607 426.077 90.818 426.896L94.7677 433.853Z" fill="#0051BA" mask="url(#path-51-inside-3_408_2616)"/>
<path d="M457.417 453.636L386.447 453.47C383.505 453.47 381.124 451.393 381.13 448.846C381.13 446.305 383.528 444.267 386.47 444.267L457.44 444.433C460.382 444.433 462.757 446.505 462.751 449.052C462.746 451.582 460.359 453.642 457.417 453.636Z" fill="url(#paint10_linear_408_2616)"/>
<path d="M457.417 442.441L386.447 442.281C383.505 442.281 381.124 440.204 381.13 437.657C381.13 435.11 383.528 433.078 386.47 433.078L457.44 433.238C460.382 433.238 462.757 435.316 462.751 437.863C462.746 440.392 460.359 442.447 457.417 442.441Z" fill="url(#paint11_linear_408_2616)"/>
<path d="M454.567 455.308L389.595 455.159C388.363 455.244 387.208 455.793 386.365 456.696C385.522 457.599 385.053 458.789 385.053 460.024C385.053 461.26 385.522 462.449 386.365 463.352C387.208 464.255 388.363 464.804 389.595 464.889H396.726L406.147 482.958C406.678 483.967 407.474 484.814 408.448 485.407C409.423 486 410.541 486.316 411.682 486.323L434.902 486.375C436.055 486.378 437.187 486.063 438.173 485.464C439.158 484.865 439.959 484.006 440.488 482.981L449.725 465.049H454.573C455.805 464.965 456.96 464.415 457.803 463.512C458.646 462.609 459.115 461.42 459.115 460.184C459.115 458.949 458.646 457.759 457.803 456.856C456.96 455.953 455.805 455.404 454.573 455.319L454.567 455.308Z" fill="url(#paint12_linear_408_2616)"/>
<path d="M476.883 379.713C476.883 379.713 476.705 379.988 476.356 380.497L474.811 382.786L473.683 384.481C473.271 385.104 472.865 385.82 472.395 386.575L470.907 389.036C470.364 389.906 469.894 390.896 469.333 391.898C469.059 392.413 468.761 392.94 468.486 393.478C468.343 393.752 468.2 394.05 468.051 394.302C467.903 394.554 467.782 394.874 467.645 395.166C467.073 396.339 466.5 397.564 465.928 398.852L464.245 402.967C463.713 404.415 463.186 405.938 462.643 407.511C461.541 410.906 460.64 414.364 459.947 417.865C459.165 421.814 458.781 425.831 458.802 429.856V429.953H458.711L382.962 429.993H382.841V429.873C382.046 421.007 379.734 412.344 376.008 404.261C374.056 399.973 371.805 395.829 369.271 391.858C367.989 389.838 366.627 387.852 365.179 385.9C363.731 383.948 362.151 382.088 360.6 380.177L360.411 379.948H360.715L360.606 380.177C353.511 371.053 348.669 360.383 346.475 349.036C346.166 347.582 345.977 346.105 345.748 344.629C345.657 343.884 345.588 343.14 345.508 342.396L345.393 341.252L345.319 340.107C345.279 339.357 345.21 338.608 345.187 337.852C345.164 337.097 345.187 336.341 345.141 335.563C345.096 334.784 345.141 334.052 345.141 333.273C345.141 332.495 345.141 331.751 345.21 330.984C345.557 324.843 346.652 318.767 348.472 312.892C353.757 296.323 364.72 282.151 379.43 272.874C382.935 270.666 386.616 268.752 390.436 267.151C394.188 265.591 398.065 264.352 402.026 263.448C409.703 261.679 417.613 261.148 425.458 261.874C429.232 262.231 432.973 262.868 436.653 263.78C440.227 264.7 443.733 265.871 447.144 267.283C450.436 268.7 453.631 270.333 456.708 272.17C459.665 273.989 462.5 275.998 465.195 278.186C470.29 282.373 474.804 287.222 478.617 292.603C482.141 297.563 485.025 302.947 487.202 308.628C487.774 309.968 488.169 311.341 488.638 312.681C489.108 314.02 489.417 315.382 489.783 316.687C490.086 318.038 490.418 319.36 490.682 320.693C490.796 321.357 490.916 322.01 491.031 322.662C491.145 323.315 491.271 323.961 491.34 324.614C492.046 329.481 492.266 334.406 491.998 339.317C491.531 347.205 489.792 354.965 486.847 362.297C485.769 364.96 484.542 367.56 483.173 370.086C481.959 372.273 480.849 374.093 479.899 375.489L478.634 377.349L477.661 378.648L476.865 379.713L477.632 378.648L478.594 377.326L479.853 375.455C480.792 374.035 481.891 372.232 483.092 370.046C484.451 367.517 485.668 364.915 486.738 362.251C491.463 350.306 492.988 337.335 491.162 324.62C491.094 323.967 490.968 323.326 490.853 322.674C490.739 322.021 490.619 321.369 490.499 320.71C490.241 319.394 489.926 318.078 489.6 316.704C489.274 315.33 488.867 314.031 488.455 312.698C488.043 311.364 487.585 309.991 487.019 308.657C484.842 302.997 481.957 297.635 478.434 292.7C474.625 287.348 470.121 282.527 465.041 278.363C462.35 276.189 459.522 274.19 456.576 272.376C453.509 270.546 450.324 268.923 447.041 267.517C443.643 266.112 440.151 264.947 436.59 264.032C432.922 263.121 429.192 262.488 425.429 262.137C417.615 261.416 409.735 261.949 402.089 263.717C398.143 264.617 394.281 265.852 390.545 267.408C386.74 269.01 383.074 270.924 379.585 273.132C364.915 282.404 353.996 296.564 348.759 313.11C346.945 318.963 345.853 325.015 345.508 331.133C345.468 331.888 345.462 332.644 345.439 333.422C345.416 334.201 345.376 334.927 345.41 335.683C345.445 336.438 345.439 337.188 345.456 337.938C345.473 338.688 345.542 339.437 345.588 340.181L345.657 341.326L345.771 342.471C345.851 343.209 345.926 343.953 346.017 344.691C346.24 346.162 346.429 347.633 346.733 349.081C348.916 360.384 353.736 371.013 360.801 380.102L360.984 380.337H360.686L360.801 380.102C362.363 381.997 363.971 383.851 365.379 385.826C366.787 387.8 368.195 389.78 369.477 391.806C372.021 395.786 374.276 399.942 376.225 404.243C379.969 412.355 382.292 421.049 383.093 429.947L382.967 429.827L458.716 429.867L458.625 429.964C458.615 425.929 459.01 421.902 459.804 417.945C460.494 414.435 461.388 410.969 462.482 407.563C463.055 405.989 463.564 404.467 464.102 403.019C464.64 401.571 465.247 400.214 465.819 398.898C466.392 397.581 467.004 396.385 467.536 395.218L467.943 394.353L468.383 393.529C468.675 392.991 468.956 392.465 469.236 391.95C469.808 390.937 470.278 389.946 470.821 389.088L472.321 386.633C472.79 385.877 473.202 385.162 473.62 384.543C474.038 383.925 474.427 383.364 474.765 382.867L476.333 380.577L476.905 379.805L476.883 379.713Z" fill="#EF4135"/>
<path d="M360.801 380.102C353.736 371.013 348.916 360.384 346.733 349.081C346.429 347.633 346.24 346.162 346.017 344.691C345.926 343.953 345.851 343.209 345.771 342.471L345.657 341.326L345.588 340.181C345.542 339.437 345.473 338.688 345.456 337.938C345.439 337.188 345.445 336.438 345.41 335.683C345.376 334.927 345.416 334.201 345.439 333.422C345.462 332.644 345.468 331.888 345.508 331.133C345.853 325.015 346.945 318.963 348.759 313.11C353.996 296.564 364.915 282.404 379.585 273.132C383.074 270.924 386.74 269.01 390.545 267.408C394.281 265.852 398.143 264.617 402.089 263.717C409.735 261.949 417.615 261.416 425.429 262.137C429.192 262.488 432.922 263.121 436.59 264.032C440.151 264.947 443.643 266.112 447.041 267.517C450.324 268.923 453.509 270.546 456.576 272.376C459.522 274.19 462.35 276.189 465.041 278.363C470.121 282.527 474.625 287.348 478.434 292.7C481.957 297.635 484.842 302.997 487.019 308.657C487.585 309.991 488.043 311.364 488.455 312.698C488.867 314.031 489.274 315.33 489.6 316.704C489.926 318.078 490.241 319.394 490.499 320.71C490.619 321.369 490.739 322.021 490.853 322.674C490.968 323.326 491.094 323.967 491.162 324.62C492.988 337.335 491.463 350.306 486.738 362.251C485.668 364.915 484.451 367.517 483.092 370.046C481.891 372.232 480.792 374.035 479.853 375.455L478.594 377.326L477.632 378.648L476.865 379.713L477.661 378.648L478.634 377.349L479.899 375.489C480.849 374.093 481.959 372.273 483.173 370.086C484.542 367.56 485.769 364.96 486.847 362.297C489.792 354.965 491.531 347.205 491.998 339.317C492.266 334.406 492.046 329.481 491.34 324.614C491.271 323.961 491.145 323.315 491.031 322.662C490.916 322.01 490.796 321.357 490.682 320.693C490.418 319.36 490.086 318.038 489.783 316.687C489.417 315.382 489.108 314.02 488.638 312.681C488.169 311.341 487.774 309.968 487.202 308.628C485.025 302.947 482.141 297.563 478.617 292.603C474.804 287.222 470.29 282.373 465.195 278.186C462.5 275.998 459.665 273.989 456.708 272.17C453.631 270.333 450.436 268.7 447.144 267.283C443.733 265.871 440.227 264.7 436.653 263.78C432.973 262.868 429.232 262.231 425.458 261.874C417.613 261.148 409.703 261.679 402.026 263.448C398.065 264.352 394.188 265.591 390.436 267.151C386.616 268.752 382.935 270.666 379.43 272.874C364.72 282.151 353.757 296.323 348.472 312.892C346.652 318.767 345.557 324.843 345.21 330.984C345.141 331.751 345.141 332.495 345.141 333.273C345.141 334.052 345.096 334.784 345.141 335.563C345.187 336.341 345.164 337.097 345.187 337.852C345.21 338.608 345.279 339.357 345.319 340.107L345.393 341.252L345.508 342.396C345.588 343.14 345.657 343.884 345.748 344.629C345.977 346.105 346.166 347.582 346.475 349.036C348.669 360.383 353.511 371.053 360.606 380.177L360.715 379.948H360.411L360.6 380.177C362.151 382.088 363.731 383.948 365.179 385.9C366.627 387.852 367.989 389.838 369.271 391.858C371.805 395.829 374.056 399.973 376.008 404.261C379.734 412.344 382.046 421.007 382.841 429.873V429.993H382.962L458.711 429.953H458.802V429.856C458.781 425.831 459.165 421.814 459.947 417.865C460.64 414.364 461.541 410.906 462.643 407.511C463.186 405.938 463.713 404.415 464.245 402.967L465.928 398.852C466.5 397.564 467.073 396.339 467.645 395.166C467.782 394.874 467.903 394.554 468.051 394.302C468.2 394.05 468.343 393.752 468.486 393.478C468.761 392.94 469.059 392.413 469.333 391.898C469.894 390.896 470.364 389.906 470.907 389.036L472.395 386.575C472.865 385.82 473.271 385.104 473.683 384.481L474.811 382.786L476.356 380.497C476.705 379.988 476.883 379.713 476.883 379.713L476.905 379.805L476.333 380.577L474.765 382.867C474.427 383.364 474.038 383.925 473.62 384.543C473.202 385.162 472.79 385.877 472.321 386.633L470.821 389.088C470.278 389.946 469.808 390.937 469.236 391.95C468.956 392.465 468.675 392.991 468.383 393.529L467.943 394.353L467.536 395.218C467.004 396.385 466.392 397.581 465.819 398.898C465.247 400.214 464.64 401.571 464.102 403.019C463.564 404.467 463.055 405.989 462.482 407.563C461.388 410.969 460.494 414.435 459.804 417.945C459.01 421.902 458.615 425.929 458.625 429.964L458.717 429.867L382.967 429.827L383.093 429.947C382.292 421.049 379.969 412.355 376.225 404.243C374.276 399.942 372.021 395.786 369.477 391.806C368.195 389.78 366.787 387.8 365.379 385.826C363.971 383.851 362.363 381.997 360.801 380.102ZM360.801 380.102L360.984 380.337H360.686L360.801 380.102Z" stroke="#EF4135" stroke-width="0.57234"/>
<path d="M355.627 359.641C355.598 359.591 355.576 359.537 355.564 359.481C355.518 359.355 355.466 359.195 355.398 358.994C355.249 358.548 355.049 357.924 354.791 357.129L354.356 355.778C354.213 355.28 354.087 354.73 353.938 354.147C353.652 352.968 353.269 351.64 353.023 350.14C352.885 349.39 352.742 348.606 352.588 347.788C352.433 346.969 352.364 346.105 352.244 345.212C351.975 343.438 351.889 341.527 351.758 339.489C351.587 335.116 351.778 330.736 352.33 326.394C352.949 322.061 353.924 317.787 355.243 313.614C355.907 311.708 356.502 309.888 357.235 308.245C357.59 307.421 357.893 306.608 358.254 305.858L359.301 303.706C359.936 302.321 360.663 301.142 361.247 300.083C361.55 299.563 361.819 299.065 362.088 298.624L362.867 297.434L363.948 295.797L364.235 295.379C364.303 295.282 364.338 295.236 364.343 295.241C364.349 295.247 364.343 295.293 364.263 295.396L364 295.831L362.964 297.496L362.209 298.693C361.945 299.139 361.688 299.643 361.396 300.169C360.824 301.234 360.108 302.413 359.49 303.804L358.46 305.956C358.111 306.705 357.813 307.518 357.464 308.342C356.743 309.979 356.159 311.776 355.506 313.699C354.213 317.861 353.256 322.119 352.645 326.434C352.092 330.758 351.887 335.12 352.032 339.478C352.158 341.481 352.233 343.392 352.49 345.161C352.605 346.048 352.673 346.912 352.816 347.731C352.96 348.549 353.097 349.328 353.234 350.077C353.457 351.583 353.807 352.939 354.099 354.084C354.242 354.656 354.362 355.228 354.493 355.721C354.625 356.213 354.78 356.665 354.9 357.077C355.134 357.878 355.323 358.508 355.472 358.954L355.609 359.446C355.625 359.51 355.631 359.576 355.627 359.641Z" fill="#EF4135"/>
<path d="M377.49 282.604C376.244 283.874 374.929 285.073 373.552 286.199C372.239 287.401 370.857 288.527 369.414 289.57C370.661 288.3 371.978 287.1 373.357 285.975C374.67 284.774 376.05 283.649 377.49 282.604Z" fill="#EF4135"/>
<path d="M477.688 367.946C477.688 367.946 477.688 367.9 477.74 367.814L477.912 367.442L478.593 366.034L479.091 365.021C479.268 364.649 479.44 364.231 479.663 363.791C480.041 362.904 480.516 361.913 480.934 360.774L481.62 358.994C481.855 358.376 482.055 357.718 482.284 357.043C482.765 355.698 483.16 354.227 483.601 352.682C484.482 349.317 485.144 345.899 485.581 342.448C485.977 338.991 486.151 335.511 486.102 332.032C486.039 330.429 486.01 328.901 485.861 327.453C485.799 326.743 485.758 326.056 485.678 325.398C485.598 324.74 485.512 324.11 485.438 323.509C485.306 322.302 485.083 321.22 484.929 320.276C484.843 319.801 484.774 319.354 484.694 318.948C484.614 318.541 484.522 318.181 484.448 317.849L484.122 316.315C484.093 316.155 484.064 316.023 484.047 315.914C484.039 315.869 484.039 315.823 484.047 315.777C484.066 315.819 484.082 315.864 484.093 315.909C484.122 316.017 484.156 316.143 484.196 316.304C484.293 316.676 484.419 317.179 484.579 317.82L484.848 318.919C484.94 319.326 485.014 319.766 485.106 320.241C485.278 321.191 485.518 322.273 485.678 323.481L485.942 325.37C486.027 326.033 486.073 326.72 486.142 327.436C486.302 328.855 486.342 330.389 486.411 332.014C486.587 339.01 485.743 345.993 483.904 352.745C483.452 354.29 483.046 355.766 482.553 357.111C482.313 357.787 482.113 358.445 481.867 359.063L481.163 360.837C480.733 361.982 480.247 362.966 479.852 363.848C479.646 364.289 479.468 364.701 479.28 365.073L478.753 366.074L478.02 367.459L477.826 367.814C477.789 367.867 477.742 367.911 477.688 367.946Z" fill="#F28078"/>
<path d="M329.874 602.975L314.58 678.089L254.694 698.887C253.725 699.283 252.938 700.025 252.484 700.968C252.03 701.911 251.942 702.989 252.237 703.993L317.848 682.518L320.08 681.649L397.802 655.345L404.378 619.791L413.127 577.972C413.321 577.422 413.362 576.828 413.245 576.256C413.127 575.683 412.856 575.154 412.461 574.724C412.065 574.294 411.56 573.98 410.999 573.815C410.439 573.651 409.844 573.642 409.278 573.79L331.843 600.543C331.33 600.739 330.878 601.067 330.532 601.494C330.186 601.921 329.959 602.432 329.874 602.975Z" fill="url(#paint13_linear_408_2616)"/>
<path d="M409.279 573.791C409.308 573.917 409.316 574.047 409.304 574.176C409.243 574.486 409.187 574.86 409.121 575.332C408.932 576.391 408.673 577.875 408.359 579.748C407.645 583.645 406.635 589.206 405.387 596.054C402.792 609.984 399.193 629.296 395.11 651.104L395.126 651.345L394.885 651.361L383.612 655.201L322.916 675.68L304.491 681.788L299.472 683.419L298.16 683.81L297.7 683.92C297.834 683.842 297.976 683.779 298.123 683.732L299.414 683.261L304.391 681.489L322.718 675.113L383.335 654.397L394.625 650.572L394.339 650.896C398.519 629.097 402.216 609.795 404.893 595.893C406.236 589.006 407.312 583.474 408.106 579.571C408.485 577.709 408.797 576.303 409.014 575.178C409.113 574.72 409.186 574.345 409.263 574.05C409.341 573.754 409.279 573.791 409.279 573.791Z" fill="white"/>
<path d="M334.137 605.099L320.232 673.549L390.622 649.235L402.359 581.892L334.137 605.099Z" fill="white"/>
<path d="M279.504 588.732C279.698 588.864 279.848 589.051 279.936 589.269C280.023 589.487 280.045 589.726 279.997 589.956C279.95 590.186 279.835 590.397 279.668 590.562C279.501 590.727 279.289 590.839 279.059 590.884C278.828 590.929 278.59 590.905 278.373 590.814C278.156 590.724 277.971 590.572 277.84 590.376C277.71 590.181 277.64 589.952 277.64 589.717C277.639 589.482 277.708 589.252 277.838 589.057C277.924 588.924 278.037 588.81 278.168 588.722C278.299 588.633 278.447 588.572 278.602 588.542C278.758 588.512 278.917 588.513 279.072 588.545C279.227 588.578 279.374 588.641 279.504 588.732Z" fill="#0051BA"/>
<path d="M338.172 539.509C338.219 539.74 338.196 539.98 338.106 540.198C338.016 540.416 337.864 540.603 337.668 540.734C337.473 540.865 337.242 540.936 337.006 540.936C336.771 540.936 336.54 540.867 336.344 540.736C336.148 540.605 335.995 540.419 335.904 540.201C335.814 539.983 335.79 539.744 335.836 539.513C335.882 539.281 335.996 539.069 336.162 538.902C336.329 538.736 336.542 538.622 336.773 538.576C337.082 538.515 337.403 538.579 337.665 538.754C337.928 538.928 338.11 539.2 338.172 539.509Z" fill="#0051BA"/>
<path d="M313.789 572.068C315.255 569.227 314.139 565.735 311.297 564.269C308.455 562.804 304.964 563.919 303.498 566.761C302.033 569.603 303.148 573.095 305.99 574.56C308.832 576.026 312.324 574.91 313.789 572.068Z" fill="#0051BA"/>
<path d="M59.148 620.252L60.056 621.769C61.0738 623.487 62.5664 624.876 64.3543 625.767L65.9454 626.55L64.4293 627.433C62.7236 628.454 61.3495 629.947 60.4725 631.731L59.6811 633.314L58.7732 631.798C57.747 630.096 56.2556 628.723 54.4748 627.841L52.8838 627.058L54.4082 626.142C56.1076 625.116 57.48 623.628 58.365 621.852L59.148 620.252Z" fill="#0051BA"/>
<path d="M352.975 322.227L353.883 323.743C354.909 325.445 356.401 326.818 358.181 327.7L359.764 328.483L358.248 329.391C356.546 330.417 355.173 331.909 354.291 333.689L353.508 335.28L352.6 333.764C351.579 332.059 350.086 330.684 348.302 329.807L346.711 329.024L348.227 328.108C349.933 327.087 351.307 325.594 352.184 323.81L352.975 322.227Z" fill="#0051BA"/>
<path d="M363.413 345.76L364.205 347.076C365.095 348.554 366.39 349.748 367.936 350.516L369.319 351.199L368.003 352.032C366.522 352.924 365.328 354.222 364.563 355.772L363.88 357.147L363.097 355.789C362.205 354.308 360.907 353.114 359.356 352.349L357.974 351.707L359.29 350.874C360.769 349.983 361.962 348.689 362.73 347.142L363.413 345.76Z" fill="#0051BA"/>
<path d="M41.5543 603.118L42.1957 604.192C42.9209 605.397 43.976 606.368 45.2361 606.991L46.3607 607.549L45.2861 608.191C44.0818 608.916 43.1105 609.971 42.4872 611.231L41.9291 612.356L41.2877 611.281C40.5536 610.075 39.49 609.104 38.2222 608.482L37.0977 607.924L38.1722 607.283C39.3766 606.558 40.3479 605.502 40.9711 604.242L41.5543 603.118Z" fill="#0051BA"/>
<path d="M353.691 503.832L354.341 504.906C355.064 506.112 356.119 507.084 357.381 507.705L358.506 508.263L357.431 508.905C356.225 509.627 355.253 510.683 354.632 511.945L354.074 513.07L353.424 511.995C352.7 510.793 351.648 509.822 350.392 509.196L349.268 508.646L350.342 507.997C351.545 507.269 352.516 506.215 353.141 504.956L353.691 503.832Z" fill="#0051BA"/>
<path d="M30.7254 385.161L31.3752 386.227C32.0955 387.435 33.152 388.408 34.4157 389.026L35.5319 389.584L34.4656 390.234C33.2574 390.954 32.2848 392.01 31.6667 393.274L31.1086 394.39L30.4839 393.357C29.7587 392.153 28.7035 391.182 27.4434 390.559L26.3271 390.009L27.3934 389.359C28.602 388.637 29.5767 387.581 30.2006 386.319L30.7254 385.161Z" fill="#0051BA"/>
<path d="M22.9775 115.024L23.694 116.218C24.4969 117.555 25.668 118.633 27.0674 119.323L28.3212 119.94L27.1271 120.666C25.787 121.469 24.7059 122.64 24.0124 124.04L23.3954 125.283L22.679 124.099C21.8727 122.758 20.6984 121.677 19.2956 120.985L18.0518 120.368L19.2459 119.651C20.5837 118.844 21.6614 117.67 22.3506 116.268L22.9775 115.024Z" fill="#EF4135"/>
<path d="M281.274 246.069L281.991 247.263C282.796 248.601 283.966 249.681 285.364 250.377L286.618 250.994L285.424 251.711C284.083 252.517 283.002 253.691 282.309 255.094L281.692 256.338L280.976 255.144C280.168 253.808 278.998 252.729 277.602 252.029L276.349 251.412L277.543 250.696C278.883 249.893 279.964 248.722 280.657 247.322L281.274 246.069Z" fill="#EF4135"/>
<path d="M140.976 0L141.692 1.19412C142.495 2.53418 143.666 3.61531 145.065 4.30879L146.319 4.92575L145.125 5.64222C143.796 6.43145 142.716 7.58009 142.01 8.95591L141.393 10.2097L140.677 9.01562C139.871 7.67486 138.696 6.5938 137.294 5.90095L136.05 5.28399L137.244 4.56752C138.579 3.762 139.656 2.59155 140.349 1.19412L140.976 0Z" fill="#EF4135"/>
<path d="M308.929 112.447L309.646 113.641C310.452 114.981 311.627 116.062 313.029 116.755L314.273 117.372L313.079 118.089C311.744 118.894 310.667 120.065 309.974 121.462L309.357 122.716L308.641 121.522C307.835 120.181 306.66 119.1 305.258 118.407L304.014 117.79L305.198 117.074C306.536 116.268 307.616 115.098 308.312 113.7L308.929 112.447Z" fill="#EF4135"/>
<path d="M301.128 78.613L301.646 79.4788C302.232 80.4577 303.089 81.2458 304.114 81.7476L305.029 82.2054L304.154 82.7228C303.177 83.3119 302.39 84.1683 301.885 85.1907L301.437 86.1062L300.91 85.2305C300.32 84.254 299.464 83.4667 298.442 82.9616L297.536 82.5138L298.402 81.9864C299.381 81.4004 300.169 80.5432 300.671 79.5186L301.128 78.613Z" fill="#EF4135"/>
<path d="M3.59232 137.483L4.10977 138.349C4.69736 139.329 5.55388 140.12 6.57762 140.628L7.49311 141.075L6.61742 141.593C5.64517 142.187 4.85911 143.042 4.34859 144.061L3.9008 144.976L3.37339 144.101C2.78433 143.124 1.92794 142.337 0.905539 141.832L0 141.384L0.865734 140.857C1.84468 140.271 2.63277 139.413 3.13456 138.389L3.59232 137.483Z" fill="#EF4135"/>
<path d="M326.284 84.0063L326.582 84.5039C326.92 85.0612 327.41 85.5101 327.995 85.7975L328.523 86.0563L328.025 86.3548C327.455 86.6864 326.995 87.1776 326.702 87.7678L326.443 88.2952L326.144 87.7977C325.81 87.2353 325.319 86.7824 324.731 86.4941L324.214 86.2354L324.711 85.9368C325.269 85.599 325.718 85.1087 326.005 84.5238L326.284 84.0063Z" fill="#EF4135"/>
<defs>
<linearGradient id="paint0_linear_408_2616" x1="161" y1="-17" x2="161" y2="420" gradientUnits="userSpaceOnUse">
<stop stop-color="#86AAD9"/>
<stop offset="1" stop-color="#88ABD9" stop-opacity="0"/>
</linearGradient>
<linearGradient id="paint1_linear_408_2616" x1="114.027" y1="28.0444" x2="114.027" y2="100.634" gradientUnits="userSpaceOnUse">
<stop stop-color="#EF4135"/>
<stop offset="1" stop-color="#EF4135" stop-opacity="0"/>
</linearGradient>
<linearGradient id="paint2_linear_408_2616" x1="418.094" y1="276.44" x2="418.094" y2="633.58" gradientUnits="userSpaceOnUse">
<stop stop-color="#9EBADF"/>
<stop offset="1" stop-color="#9FBBE0" stop-opacity="0"/>
</linearGradient>
<linearGradient id="paint3_linear_408_2616" x1="497" y1="587" x2="519" y2="693" gradientUnits="userSpaceOnUse">
<stop stop-color="#EF4135"/>
<stop offset="1" stop-color="#FF725E" stop-opacity="0"/>
</linearGradient>
<linearGradient id="paint4_linear_408_2616" x1="349" y1="49" x2="148" y2="218" gradientUnits="userSpaceOnUse">
<stop stop-color="#F04236"/>
<stop offset="1" stop-color="#0051BA" stop-opacity="0.16"/>
</linearGradient>
<linearGradient id="paint5_linear_408_2616" x1="95.9995" y1="247" x2="-19.0005" y2="461" gradientUnits="userSpaceOnUse">
<stop stop-color="#EF4135"/>
<stop offset="1" stop-color="#EF4135" stop-opacity="0"/>
</linearGradient>
<linearGradient id="paint6_linear_408_2616" x1="105.122" y1="416.191" x2="102.163" y2="454.152" gradientUnits="userSpaceOnUse">
<stop stop-color="#F28078"/>
<stop offset="1" stop-color="#F28078" stop-opacity="0"/>
</linearGradient>
<linearGradient id="paint7_linear_408_2616" x1="76.7919" y1="386.564" x2="60.3832" y2="405.216" gradientUnits="userSpaceOnUse">
<stop stop-color="#F28078"/>
<stop offset="1" stop-color="#F28078" stop-opacity="0"/>
</linearGradient>
<linearGradient id="paint8_linear_408_2616" x1="84.2973" y1="403.63" x2="84.2973" y2="428.241" gradientUnits="userSpaceOnUse">
<stop stop-color="#F28078"/>
<stop offset="1" stop-color="#F28078" stop-opacity="0"/>
</linearGradient>
<linearGradient id="paint9_linear_408_2616" x1="138.032" y1="362.863" x2="127.918" y2="399.207" gradientUnits="userSpaceOnUse">
<stop stop-color="#F28078"/>
<stop offset="1" stop-color="#F28078" stop-opacity="0"/>
</linearGradient>
<linearGradient id="paint10_linear_408_2616" x1="421.941" y1="444.267" x2="421.941" y2="453.636" gradientUnits="userSpaceOnUse">
<stop stop-color="#0051BA"/>
<stop offset="1" stop-color="#0051BA" stop-opacity="0"/>
</linearGradient>
<linearGradient id="paint11_linear_408_2616" x1="421.941" y1="433.078" x2="421.941" y2="442.441" gradientUnits="userSpaceOnUse">
<stop stop-color="#0051BA"/>
<stop offset="1" stop-color="#0051BA" stop-opacity="0"/>
</linearGradient>
<linearGradient id="paint12_linear_408_2616" x1="422.084" y1="455.159" x2="422.084" y2="486.375" gradientUnits="userSpaceOnUse">
<stop stop-color="#0051BA"/>
<stop offset="1" stop-color="#0051BA" stop-opacity="0"/>
</linearGradient>
<linearGradient id="paint13_linear_408_2616" x1="328.743" y1="578.947" x2="264.901" y2="719.584" gradientUnits="userSpaceOnUse">
<stop stop-color="#EF4135"/>
<stop offset="1" stop-color="#EF4135" stop-opacity="0"/>
</linearGradient>
<clipPath id="clip0_408_2616">
<rect width="143.492" height="131.756" fill="white" transform="translate(397.363 501.004) rotate(0.235626)"/>
</clipPath>
</defs>
</svg>
