<svg width="501" height="704" viewBox="0 0 501 704" fill="none" xmlns="http://www.w3.org/2000/svg">
<rect x="38.9192" y="62.9573" width="244.389" height="357.14" rx="9.15743" fill="url(#paint0_linear_313_1060)"/>
<path d="M86.6347 41.7634C85.8751 42.1442 85.2378 42.7309 84.7956 43.4565C84.3533 44.1821 84.1239 45.0174 84.1336 45.8671L84.3511 79.9041C84.3509 80.6865 84.5532 81.4556 84.9384 82.1366C85.3235 82.8176 85.8783 83.3873 86.5489 83.7903L114.811 100.634L141.865 83.092C142.504 82.6745 143.027 82.1026 143.386 81.4294C143.745 80.7561 143.929 80.0032 143.92 79.2402L143.697 43.7036C143.696 42.8257 143.44 41.9669 142.96 41.2314C142.481 40.4959 141.798 39.9153 140.996 39.5599L114.359 28.0444L86.6347 41.7634Z" fill="url(#paint1_linear_313_1060)"/>
<g opacity="0.2">
<path d="M114.359 28.0444L114.817 100.634L141.837 83.1264C142.48 82.7151 143.01 82.148 143.376 81.4777C143.742 80.8074 143.933 80.0555 143.932 79.2917L143.72 43.6121C143.718 42.7525 143.466 41.9121 142.994 41.1935C142.523 40.4749 141.852 39.9092 141.064 39.5656L114.359 28.0444Z" fill="black"/>
</g>
<path d="M122.269 68.8063L105.785 68.9093L102.426 76.8763H97.8468L111.697 45.0142H116.082L130.39 76.6989L125.737 76.7332L122.269 68.8063ZM120.695 65.2006L113.907 49.6558L107.296 65.2693L120.695 65.2006Z" fill="#162141"/>
<path d="M294.236 302.646C294.018 302.773 292.079 299.548 288.166 294.017C286.215 291.252 283.748 287.924 280.684 284.229C277.236 280.05 273.48 276.133 269.45 272.513C267.126 270.417 264.648 268.499 262.037 266.775C259.304 264.909 256.262 263.541 253.052 262.736C251.463 262.352 249.808 262.328 248.209 262.667C246.648 263.049 245.258 263.942 244.262 265.203C243.198 266.582 242.457 268.182 242.093 269.885C241.656 271.716 241.425 273.591 241.404 275.473C241.406 279.483 241.845 283.481 242.712 287.396C243.593 291.529 244.743 295.6 246.155 299.583C252.268 316.425 261.299 332.06 272.835 345.77C275.575 348.989 278.519 352.028 281.648 354.87C284.605 357.582 287.849 359.963 291.321 361.973C292.967 362.891 294.706 363.629 296.508 364.176C298.168 364.704 299.922 364.86 301.649 364.635C303.242 364.401 304.709 363.637 305.815 362.467C306.91 361.259 307.718 359.819 308.178 358.255C309.086 355.073 309.42 351.755 309.165 348.455C308.996 345.334 308.586 342.23 307.938 339.172C306.802 333.869 305.268 328.66 303.347 323.589C301.684 319.09 300.031 315.292 298.62 312.217C295.785 306.055 293.961 302.773 294.179 302.646C294.808 303.316 295.348 304.065 295.785 304.873C296.726 306.399 298.08 308.682 299.664 311.7C301.247 314.718 303.106 318.482 304.908 322.981C307.007 328.089 308.692 333.358 309.946 338.736C310.683 341.887 311.174 345.091 311.414 348.318C311.744 351.906 311.429 355.524 310.485 359.001C309.932 360.934 308.951 362.719 307.616 364.222C306.143 365.82 304.174 366.875 302.028 367.217C299.921 367.537 297.769 367.384 295.728 366.77C293.733 366.188 291.809 365.388 289.99 364.383C286.307 362.313 282.866 359.838 279.731 357.005C276.469 354.101 273.402 350.984 270.551 347.675C258.722 333.761 249.508 317.822 243.355 300.627C241.927 296.501 240.777 292.284 239.913 288.004C239.02 283.857 238.593 279.623 238.639 275.381C238.683 273.295 238.96 271.221 239.465 269.196C239.947 267.103 240.888 265.144 242.219 263.459C243.597 261.778 245.494 260.604 247.612 260.119C249.586 259.711 251.625 259.754 253.579 260.246C257.059 261.167 260.347 262.702 263.287 264.778C265.961 266.605 268.493 268.63 270.861 270.837C274.903 274.648 278.633 278.777 282.015 283.185C284.999 287.029 287.339 290.483 289.164 293.363C290.989 296.243 292.297 298.561 293.134 300.145C293.61 300.927 293.98 301.768 294.236 302.646Z" fill="url(#paint2_linear_313_1060)"/>
<path d="M258.801 302.577C259.008 302.704 257.149 305.836 254.211 311.758C252.765 314.695 251.067 318.333 249.357 322.648C247.405 327.511 245.844 332.523 244.687 337.634C244.02 340.579 243.59 343.572 243.402 346.585C243.133 349.766 243.444 352.97 244.32 356.04C244.778 357.557 245.561 358.955 246.615 360.137C247.683 361.275 249.078 362.053 250.608 362.363C252.262 362.684 253.966 362.637 255.6 362.225C257.372 361.816 259.089 361.2 260.718 360.389C264.177 358.647 267.423 356.509 270.391 354.021C273.537 351.415 276.505 348.602 279.273 345.598C290.933 332.789 300.126 317.935 306.389 301.786C307.843 297.966 309.036 294.051 309.958 290.069C310.86 286.311 311.326 282.46 311.346 278.594C311.341 276.778 311.125 274.968 310.704 273.201C310.343 271.555 309.626 270.008 308.604 268.668C307.64 267.435 306.316 266.533 304.817 266.086C303.29 265.678 301.692 265.608 300.135 265.88C296.998 266.465 293.993 267.612 291.265 269.265C288.656 270.787 286.17 272.51 283.829 274.417C279.774 277.737 275.987 281.371 272.503 285.284C269.404 288.727 266.903 291.883 264.918 294.464C260.947 299.674 258.973 302.738 258.767 302.612C259.025 301.758 259.412 300.95 259.914 300.214C260.775 298.71 262.095 296.507 263.965 293.787C266.224 290.463 268.649 287.253 271.229 284.171C274.649 280.058 278.411 276.243 282.475 272.765C284.854 270.722 287.399 268.88 290.083 267.257C293.041 265.393 296.316 264.087 299.745 263.401C301.65 263.058 303.607 263.128 305.482 263.608C307.498 264.179 309.286 265.362 310.6 266.993C311.878 268.614 312.791 270.494 313.274 272.501C313.762 274.469 314.024 276.486 314.054 278.514C314.102 282.585 313.674 286.648 312.781 290.62C311.856 294.738 310.648 298.787 309.166 302.738C302.832 319.27 293.43 334.454 281.453 347.491C278.595 350.582 275.527 353.473 272.273 356.144C269.101 358.75 265.635 360.976 261.945 362.776C260.116 363.658 258.191 364.324 256.208 364.761C254.199 365.232 252.111 365.256 250.092 364.83C248.046 364.383 246.19 363.313 244.779 361.766C243.5 360.296 242.557 358.565 242.013 356.694C241.102 353.333 240.81 349.833 241.152 346.367C241.408 343.239 241.922 340.138 242.69 337.095C243.987 331.904 245.723 326.833 247.877 321.936C249.481 318.253 251.269 314.653 253.236 311.149C254.842 308.258 256.219 306.1 257.183 304.654C258.147 303.209 258.709 302.52 258.801 302.577Z" fill="url(#paint3_linear_313_1060)"/>
<path d="M274.258 289.37C274.258 289.622 270.609 289.679 264.079 290.311C260.821 290.632 256.839 291.114 252.272 291.917C247.109 292.828 242.025 294.14 237.067 295.842C234.215 296.827 231.444 298.036 228.782 299.456C225.934 300.894 223.371 302.838 221.22 305.194C220.168 306.374 219.385 307.768 218.925 309.279C218.52 310.794 218.592 312.397 219.131 313.869C219.735 315.442 220.67 316.867 221.874 318.046C223.16 319.328 224.589 320.46 226.131 321.42C229.432 323.444 232.955 325.081 236.631 326.297C240.506 327.606 244.467 328.649 248.485 329.418C265.508 332.601 282.974 332.601 299.997 329.418C304.015 328.654 307.975 327.615 311.851 326.308C315.531 325.094 319.059 323.458 322.362 321.431C323.904 320.472 325.333 319.34 326.619 318.058C327.823 316.878 328.758 315.454 329.362 313.881C329.901 312.408 329.973 310.805 329.568 309.291C329.108 307.779 328.325 306.385 327.273 305.205C325.122 302.849 322.559 300.905 319.711 299.468C317.053 298.038 314.282 296.829 311.426 295.853C306.468 294.151 301.384 292.839 296.221 291.929C291.631 291.125 287.673 290.643 284.414 290.322C277.884 289.691 274.235 289.634 274.246 289.381C275.108 289.158 275.997 289.065 276.886 289.106C278.619 289.048 281.189 289.014 284.494 289.163C287.799 289.312 291.826 289.622 296.485 290.311C301.782 291.054 307.007 292.244 312.103 293.868C315.09 294.825 317.995 296.023 320.79 297.448C323.934 298.98 326.77 301.076 329.155 303.633C330.46 305.078 331.435 306.789 332.013 308.648C332.583 310.661 332.519 312.801 331.829 314.776C331.125 316.719 330.005 318.486 328.547 319.951C327.136 321.407 325.557 322.69 323.842 323.772C320.373 325.954 316.661 327.722 312.78 329.039C308.792 330.419 304.712 331.52 300.571 332.333C283.176 335.668 265.306 335.668 247.911 332.333C243.77 331.52 239.69 330.419 235.701 329.039C231.821 327.722 228.108 325.954 224.639 323.772C222.927 322.687 221.348 321.405 219.934 319.951C218.474 318.488 217.354 316.721 216.652 314.776C215.962 312.801 215.898 310.661 216.469 308.648C217.049 306.79 218.024 305.079 219.326 303.633C221.713 301.077 224.548 298.981 227.692 297.448C230.483 296.019 233.389 294.826 236.378 293.879C241.473 292.245 246.698 291.051 251.996 290.311C256.655 289.645 260.694 289.335 263.988 289.163C267.281 288.991 269.863 289.048 271.596 289.106C272.491 289.061 273.389 289.15 274.258 289.37Z" fill="url(#paint4_linear_313_1060)"/>
<path d="M286.556 315.428C287.407 310.193 283.853 305.258 278.618 304.406C273.382 303.554 268.447 307.108 267.595 312.344C266.744 317.58 270.297 322.514 275.533 323.366C280.769 324.218 285.704 320.664 286.556 315.428Z" fill="url(#paint5_linear_313_1060)"/>
<rect x="295.9" y="276.44" width="244.389" height="357.14" rx="9.15743" fill="url(#paint6_linear_313_1060)"/>
<g clip-path="url(#clip0_313_1060)">
<path d="M542.423 501.601C542.423 501.601 526.42 510.717 522.965 538.76C521.167 553.409 514.679 580.55 514.679 580.55L501.622 565.777L481.711 588.371C481.711 588.371 502.932 634.157 514.973 646.665C527.013 659.172 550.982 663.113 550.982 663.113L556.122 586.762L542.423 501.601Z" fill="url(#paint7_linear_313_1060)"/>
<path d="M472.78 534.715L472.78 534.715L472.779 534.714L472.778 534.708L472.773 534.685C472.77 534.674 472.766 534.659 472.762 534.64C472.758 534.626 472.754 534.61 472.75 534.593C472.729 534.511 472.696 534.389 472.65 534.234C472.559 533.924 472.417 533.48 472.213 532.948C471.805 531.882 471.15 530.47 470.166 529.076C468.201 526.293 464.935 523.597 459.675 523.86C448.9 524.398 446.262 524.389 441.588 523.784C440.386 523.628 439.035 523.15 437.669 522.563C436.637 522.119 435.581 521.605 434.561 521.108C434.231 520.947 433.904 520.788 433.582 520.634C432.263 520 431.048 519.451 430.041 519.164C429.538 519.021 429.102 518.949 428.742 518.958C428.383 518.967 428.118 519.057 427.927 519.218C427.026 519.981 426.784 521.227 427.259 522.752C427.734 524.278 428.917 526.032 430.775 527.696C432.629 529.356 435.164 530.78 437.25 531.793C438.29 532.299 439.214 532.699 439.877 532.973C440.209 533.11 440.475 533.216 440.658 533.287C440.749 533.322 440.82 533.349 440.868 533.367L440.922 533.387L440.935 533.392L440.938 533.393L440.939 533.394L440.939 533.394L441.954 533.766L440.888 533.945L427.115 536.252L427.018 536.269L426.931 536.222L427.067 535.97C426.931 536.222 426.931 536.222 426.931 536.222L426.931 536.222L426.929 536.221L426.923 536.217L426.897 536.203L426.793 536.148C426.702 536.1 426.568 536.029 426.397 535.939C426.054 535.759 425.56 535.504 424.959 535.201C423.756 534.594 422.122 533.798 420.399 533.038C418.673 532.278 416.866 531.557 415.312 531.098C414.535 530.869 413.83 530.707 413.234 530.638C412.634 530.568 412.181 530.595 411.882 530.712C411.097 531.056 410.435 531.633 409.986 532.363C409.535 533.096 409.32 533.948 409.368 534.807L409.394 535.276L408.965 535.084L408.965 535.084L408.965 535.084L408.964 535.083L408.962 535.082L408.952 535.078L408.91 535.06C408.874 535.044 408.819 535.021 408.749 534.992C408.609 534.934 408.406 534.853 408.157 534.762C407.66 534.58 406.984 534.359 406.267 534.2C405.546 534.04 404.8 533.946 404.155 534.008C403.509 534.069 403.009 534.282 402.712 534.69C401.987 535.686 401.568 536.49 401.485 537.161C401.444 537.489 401.484 537.782 401.607 538.054C401.721 538.306 401.914 538.554 402.206 538.799C402.218 538.808 402.228 538.816 402.238 538.824C402.259 538.84 402.275 538.853 402.287 538.864C402.293 538.869 402.298 538.874 402.301 538.877L402.307 538.882L402.309 538.884L402.309 538.885L402.31 538.886C402.31 538.886 402.31 538.886 402.108 539.089L402.31 538.886L401.931 539.313C401.905 539.293 401.88 539.273 401.855 539.252C401.834 539.237 401.806 539.219 401.772 539.199C401.664 539.135 401.487 539.051 401.228 538.988C400.711 538.861 399.855 538.812 398.556 539.189L472.78 534.715ZM472.78 534.715L472.796 534.788L472.846 534.843L501.079 566.217L481.715 588.384L464.603 560.999L472.78 534.715ZM399.303 545.1L399.306 545.102L399.316 545.108L399.358 545.132L399.521 545.227L400.139 545.586C400.673 545.895 401.435 546.337 402.352 546.868C404.186 547.929 406.637 549.345 409.106 550.764C411.576 552.182 414.064 553.603 415.971 554.674C416.924 555.209 417.731 555.657 418.318 555.973C418.612 556.131 418.848 556.255 419.019 556.34C419.105 556.383 419.172 556.415 419.22 556.436C419.243 556.446 419.26 556.453 419.27 556.457C420.111 556.569 422.037 556.607 424.65 556.591C427.271 556.575 430.558 556.504 434.079 556.404C441.119 556.205 449.086 555.89 454.501 555.661C456.507 555.576 458.499 556.025 460.274 556.963C462.049 557.901 463.543 559.293 464.603 560.998L399.303 545.1ZM399.303 545.1L399.303 545.1L399.302 545.1L398.597 544.686L398.597 544.686L398.589 544.682C397.669 544.18 397.129 542.961 397.111 541.741C397.092 540.516 397.596 539.468 398.556 539.189L399.303 545.1ZM401.907 539.293L401.907 539.292C401.908 539.293 401.909 539.294 401.909 539.294L401.908 539.294L401.907 539.293Z" fill="#162141" stroke="#F28078" stroke-width="0.57234"/>
<mask id="path-12-inside-1_313_1060" fill="white">
<path d="M438.041 541.064C436.996 541.374 435.93 541.607 434.851 541.759C432.828 542.128 429.993 542.619 426.679 543.165L426.599 543.164L426.519 543.164L422.118 541.124L411.618 536.238L408.449 534.717C408.044 534.55 407.661 534.334 407.309 534.073C407.732 534.165 408.142 534.309 408.53 534.5L411.78 535.85L416.557 537.937L422.36 540.611L426.749 542.674L426.578 542.673C429.892 542.161 432.75 541.75 434.784 541.473C435.857 541.251 436.946 541.114 438.041 541.064Z"/>
</mask>
<path d="M438.041 541.064C436.996 541.374 435.93 541.607 434.851 541.759C432.828 542.128 429.993 542.619 426.679 543.165L426.599 543.164L426.519 543.164L422.118 541.124L411.618 536.238L408.449 534.717C408.044 534.55 407.661 534.334 407.309 534.073C407.732 534.165 408.142 534.309 408.53 534.5L411.78 535.85L416.557 537.937L422.36 540.611L426.749 542.674L426.578 542.673C429.892 542.161 432.75 541.75 434.784 541.473C435.857 541.251 436.946 541.114 438.041 541.064Z" fill="#AA6550"/>
<path d="M438.041 541.064L438.204 541.613L438.015 540.492L438.041 541.064ZM434.851 541.759L434.771 541.192L434.76 541.194L434.749 541.196L434.851 541.759ZM426.679 543.165L426.676 543.737L426.724 543.737L426.772 543.729L426.679 543.165ZM426.519 543.164L426.278 543.683L426.391 543.736L426.516 543.736L426.519 543.164ZM422.118 541.124L421.877 541.643L421.877 541.643L422.118 541.124ZM411.618 536.238L411.371 536.754L411.377 536.757L411.618 536.238ZM408.449 534.717L408.697 534.201L408.682 534.194L408.667 534.188L408.449 534.717ZM407.309 534.073L407.432 533.514L406.968 534.532L407.309 534.073ZM408.53 534.5L408.277 535.014L408.293 535.022L408.31 535.029L408.53 534.5ZM411.78 535.85L412.009 535.326L411.999 535.322L411.78 535.85ZM416.557 537.937L416.797 537.417L416.786 537.413L416.557 537.937ZM422.36 540.611L422.603 540.093L422.6 540.091L422.36 540.611ZM426.749 542.674L426.747 543.246L426.993 542.156L426.749 542.674ZM426.578 542.673L426.49 542.107L426.575 543.245L426.578 542.673ZM434.784 541.473L434.861 542.04L434.881 542.038L434.9 542.034L434.784 541.473ZM437.878 540.515C436.861 540.818 435.822 541.044 434.771 541.192L434.931 542.326C436.038 542.17 437.132 541.931 438.204 541.613L437.878 540.515ZM434.749 541.196C432.729 541.564 429.898 542.054 426.586 542.6L426.772 543.729C430.089 543.183 432.927 542.691 434.954 542.322L434.749 541.196ZM426.681 542.592L426.601 542.592L426.596 543.737L426.676 543.737L426.681 542.592ZM426.601 542.592L426.521 542.592L426.516 543.736L426.596 543.737L426.601 542.592ZM426.759 542.645L422.359 540.605L421.877 541.643L426.278 543.683L426.759 542.645ZM422.359 540.605L411.86 535.719L411.377 536.757L421.877 541.643L422.359 540.605ZM411.866 535.722L408.697 534.201L408.201 535.233L411.371 536.754L411.866 535.722ZM408.667 534.188C408.306 534.039 407.964 533.846 407.651 533.613L406.968 534.532C407.358 534.822 407.782 535.061 408.231 535.246L408.667 534.188ZM407.187 534.632C407.564 534.715 407.93 534.843 408.277 535.014L408.783 533.987C408.353 533.775 407.9 533.616 407.432 533.514L407.187 534.632ZM408.31 535.029L411.56 536.379L411.999 535.322L408.749 533.972L408.31 535.029ZM411.551 536.375L416.328 538.462L416.786 537.413L412.009 535.326L411.551 536.375ZM416.318 538.457L422.12 541.131L422.6 540.091L416.797 537.417L416.318 538.457ZM422.117 541.129L426.506 543.192L426.993 542.156L422.603 540.093L422.117 541.129ZM426.751 542.101L426.58 542.101L426.575 543.245L426.747 543.246L426.751 542.101ZM426.665 543.239C429.977 542.727 432.83 542.317 434.861 542.04L434.707 540.906C432.669 541.184 429.808 541.595 426.49 542.107L426.665 543.239ZM434.9 542.034C435.944 541.818 437.003 541.684 438.067 541.636L438.015 540.492C436.89 540.544 435.771 540.684 434.668 540.913L434.9 542.034Z" fill="#F28078" mask="url(#path-12-inside-1_313_1060)"/>
<path d="M428.578 548.471C428.835 548.269 429.101 548.081 429.375 547.907C428.841 548.28 428.329 548.682 427.842 549.114C428.075 548.888 428.321 548.673 428.578 548.471Z" fill="#AA6550" stroke="#F28078" stroke-width="0.57234"/>
<path d="M453.115 537.701C454.658 537.076 456.258 536.604 457.892 536.292C457.894 536.294 457.896 536.296 457.898 536.298C456.268 536.641 454.671 537.128 453.126 537.754L453.126 537.754C451.742 538.317 450.407 538.987 449.132 539.757C450.392 538.955 451.725 538.266 453.115 537.701Z" fill="#AA6550" stroke="#F28078" stroke-width="0.57234"/>
<path d="M413.261 543.789C414.162 544.124 415.036 544.458 415.87 544.786C415.027 544.472 414.145 544.149 413.237 543.822C411.702 543.269 410.243 542.728 408.921 542.219L413.26 543.789C413.26 543.789 413.26 543.789 413.261 543.789Z" fill="#AA6550" stroke="#F28078" stroke-width="0.57234"/>
<path d="M425.087 548.788C425.469 548.749 425.84 548.705 426.192 548.659C425.514 548.784 424.828 548.853 424.14 548.867C424.445 548.846 424.762 548.82 425.087 548.788Z" fill="#AA6550" stroke="#F28078" stroke-width="0.57234"/>
</g>
<path d="M125.357 191.803C125.276 194.353 127.296 196.478 129.848 196.525L334.184 200.342C336.691 200.389 338.77 198.411 338.847 195.905L340.661 136.769C340.739 134.218 338.716 132.095 336.164 132.051L131.869 128.506C129.366 128.463 127.292 130.437 127.213 132.94L125.357 191.803Z" fill="url(#paint8_linear_313_1060)"/>
<path d="M144.993 144.535C142.659 144.761 140.307 144.711 137.985 144.384C139.136 144.2 140.306 144.154 141.468 144.248C142.65 144.208 143.833 144.304 144.993 144.535Z" fill="white"/>
<path d="M145.387 137.517C144.236 137.704 143.066 137.75 141.903 137.653C140.733 137.7 139.561 137.605 138.413 137.371C139.565 137.194 140.734 137.149 141.897 137.236C143.067 137.203 144.237 137.297 145.387 137.517Z" fill="white"/>
<path d="M144.844 152.143C143.693 152.327 142.523 152.373 141.361 152.279C140.186 152.318 139.011 152.223 137.859 151.996C139.011 151.812 140.18 151.766 141.343 151.86C142.517 151.821 143.692 151.915 144.844 152.143Z" fill="white"/>
<path d="M144.697 159.66C143.545 159.846 142.376 159.891 141.213 159.795C140.043 159.836 138.872 159.741 137.723 159.514C140.053 159.288 142.401 159.338 144.72 159.663L144.697 159.66Z" fill="white"/>
<path d="M144.554 167.235C143.401 167.405 142.233 167.446 141.072 167.359C139.901 167.406 138.729 167.311 137.581 167.078C139.911 166.848 142.26 166.902 144.576 167.238L144.554 167.235Z" fill="white"/>
<path d="M144.412 174.799C143.26 174.975 142.092 175.017 140.93 174.923C139.756 174.969 138.58 174.874 137.428 174.64C138.581 174.462 139.749 174.417 140.912 174.504C142.086 174.465 143.261 174.564 144.412 174.799Z" fill="white"/>
<path d="M144.27 182.362C143.118 182.539 141.95 182.58 140.788 182.486C139.61 182.526 138.432 182.422 137.278 182.179C138.43 182.002 139.599 181.961 140.76 182.055C141.938 182.016 143.117 182.119 144.27 182.362Z" fill="white"/>
<path d="M173.064 144.717C173.047 144.83 168.995 144.834 163.979 144.716C158.963 144.599 154.89 144.426 154.896 144.312C154.902 144.197 158.966 144.195 163.983 144.301C169.001 144.408 173.07 144.603 173.064 144.717Z" fill="#EF4135"/>
<path d="M198.074 160.856C198.057 160.969 190.464 160.869 181.071 160.684C171.679 160.498 164.068 160.211 164.073 160.096C164.079 159.981 171.683 160.083 181.087 160.27C190.491 160.457 198.079 160.742 198.074 160.856Z" fill="#EF4135"/>
<path d="M237.404 161.723C237.387 161.836 229.783 161.735 220.388 161.56C210.994 161.386 203.396 161.089 203.39 160.973C203.385 160.857 211 160.96 220.404 161.147C229.808 161.334 237.397 161.618 237.404 161.723Z" fill="white"/>
<path d="M222.222 168.959C222.205 169.072 211.007 168.916 197.157 168.662C183.307 168.408 172.099 168.008 172.103 167.905C172.107 167.801 183.331 167.938 197.18 168.203C211.028 168.468 222.228 168.844 222.222 168.959Z" fill="#E0E0E0"/>
<path d="M222.08 176.523C222.063 176.635 210.865 176.479 197.023 176.169C183.182 175.859 171.964 175.527 171.969 175.412C171.975 175.297 183.184 175.455 197.035 175.709C210.885 175.963 222.082 176.431 222.08 176.523Z" fill="#E0E0E0"/>
<path d="M241.544 184.522C241.527 184.635 230.329 184.479 216.479 184.225C202.629 183.971 191.42 183.582 191.425 183.468C191.431 183.353 202.652 183.513 216.482 183.821C230.312 184.13 241.55 184.407 241.544 184.522Z" fill="#EF4135"/>
<path d="M302.781 185.882C302.764 185.995 291.566 185.839 277.716 185.585C263.866 185.331 252.658 184.931 252.664 184.817C252.67 184.702 263.89 184.862 277.732 185.172C291.574 185.482 302.785 185.779 302.781 185.882Z" fill="white"/>
<path d="M281.778 170.286C281.761 170.399 270.552 170.241 256.713 169.989C242.874 169.737 231.655 169.335 231.661 169.22C231.666 169.106 242.876 169.264 256.726 169.517C270.576 169.771 281.783 170.171 281.778 170.286Z" fill="#FAFAFA"/>
<path d="M309.332 178.46C309.315 178.573 291.914 178.283 270.421 177.806C248.927 177.329 231.521 176.842 231.514 176.737C231.507 176.632 248.943 176.916 270.436 177.393C291.93 177.87 309.337 178.346 309.332 178.46Z" fill="white"/>
<path d="M172.869 152.722C172.853 152.824 168.799 152.839 163.783 152.722C158.767 152.604 154.695 152.432 154.689 152.316C154.683 152.199 158.77 152.201 163.788 152.307C168.805 152.413 172.885 152.61 172.869 152.722Z" fill="white"/>
<path d="M181.345 183.179C181.328 183.292 177.264 183.294 172.246 183.188C167.229 183.082 163.169 182.9 163.163 182.784C163.158 182.667 167.233 182.667 172.262 182.775C177.291 182.883 181.337 183.074 181.345 183.179Z" fill="white"/>
<path d="M327.005 186.399C326.988 186.512 322.924 186.514 317.907 186.408C312.889 186.302 308.82 186.107 308.824 186.004C308.828 185.9 312.893 185.887 317.922 185.995C322.951 186.103 326.994 186.317 327.005 186.399Z" fill="#EF4135"/>
<path d="M149.696 192.365C149.537 192.342 149.842 178.846 150.39 162.188C150.938 145.53 151.509 132.028 151.682 132.031C151.855 132.034 151.535 145.551 150.987 162.208C150.439 178.866 149.857 192.367 149.696 192.365Z" fill="white"/>
<path d="M140.905 196.187C140.905 196.187 140.295 206.869 133.643 212.114L126.855 217.436L123.765 239.664L100.425 224.382L103.701 202.627L112.282 151.875C112.751 149.731 113.776 147.742 115.26 146.095L127.565 132.903" stroke="#F28078" stroke-width="0.57234"/>
<mask id="path-40-inside-2_313_1060" fill="white">
<path d="M111.382 176.778C115.543 171.349 120.196 166.315 125.282 161.741C126.852 160.152 128.74 158.912 130.823 158.105C131.873 157.712 133.012 157.627 134.108 157.86C135.205 158.093 136.211 158.633 137.011 159.419C137.744 160.456 138.142 161.694 138.15 162.965C138.158 164.236 137.776 165.478 137.055 166.525C135.584 168.597 133.783 170.413 131.725 171.902C129.671 173.415 128.13 175.52 127.31 177.936C126.984 180.306 127.084 182.716 127.605 185.052C127.985 188.938 127.368 192.857 125.813 196.438C124.258 200.019 121.815 203.145 118.716 205.52"/>
</mask>
<path d="M111.382 176.778C115.543 171.349 120.196 166.315 125.282 161.741C126.852 160.152 128.74 158.912 130.823 158.105C131.873 157.712 133.012 157.627 134.108 157.86C135.205 158.093 136.211 158.633 137.011 159.419C137.744 160.456 138.142 161.694 138.15 162.965C138.158 164.236 137.776 165.478 137.055 166.525C135.584 168.597 133.783 170.413 131.725 171.902C129.671 173.415 128.13 175.52 127.31 177.936C126.984 180.306 127.084 182.716 127.605 185.052C127.985 188.938 127.368 192.857 125.813 196.438C124.258 200.019 121.815 203.145 118.716 205.52" fill="url(#paint9_linear_313_1060)"/>
<path d="M125.282 161.741L125.665 162.166L125.677 162.155L125.689 162.143L125.282 161.741ZM130.823 158.105L130.623 157.569L130.616 157.571L130.823 158.105ZM137.011 159.419L137.478 159.088L137.448 159.046L137.412 159.01L137.011 159.419ZM137.055 166.525L137.522 166.856L137.526 166.85L137.055 166.525ZM131.725 171.902L131.389 171.439L131.385 171.441L131.725 171.902ZM127.31 177.936L126.768 177.752L126.751 177.804L126.743 177.858L127.31 177.936ZM127.605 185.052L128.175 184.996L128.171 184.961L128.164 184.927L127.605 185.052ZM111.836 177.126C115.976 171.725 120.605 166.717 125.665 162.166L124.899 161.315C119.787 165.913 115.111 170.973 110.928 176.43L111.836 177.126ZM125.689 162.143C127.202 160.611 129.023 159.417 131.03 158.639L130.616 157.571C128.458 158.408 126.502 159.692 124.875 161.338L125.689 162.143ZM131.024 158.641C131.971 158.286 133 158.21 133.99 158.42L134.227 157.3C133.025 157.045 131.774 157.138 130.623 157.569L131.024 158.641ZM133.99 158.42C134.979 158.63 135.888 159.118 136.61 159.827L137.412 159.01C136.535 158.149 135.43 157.555 134.227 157.3L133.99 158.42ZM136.543 159.749C137.21 160.691 137.57 161.815 137.578 162.968L138.722 162.961C138.714 161.573 138.279 160.221 137.478 159.088L136.543 159.749ZM137.578 162.968C137.585 164.122 137.238 165.25 136.584 166.201L137.526 166.85C138.313 165.707 138.731 164.349 138.722 162.961L137.578 162.968ZM136.588 166.194C135.154 168.214 133.397 169.986 131.389 171.439L132.06 172.366C134.169 170.84 136.014 168.979 137.522 166.856L136.588 166.194ZM131.385 171.441C129.237 173.023 127.626 175.226 126.768 177.752L127.852 178.12C128.634 175.815 130.104 173.806 132.064 172.363L131.385 171.441ZM126.743 177.858C126.408 180.296 126.51 182.774 127.046 185.176L128.164 184.927C127.657 182.658 127.56 180.317 127.877 178.014L126.743 177.858ZM127.035 185.108C127.406 188.897 126.805 192.718 125.288 196.21L126.338 196.666C127.932 192.995 128.564 188.979 128.175 184.996L127.035 185.108ZM125.288 196.21C123.771 199.702 121.39 202.75 118.368 205.066L119.064 205.974C122.24 203.54 124.744 200.336 126.338 196.666L125.288 196.21Z" fill="#F28078" mask="url(#path-40-inside-2_313_1060)"/>
<path d="M38.7622 191.932C38.7622 191.932 55.1826 208.743 60.1524 225.876C64.6944 239.903 70.1099 253.632 76.3672 266.982L96.1483 221.238L129.457 243.168C129.457 243.168 108.127 316.166 104.293 324.546C98.9785 336.144 88.7512 345.776 75.3689 342.606C61.9866 339.435 54.7611 332.186 47.6233 318.151L38.5952 294.713L38.7622 191.932Z" fill="url(#paint10_linear_313_1060)"/>
<path d="M76.2905 267.173C72.4185 278.884 70.4424 291.138 70.4371 303.472C70.2908 304.994 70.614 306.524 71.3634 307.856C71.5624 308.173 71.8242 308.446 72.1327 308.659C72.4412 308.871 72.7899 309.017 73.1572 309.09C73.5246 309.162 73.9028 309.158 74.2687 309.079C74.6346 309 74.9803 308.846 75.2847 308.628C75.6438 308.103 75.8762 307.502 75.9638 306.872C76.0515 306.242 75.9918 305.6 75.7896 304.997C73.74 292.456 73.8927 279.654 76.2411 267.166" fill="#462631"/>
<path d="M93.3446 431.719L93.4385 450.317C93.4385 450.317 124.278 432.885 115.241 416.191L93.3446 431.719Z" fill="url(#paint11_linear_313_1060)"/>
<path d="M96.348 388.757C96.348 388.757 74.0762 380.618 57.2349 395.703L74.5589 405.478L96.348 388.757Z" fill="url(#paint12_linear_313_1060)"/>
<path d="M74.5579 405.531C75.2551 406.443 93.33 431.719 93.33 431.719L140.555 398.197C142.5 396.819 144.139 395.054 145.367 393.012C146.595 390.969 147.387 388.694 147.692 386.331C147.997 383.967 147.808 381.566 147.138 379.279C146.469 376.991 145.332 374.868 143.8 373.042C140.934 369.655 136.874 367.501 132.461 367.029C128.049 366.557 123.625 367.803 120.107 370.508L74.5579 405.531Z" fill="#162141"/>
<path d="M74.5586 405.531C74.6739 405.413 74.7995 405.306 74.934 405.21L76.114 404.258L80.7266 400.651L97.8361 387.322L109.703 378.124L116.327 373.002L119.8 370.32C121.008 369.394 122.328 368.624 123.728 368.027C124.439 367.716 125.169 367.452 125.914 367.236C126.673 367.037 127.443 366.884 128.22 366.78C129.803 366.552 131.411 366.552 132.994 366.78C136.282 367.223 139.375 368.596 141.91 370.736C143.207 371.83 144.34 373.103 145.276 374.517C146.218 375.959 146.954 377.525 147.462 379.17C148.45 382.575 148.403 386.197 147.328 389.575C146.294 392.803 144.341 395.659 141.709 397.795C139.028 399.806 136.44 401.563 133.865 403.426L118.955 413.966L93.4783 431.933L93.2637 432.081L93.1162 431.88C87.3639 423.754 82.6977 417.13 79.4393 412.571L75.7788 407.342L74.8402 406.001C74.7281 405.858 74.6294 405.706 74.5452 405.545C74.6752 405.694 74.7961 405.851 74.9072 406.014C75.162 406.336 75.4972 406.792 75.9263 407.355L79.7209 412.544L93.5319 431.571H93.1833L118.566 413.483C123.326 410.117 128.301 406.577 133.45 402.917C136.011 401.066 138.706 399.27 141.253 397.312C143.768 395.254 145.631 392.51 146.617 389.414C147.648 386.17 147.69 382.693 146.738 379.425C146.256 377.84 145.551 376.333 144.646 374.946C143.321 372.937 141.584 371.233 139.549 369.948C137.515 368.662 135.23 367.825 132.846 367.491C131.326 367.27 129.781 367.27 128.26 367.491C127.51 367.586 126.767 367.729 126.035 367.92C125.316 368.12 124.612 368.371 123.929 368.671C121.154 369.784 118.982 371.835 116.675 373.525L110.078 378.567L98.2115 387.577L80.9411 400.704L76.2078 404.284L74.9474 405.21L74.5586 405.531Z" fill="#F28078"/>
<path d="M97.1924 404.083L67.6932 425.309C67.6932 425.309 69.0341 428.541 69.7716 428.219C70.5091 427.897 92.6871 412.799 99.8875 407.891C100.164 407.702 100.397 407.454 100.569 407.167C100.742 406.879 100.85 406.557 100.887 406.224C100.924 405.89 100.888 405.553 100.783 405.234C100.678 404.916 100.505 404.624 100.276 404.378C99.8891 403.958 99.36 403.695 98.7908 403.64C98.2217 403.586 97.6524 403.744 97.1924 404.083Z" fill="url(#paint13_linear_313_1060)"/>
<path d="M127.804 390.755C127.804 390.755 127.71 389.883 127.214 388.422C126.503 386.35 125.12 384.576 123.285 383.38C121.944 382.504 120.404 381.977 118.807 381.848C117.21 381.719 115.605 381.992 114.141 382.643C112.346 383.438 110.838 384.764 109.82 386.442C108.801 388.12 108.32 390.069 108.442 392.029C108.588 394.051 109.362 395.977 110.654 397.54C111.806 398.926 113.326 399.958 115.038 400.518C116.751 401.078 118.588 401.143 120.336 400.704C121.788 400.351 123.135 399.657 124.264 398.679C125.939 397.266 127.087 395.329 127.523 393.182C127.657 392.387 127.751 391.586 127.804 390.782C127.865 390.986 127.892 391.199 127.885 391.412C127.927 392.022 127.891 392.635 127.777 393.235C127.474 395.142 126.621 396.919 125.323 398.348C124.025 399.777 122.338 400.796 120.47 401.281C118.618 401.77 116.665 401.722 114.839 401.142C113.013 400.563 111.39 399.476 110.158 398.009C108.762 396.349 107.93 394.287 107.785 392.122C107.655 390.034 108.171 387.957 109.262 386.172C110.354 384.387 111.968 382.982 113.886 382.146C115.554 381.433 117.382 381.174 119.182 381.395C121.091 381.644 122.888 382.438 124.358 383.682C125.828 384.926 126.908 386.567 127.469 388.408C127.655 388.986 127.768 389.585 127.804 390.192C127.832 390.378 127.832 390.568 127.804 390.755Z" fill="#85A9D8"/>
<path d="M142.769 396.387C158.631 381.557 155.802 364.38 155.802 364.38C134.469 358.775 120.068 370.508 120.068 370.508C134.268 372.506 141.87 381.101 142.769 396.387Z" fill="url(#paint14_linear_313_1060)"/>
<mask id="path-51-inside-3_313_1060" fill="white">
<path d="M97.1339 428.047C97.1339 428.047 96.765 428.265 96.0273 428.662C95.2896 429.059 94.2019 429.608 92.8022 430.459C88.6842 432.801 84.711 435.388 80.9041 438.208C74.8626 442.641 69.2429 447.623 64.1162 453.089C60.9197 456.505 57.9198 460.099 55.1312 463.855C51.9768 468.041 49.2428 472.529 46.969 477.252C45.7778 479.803 44.7634 482.433 43.933 485.123C43.0976 487.938 42.5338 490.828 42.2495 493.751C41.9865 496.799 42.1489 499.868 42.7318 502.871C43.0357 504.42 43.4562 505.945 43.9897 507.431C44.55 508.926 45.2267 510.375 46.0137 511.764C49.4418 517.517 54.3382 522.255 60.2006 525.491C66.4422 528.878 73.2337 531.133 80.2609 532.151C83.8549 532.747 87.5152 533.154 91.2416 533.438C93.1332 533.599 95.0248 533.656 96.8596 533.741L102.534 533.987C104.426 534.11 106.318 534.062 108.285 534.062H114.092C116.04 534.062 117.998 533.93 119.956 533.864L125.877 533.589C142.218 532.513 158.441 530.077 174.377 526.305C207.196 518.68 237.187 506.797 263.594 494.47C276.835 488.349 289.196 481.954 299.619 474.234C304.664 470.538 309.314 466.331 313.494 461.679L314.969 459.995C315.452 459.437 315.915 458.832 316.35 458.264L317.702 456.533L318.941 454.745C320.596 452.468 322.013 450.027 323.169 447.46C325.416 442.734 326.549 437.556 326.479 432.323C326.388 427.628 324.515 423.143 321.24 419.778C318.27 416.984 314.537 415.137 310.514 414.471C307.149 413.873 303.704 413.873 300.338 414.471C297.648 414.944 295.003 415.643 292.431 416.562C290.189 417.338 288.336 418.104 286.832 418.738L283.436 420.195L282.283 420.687L283.417 420.147C284.174 419.807 285.309 419.286 286.794 418.643C288.279 418 290.142 417.215 292.384 416.42C294.957 415.483 297.605 414.768 300.3 414.282C303.691 413.658 307.165 413.642 310.562 414.234C314.633 414.881 318.419 416.725 321.438 419.532C324.78 422.94 326.698 427.494 326.801 432.266C326.893 437.562 325.76 442.807 323.491 447.593C322.336 450.183 320.916 452.646 319.254 454.943L318.015 456.741L316.709 458.482C316.246 459.059 315.811 459.664 315.319 460.232L313.844 461.925C309.654 466.601 304.992 470.831 299.931 474.546C289.48 482.313 277.081 488.737 263.858 494.867C237.442 507.232 207.423 519.134 174.557 526.778C141.69 534.422 109.212 536.598 80.242 532.596C73.1682 531.555 66.3349 529.268 60.0588 525.841C54.125 522.565 49.1697 517.768 45.7016 511.944C44.8993 510.535 44.2129 509.064 43.6493 507.544C43.1127 506.046 42.689 504.509 42.3819 502.947C41.7977 499.909 41.6385 496.804 41.909 493.722C42.2009 490.773 42.7742 487.859 43.6209 485.019C44.4624 482.312 45.4894 479.666 46.6947 477.1C48.9849 472.36 51.7413 467.86 54.9231 463.666C62.2178 453.869 70.9516 445.232 80.8284 438.047C84.6531 435.243 88.649 432.68 92.7927 430.374C95.5923 428.785 97.1339 428.047 97.1339 428.047Z"/>
</mask>
<path d="M97.1339 428.047C97.1339 428.047 96.765 428.265 96.0273 428.662C95.2896 429.059 94.2019 429.608 92.8022 430.459C88.6842 432.801 84.711 435.388 80.9041 438.208C74.8626 442.641 69.2429 447.623 64.1162 453.089C60.9197 456.505 57.9198 460.099 55.1312 463.855C51.9768 468.041 49.2428 472.529 46.969 477.252C45.7778 479.803 44.7634 482.433 43.933 485.123C43.0976 487.938 42.5338 490.828 42.2495 493.751C41.9865 496.799 42.1489 499.868 42.7318 502.871C43.0357 504.42 43.4562 505.945 43.9897 507.431C44.55 508.926 45.2267 510.375 46.0137 511.764C49.4418 517.517 54.3382 522.255 60.2006 525.491C66.4422 528.878 73.2337 531.133 80.2609 532.151C83.8549 532.747 87.5152 533.154 91.2416 533.438C93.1332 533.599 95.0248 533.656 96.8596 533.741L102.534 533.987C104.426 534.11 106.318 534.062 108.285 534.062H114.092C116.04 534.062 117.998 533.93 119.956 533.864L125.877 533.589C142.218 532.513 158.441 530.077 174.377 526.305C207.196 518.68 237.187 506.797 263.594 494.47C276.835 488.349 289.196 481.954 299.619 474.234C304.664 470.538 309.314 466.331 313.494 461.679L314.969 459.995C315.452 459.437 315.915 458.832 316.35 458.264L317.702 456.533L318.941 454.745C320.596 452.468 322.013 450.027 323.169 447.46C325.416 442.734 326.549 437.556 326.479 432.323C326.388 427.628 324.515 423.143 321.24 419.778C318.27 416.984 314.537 415.137 310.514 414.471C307.149 413.873 303.704 413.873 300.338 414.471C297.648 414.944 295.003 415.643 292.431 416.562C290.189 417.338 288.336 418.104 286.832 418.738L283.436 420.195L282.283 420.687L283.417 420.147C284.174 419.807 285.309 419.286 286.794 418.643C288.279 418 290.142 417.215 292.384 416.42C294.957 415.483 297.605 414.768 300.3 414.282C303.691 413.658 307.165 413.642 310.562 414.234C314.633 414.881 318.419 416.725 321.438 419.532C324.78 422.94 326.698 427.494 326.801 432.266C326.893 437.562 325.76 442.807 323.491 447.593C322.336 450.183 320.916 452.646 319.254 454.943L318.015 456.741L316.709 458.482C316.246 459.059 315.811 459.664 315.319 460.232L313.844 461.925C309.654 466.601 304.992 470.831 299.931 474.546C289.48 482.313 277.081 488.737 263.858 494.867C237.442 507.232 207.423 519.134 174.557 526.778C141.69 534.422 109.212 536.598 80.242 532.596C73.1682 531.555 66.3349 529.268 60.0588 525.841C54.125 522.565 49.1697 517.768 45.7016 511.944C44.8993 510.535 44.2129 509.064 43.6493 507.544C43.1127 506.046 42.689 504.509 42.3819 502.947C41.7977 499.909 41.6385 496.804 41.909 493.722C42.2009 490.773 42.7742 487.859 43.6209 485.019C44.4624 482.312 45.4894 479.666 46.6947 477.1C48.9849 472.36 51.7413 467.86 54.9231 463.666C62.2178 453.869 70.9516 445.232 80.8284 438.047C84.6531 435.243 88.649 432.68 92.7927 430.374C95.5923 428.785 97.1339 428.047 97.1339 428.047Z" fill="#85A9D8"/>
<path d="M97.1339 428.047L98.1501 429.77L96.2704 426.243L97.1339 428.047ZM92.8022 430.459L93.7907 432.198L93.8163 432.183L93.8415 432.168L92.8022 430.459ZM80.9041 438.208L82.0874 439.82L82.0944 439.815L80.9041 438.208ZM64.1162 453.089L62.6574 451.721L62.656 451.723L64.1162 453.089ZM55.1312 463.855L56.7285 465.059L56.7328 465.053L56.737 465.048L55.1312 463.855ZM46.969 477.252L45.167 476.384L45.1618 476.395L45.1568 476.405L46.969 477.252ZM43.933 485.123L42.022 484.533L42.0187 484.543L42.0156 484.554L43.933 485.123ZM42.2495 493.751L40.2589 493.557L40.2578 493.568L40.2569 493.579L42.2495 493.751ZM42.7318 502.871L40.7685 503.252L40.7692 503.256L42.7318 502.871ZM43.9897 507.431L42.1074 508.107L42.112 508.12L42.1169 508.133L43.9897 507.431ZM46.0137 511.764L44.2736 512.75L44.2844 512.769L44.2956 512.788L46.0137 511.764ZM60.2006 525.491L59.2341 527.242L59.2404 527.246L59.2468 527.249L60.2006 525.491ZM80.2609 532.151L80.5881 530.178L80.568 530.175L80.5479 530.172L80.2609 532.151ZM91.2416 533.438L91.411 531.445L91.4023 531.445L91.3935 531.444L91.2416 533.438ZM96.8596 533.741L96.7669 535.739L96.773 535.739L96.8596 533.741ZM102.534 533.987L102.664 531.991L102.643 531.99L102.621 531.989L102.534 533.987ZM119.956 533.864L120.024 535.863L120.036 535.862L120.048 535.862L119.956 533.864ZM125.877 533.589L125.969 535.587L125.989 535.586L126.008 535.585L125.877 533.589ZM174.377 526.305L173.924 524.357L173.916 524.359L174.377 526.305ZM263.594 494.47L262.754 492.654L262.748 492.658L263.594 494.47ZM299.619 474.234L298.437 472.62L298.428 472.626L299.619 474.234ZM313.494 461.679L314.981 463.016L314.99 463.007L314.998 462.997L313.494 461.679ZM314.969 459.995L316.473 461.313L316.482 461.303L314.969 459.995ZM316.35 458.264L314.774 457.033L314.768 457.04L314.763 457.047L316.35 458.264ZM317.702 456.533L319.279 457.764L319.314 457.719L319.346 457.672L317.702 456.533ZM318.941 454.745L317.324 453.569L317.31 453.587L317.298 453.606L318.941 454.745ZM323.169 447.46L321.363 446.601L321.354 446.62L321.346 446.639L323.169 447.46ZM326.479 432.323L328.479 432.297L328.479 432.284L326.479 432.323ZM321.24 419.778L322.673 418.383L322.642 418.352L322.61 418.322L321.24 419.778ZM310.514 414.471L310.165 416.44L310.176 416.442L310.188 416.444L310.514 414.471ZM300.338 414.471L300.684 416.441L300.687 416.44L300.338 414.471ZM292.431 416.562L293.085 418.452L293.094 418.449L293.104 418.445L292.431 416.562ZM286.832 418.738L286.055 416.895L286.043 416.9L286.832 418.738ZM283.436 420.195L284.221 422.034L284.225 422.033L283.436 420.195ZM282.283 420.687L281.424 418.88L283.067 422.526L282.283 420.687ZM283.417 420.147L282.597 418.324L282.578 418.332L282.559 418.341L283.417 420.147ZM292.384 416.42L293.052 418.305L293.06 418.302L293.068 418.299L292.384 416.42ZM300.3 414.282L300.655 416.25L300.662 416.249L300.3 414.282ZM310.562 414.234L310.218 416.205L310.233 416.207L310.248 416.21L310.562 414.234ZM321.438 419.532L322.866 418.132L322.834 418.099L322.8 418.068L321.438 419.532ZM326.801 432.266L328.801 432.232L328.801 432.223L326.801 432.266ZM323.491 447.593L321.684 446.736L321.674 446.757L321.664 446.778L323.491 447.593ZM319.254 454.943L317.633 453.771L317.62 453.79L317.607 453.808L319.254 454.943ZM318.015 456.741L319.615 457.941L319.639 457.909L319.661 457.876L318.015 456.741ZM316.709 458.482L318.269 459.734L318.29 459.708L318.31 459.682L316.709 458.482ZM315.319 460.232L316.827 461.546L316.831 461.542L315.319 460.232ZM313.844 461.925L315.333 463.26L315.342 463.25L315.352 463.239L313.844 461.925ZM299.931 474.546L298.748 472.934L298.738 472.941L299.931 474.546ZM263.858 494.867L263.017 493.053L263.011 493.056L263.858 494.867ZM80.242 532.596L79.9507 534.575L79.9595 534.576L79.9683 534.577L80.242 532.596ZM60.0588 525.841L59.0921 527.592L59.1004 527.597L60.0588 525.841ZM45.7016 511.944L43.9639 512.934L43.9734 512.95L43.9832 512.967L45.7016 511.944ZM43.6493 507.544L41.7663 508.219L41.7701 508.229L41.7741 508.24L43.6493 507.544ZM42.3819 502.947L40.4179 503.324L40.4195 503.332L42.3819 502.947ZM41.909 493.722L39.9187 493.525L39.9176 493.537L39.9166 493.548L41.909 493.722ZM43.6209 485.019L41.711 484.425L41.7076 484.436L41.7042 484.447L43.6209 485.019ZM46.6947 477.1L44.8939 476.23L44.8891 476.24L44.8845 476.25L46.6947 477.1ZM54.9231 463.666L56.5164 464.875L56.5219 464.868L56.5273 464.861L54.9231 463.666ZM80.8284 438.047L82.0049 439.664L82.0109 439.66L80.8284 438.047ZM92.7927 430.374L93.7653 432.122L93.7727 432.118L93.7801 432.114L92.7927 430.374ZM97.1339 428.047C96.1177 426.324 96.1178 426.324 96.1179 426.324C96.1179 426.324 96.1179 426.324 96.118 426.324C96.118 426.324 96.1181 426.324 96.1182 426.324C96.1183 426.324 96.1184 426.324 96.1185 426.324C96.1186 426.324 96.1187 426.324 96.1187 426.324C96.1187 426.324 96.1183 426.324 96.1175 426.324C96.116 426.325 96.113 426.327 96.1087 426.33C96.0999 426.335 96.0854 426.343 96.0651 426.355C96.0245 426.378 95.961 426.415 95.8744 426.464C95.7013 426.561 95.4361 426.709 95.0789 426.901L96.9757 430.423C97.3562 430.218 97.6444 430.058 97.8401 429.947C97.938 429.892 98.0127 429.849 98.0644 429.819C98.0902 429.805 98.1103 429.793 98.1245 429.785C98.1317 429.78 98.1374 429.777 98.1416 429.775C98.1438 429.773 98.1455 429.772 98.1469 429.771C98.1476 429.771 98.1482 429.771 98.1488 429.77C98.149 429.77 98.1493 429.77 98.1495 429.77C98.1496 429.77 98.1497 429.77 98.1498 429.77C98.1498 429.77 98.1499 429.77 98.1499 429.77C98.15 429.77 98.1501 429.77 97.1339 428.047ZM95.0789 426.901C94.3839 427.275 93.2215 427.863 91.7628 428.751L93.8415 432.168C95.1823 431.353 96.1953 430.843 96.9757 430.423L95.0789 426.901ZM91.8136 428.721C87.6258 431.102 83.5852 433.733 79.7138 436.6L82.0944 439.815C85.8367 437.043 89.7426 434.5 93.7907 432.198L91.8136 428.721ZM79.7208 436.595C73.5802 441.102 67.8682 446.165 62.6574 451.721L65.575 454.457C70.6175 449.081 76.1451 444.181 82.0874 439.82L79.7208 436.595ZM62.656 451.723C59.4076 455.193 56.3592 458.846 53.5254 462.663L56.737 465.048C59.4804 461.352 62.4317 457.816 65.5765 454.456L62.656 451.723ZM53.5339 462.652C50.3004 466.943 47.4978 471.543 45.167 476.384L48.771 478.119C50.9878 473.515 53.6532 469.14 56.7285 465.059L53.5339 462.652ZM45.1568 476.405C43.9269 479.04 42.8795 481.755 42.022 484.533L45.844 485.713C46.6474 483.11 47.6288 480.566 48.7812 478.098L45.1568 476.405ZM42.0156 484.554C41.1438 487.492 40.5556 490.507 40.2589 493.557L44.2401 493.944C44.512 491.148 45.0513 488.385 45.8504 485.692L42.0156 484.554ZM40.2569 493.579C39.978 496.811 40.1502 500.067 40.7685 503.252L44.6952 502.49C44.1476 499.669 43.9951 496.786 44.2421 493.923L40.2569 493.579ZM40.7692 503.256C41.0925 504.904 41.5398 506.526 42.1074 508.107L45.8721 506.755C45.3726 505.364 44.979 503.937 44.6944 502.486L40.7692 503.256ZM42.1169 508.133C42.7139 509.726 43.435 511.27 44.2736 512.75L47.7539 510.778C47.0185 509.48 46.3861 508.126 45.8626 506.729L42.1169 508.133ZM44.2956 512.788C47.9052 518.846 53.061 523.835 59.2341 527.242L61.1672 523.74C55.6154 520.676 50.9784 516.189 47.7319 510.74L44.2956 512.788ZM59.2468 527.249C65.6958 530.748 72.7131 533.078 79.974 534.131L80.5479 530.172C73.7543 529.187 67.1885 527.007 61.1545 523.733L59.2468 527.249ZM79.9337 534.125C83.5983 534.732 87.3187 535.145 91.0897 535.432L91.3935 531.444C87.7116 531.163 84.1116 530.763 80.5881 530.178L79.9337 534.125ZM91.0722 535.431C93.0147 535.596 94.9756 535.656 96.7669 535.739L96.9523 531.743C95.0739 531.656 93.2517 531.602 91.411 531.445L91.0722 535.431ZM96.773 535.739L102.448 535.985L102.621 531.989L96.9462 531.743L96.773 535.739ZM102.405 535.983C104.382 536.111 106.385 536.062 108.285 536.062V532.062C106.25 532.062 104.47 532.108 102.664 531.991L102.405 535.983ZM108.285 536.062H114.092V532.062H108.285V536.062ZM114.092 536.062C116.08 536.062 118.162 535.926 120.024 535.863L119.888 531.865C117.834 531.934 116.001 532.062 114.092 532.062V536.062ZM120.048 535.862L125.969 535.587L125.784 531.592L119.863 531.866L120.048 535.862ZM126.008 535.585C142.46 534.502 158.793 532.048 174.838 528.251L173.916 524.359C158.088 528.105 141.975 530.525 125.745 531.594L126.008 535.585ZM174.83 528.253C207.829 520.586 237.957 508.645 264.44 496.282L262.748 492.658C236.417 504.949 206.563 516.773 173.924 524.357L174.83 528.253ZM264.433 496.285C277.707 490.149 290.219 483.685 300.809 475.841L298.428 472.626C288.174 480.222 275.962 486.549 262.754 492.654L264.433 496.285ZM300.801 475.847C305.957 472.07 310.709 467.771 314.981 463.016L312.006 460.343C307.918 464.892 303.371 469.006 298.437 472.62L300.801 475.847ZM314.998 462.997L316.473 461.313L313.465 458.677L311.989 460.361L314.998 462.997ZM316.482 461.303C317.01 460.693 317.509 460.039 317.937 459.481L314.763 457.047C314.32 457.624 313.893 458.182 313.456 458.688L316.482 461.303ZM317.926 459.495L319.279 457.764L316.126 455.302L314.774 457.033L317.926 459.495ZM319.346 457.672L320.585 455.884L317.298 453.606L316.059 455.394L319.346 457.672ZM320.559 455.921C322.295 453.533 323.78 450.973 324.993 448.282L321.346 446.639C320.246 449.08 318.898 451.403 317.324 453.569L320.559 455.921ZM324.975 448.319C327.354 443.317 328.553 437.835 328.479 432.297L324.48 432.35C324.545 437.276 323.479 442.152 321.363 446.601L324.975 448.319ZM328.479 432.284C328.378 427.081 326.302 422.112 322.673 418.383L319.807 421.174C322.728 424.174 324.399 428.174 324.48 432.362L328.479 432.284ZM322.61 418.322C319.352 415.256 315.255 413.229 310.841 412.498L310.188 416.444C313.819 417.045 317.189 418.713 319.869 421.235L322.61 418.322ZM310.864 412.502C307.267 411.863 303.585 411.863 299.988 412.502L300.687 416.44C303.822 415.884 307.03 415.884 310.165 416.44L310.864 412.502ZM299.991 412.501C297.191 412.994 294.436 413.722 291.758 414.678L293.104 418.445C295.569 417.565 298.105 416.894 300.684 416.441L299.991 412.501ZM291.777 414.672C289.473 415.469 287.571 416.256 286.055 416.895L287.609 420.581C289.1 419.952 290.906 419.206 293.085 418.452L291.777 414.672ZM286.043 416.9L282.648 418.357L284.225 422.033L287.62 420.576L286.043 416.9ZM282.652 418.355L281.498 418.847L283.067 422.526L284.221 422.034L282.652 418.355ZM283.141 422.493L284.276 421.954L282.559 418.341L281.424 418.88L283.141 422.493ZM284.238 421.971C285.007 421.625 286.121 421.114 287.589 420.478L285.999 416.808C284.497 417.459 283.341 417.988 282.597 418.324L284.238 421.971ZM287.589 420.478C289.057 419.842 290.873 419.078 293.052 418.305L291.715 414.535C289.411 415.352 287.501 416.157 285.999 416.808L287.589 420.478ZM293.068 418.299C295.534 417.401 298.072 416.716 300.655 416.25L299.945 412.314C297.138 412.82 294.379 413.565 291.699 414.541L293.068 418.299ZM300.662 416.249C303.819 415.668 307.055 415.653 310.218 416.205L310.906 412.264C307.276 411.631 303.562 411.648 299.938 412.315L300.662 416.249ZM310.248 416.21C313.927 416.794 317.348 418.46 320.076 420.997L322.8 418.068C319.49 414.99 315.339 412.968 310.875 412.259L310.248 416.21ZM320.01 420.933C322.996 423.977 324.71 428.046 324.802 432.309L328.801 432.223C328.687 426.942 326.565 421.903 322.866 418.132L320.01 420.933ZM324.801 432.301C324.888 437.289 323.821 442.229 321.684 446.736L325.298 448.45C327.699 443.386 328.898 437.835 328.801 432.232L324.801 432.301ZM321.664 446.778C320.566 449.242 319.215 451.586 317.633 453.771L320.874 456.116C322.617 453.707 324.107 451.123 325.317 448.407L321.664 446.778ZM317.607 453.808L316.368 455.606L319.661 457.876L320.9 456.078L317.607 453.808ZM316.414 455.541L315.109 457.282L318.31 459.682L319.615 457.941L316.414 455.541ZM315.15 457.229C314.584 457.934 314.281 458.376 313.808 458.922L316.831 461.542C317.341 460.953 317.908 460.183 318.269 459.734L315.15 457.229ZM313.811 458.918L312.336 460.612L315.352 463.239L316.827 461.546L313.811 458.918ZM312.354 460.591C308.257 465.164 303.697 469.3 298.748 472.934L301.115 476.158C306.287 472.361 311.052 468.039 315.333 463.26L312.354 460.591ZM298.738 472.941C288.456 480.582 276.207 486.937 263.017 493.053L264.7 496.682C277.955 490.536 290.504 484.043 301.124 476.151L298.738 472.941ZM263.011 493.056C236.671 505.385 206.789 517.228 174.104 524.83L175.01 528.726C208.057 521.04 238.213 509.08 264.706 496.679L263.011 493.056ZM174.104 524.83C141.427 532.43 109.199 534.577 80.5157 530.615L79.9683 534.577C109.225 538.619 141.953 536.414 175.01 528.726L174.104 524.83ZM80.5334 530.617C73.6934 529.61 67.0858 527.399 61.0171 524.086L59.1004 527.597C65.5839 531.136 72.6431 533.499 79.9507 534.575L80.5334 530.617ZM61.0255 524.09C55.4025 520.986 50.7066 516.44 47.4201 510.92L43.9832 512.967C47.6328 519.096 52.8475 524.144 59.0921 527.592L61.0255 524.09ZM47.4394 510.954C46.6908 509.64 46.0503 508.267 45.5244 506.849L41.7741 508.24C42.3755 509.861 43.1078 511.431 43.9639 512.934L47.4394 510.954ZM45.5322 506.87C45.0293 505.465 44.6322 504.025 44.3443 502.561L40.4195 503.332C40.7458 504.992 41.196 506.626 41.7663 508.219L45.5322 506.87ZM44.3459 502.569C43.7967 499.713 43.647 496.795 43.9013 493.897L39.9166 493.548C39.63 496.814 39.7986 500.104 40.4179 503.324L44.3459 502.569ZM43.8993 493.92C44.1786 491.097 44.7272 488.308 45.5375 485.59L41.7042 484.447C40.8211 487.41 40.2232 490.449 39.9187 493.525L43.8993 493.92ZM45.5307 485.612C46.3449 482.993 47.3387 480.433 48.5049 477.951L44.8845 476.25C43.6401 478.899 42.5798 481.63 41.711 484.425L45.5307 485.612ZM48.4955 477.97C50.728 473.35 53.4149 468.963 56.5164 464.875L53.3298 462.457C50.0678 466.757 47.2419 471.37 44.8939 476.23L48.4955 477.97ZM56.5273 464.861C63.7016 455.225 72.2912 446.73 82.0049 439.664L79.6519 436.429C69.6121 443.733 60.734 452.513 53.3189 462.472L56.5273 464.861ZM82.0109 439.66C85.7685 436.905 89.6943 434.388 93.7653 432.122L91.8201 428.627C87.6037 430.973 83.5377 433.581 79.6459 436.434L82.0109 439.66ZM93.7801 432.114C95.1584 431.331 96.2226 430.761 96.9373 430.388C97.2946 430.202 97.5646 430.065 97.7428 429.976C97.8318 429.932 97.898 429.899 97.9406 429.879C97.9619 429.868 97.9773 429.861 97.9868 429.856C97.9916 429.854 97.9948 429.852 97.9966 429.851C97.9975 429.851 97.998 429.851 97.9981 429.851C97.9982 429.851 97.9982 429.851 97.998 429.851C97.998 429.851 97.9979 429.851 97.9978 429.851C97.9977 429.851 97.9976 429.851 97.9976 429.851C97.9975 429.851 97.9974 429.851 97.1339 428.047C96.2704 426.243 96.2703 426.243 96.2701 426.243C96.2701 426.243 96.27 426.243 96.2699 426.243C96.2697 426.243 96.2694 426.243 96.2692 426.244C96.2687 426.244 96.2681 426.244 96.2674 426.244C96.266 426.245 96.2643 426.246 96.2622 426.247C96.2579 426.249 96.2522 426.252 96.245 426.255C96.2305 426.262 96.2101 426.272 96.1838 426.285C96.1311 426.311 96.055 426.348 95.9558 426.398C95.7574 426.497 95.467 426.644 95.089 426.841C94.333 427.235 93.2266 427.828 91.8053 428.635L93.7801 432.114Z" fill="#85A9D8" mask="url(#path-51-inside-3_313_1060)"/>
<path d="M457.417 453.636L386.447 453.47C383.505 453.47 381.124 451.393 381.13 448.846C381.13 446.305 383.528 444.267 386.47 444.267L457.44 444.433C460.382 444.433 462.757 446.505 462.751 449.052C462.745 451.582 460.359 453.642 457.417 453.636Z" fill="url(#paint15_linear_313_1060)"/>
<path d="M457.417 442.441L386.447 442.281C383.505 442.281 381.124 440.204 381.13 437.657C381.13 435.11 383.528 433.078 386.47 433.078L457.44 433.238C460.382 433.238 462.757 435.316 462.751 437.863C462.745 440.392 460.359 442.447 457.417 442.441Z" fill="url(#paint16_linear_313_1060)"/>
<path d="M454.567 455.308L389.595 455.159C388.362 455.244 387.208 455.793 386.365 456.696C385.521 457.599 385.052 458.789 385.052 460.024C385.052 461.26 385.521 462.449 386.365 463.352C387.208 464.255 388.362 464.804 389.595 464.889H396.726L406.147 482.958C406.678 483.967 407.473 484.814 408.448 485.407C409.423 486 410.541 486.316 411.681 486.323L434.901 486.375C436.055 486.378 437.187 486.063 438.172 485.464C439.158 484.865 439.959 484.006 440.487 482.981L449.725 465.049H454.573C455.805 464.965 456.96 464.415 457.803 463.512C458.646 462.609 459.115 461.42 459.115 460.184C459.115 458.949 458.646 457.759 457.803 456.856C456.96 455.953 455.805 455.404 454.573 455.319L454.567 455.308Z" fill="url(#paint17_linear_313_1060)"/>
<path d="M476.882 379.713C476.882 379.713 476.705 379.988 476.356 380.497L474.81 382.786L473.683 384.481C473.271 385.104 472.864 385.82 472.395 386.575L470.907 389.036C470.363 389.906 469.894 390.896 469.333 391.898C469.058 392.413 468.761 392.94 468.486 393.478C468.343 393.752 468.2 394.05 468.051 394.302C467.902 394.554 467.782 394.874 467.645 395.166C467.072 396.339 466.5 397.564 465.927 398.852L464.245 402.967C463.713 404.415 463.186 405.938 462.642 407.511C461.54 410.906 460.64 414.364 459.947 417.865C459.164 421.814 458.781 425.831 458.802 429.856V429.953H458.71L382.961 429.993H382.841V429.873C382.045 421.007 379.734 412.344 376.007 404.261C374.056 399.973 371.805 395.829 369.271 391.858C367.989 389.838 366.627 387.852 365.179 385.9C363.731 383.948 362.151 382.088 360.6 380.177L360.411 379.948H360.714L360.606 380.177C353.51 371.053 348.668 360.383 346.475 349.036C346.165 347.582 345.977 346.105 345.748 344.629C345.656 343.884 345.587 343.14 345.507 342.396L345.393 341.252L345.318 340.107C345.278 339.357 345.21 338.608 345.187 337.852C345.164 337.097 345.187 336.341 345.141 335.563C345.095 334.784 345.141 334.052 345.141 333.273C345.141 332.495 345.141 331.751 345.21 330.984C345.556 324.843 346.652 318.767 348.472 312.892C353.756 296.323 364.719 282.151 379.43 272.874C382.934 270.666 386.615 268.752 390.436 267.151C394.187 265.591 398.065 264.352 402.026 263.448C409.703 261.679 417.613 261.148 425.457 261.874C429.231 262.231 432.973 262.868 436.652 263.78C440.227 264.7 443.733 265.871 447.143 267.283C450.435 268.7 453.63 270.333 456.707 272.17C459.664 273.989 462.5 275.998 465.195 278.186C470.29 282.373 474.803 287.222 478.616 292.603C482.14 297.563 485.025 302.947 487.201 308.628C487.774 309.968 488.169 311.341 488.638 312.681C489.107 314.02 489.416 315.382 489.783 316.687C490.086 318.038 490.418 319.36 490.681 320.693C490.796 321.357 490.916 322.01 491.03 322.662C491.145 323.315 491.271 323.961 491.339 324.614C492.045 329.481 492.266 334.406 491.998 339.317C491.531 347.205 489.791 354.965 486.846 362.297C485.768 364.96 484.542 367.56 483.172 370.086C481.959 372.273 480.848 374.093 479.898 375.489L478.633 377.349L477.66 378.648L476.865 379.713L477.632 378.648L478.593 377.326L479.853 375.455C480.791 374.035 481.89 372.232 483.092 370.046C484.45 367.517 485.667 364.915 486.738 362.251C491.463 350.306 492.988 337.335 491.162 324.62C491.093 323.967 490.967 323.326 490.853 322.674C490.738 322.021 490.618 321.369 490.498 320.71C490.24 319.394 489.926 318.078 489.599 316.704C489.273 315.33 488.867 314.031 488.455 312.698C488.043 311.364 487.585 309.991 487.018 308.657C484.841 302.997 481.957 297.635 478.433 292.7C474.625 287.348 470.121 282.527 465.04 278.363C462.349 276.189 459.522 274.19 456.575 272.376C453.509 270.546 450.323 268.923 447.04 267.517C443.643 266.112 440.15 264.947 436.589 264.032C432.922 263.121 429.191 262.488 425.429 262.137C417.614 261.416 409.735 261.949 402.089 263.717C398.143 264.617 394.281 265.852 390.545 267.408C386.739 269.01 383.073 270.924 379.584 273.132C364.914 282.404 353.995 296.564 348.758 313.11C346.944 318.963 345.853 325.015 345.507 331.133C345.467 331.888 345.461 332.644 345.439 333.422C345.416 334.201 345.376 334.927 345.41 335.683C345.444 336.438 345.439 337.188 345.456 337.938C345.473 338.688 345.542 339.437 345.587 340.181L345.656 341.326L345.771 342.471C345.851 343.209 345.925 343.953 346.017 344.691C346.24 346.162 346.429 347.633 346.732 349.081C348.916 360.384 353.736 371.013 360.8 380.102L360.983 380.337H360.686L360.8 380.102C362.363 381.997 363.971 383.851 365.379 385.826C366.787 387.8 368.195 389.78 369.477 391.806C372.02 395.786 374.275 399.942 376.225 404.243C379.969 412.355 382.292 421.049 383.093 429.947L382.967 429.827L458.716 429.867L458.624 429.964C458.614 425.929 459.009 421.902 459.803 417.945C460.493 414.435 461.388 410.969 462.482 407.563C463.054 405.989 463.564 404.467 464.102 403.019C464.64 401.571 465.246 400.214 465.819 398.898C466.391 397.581 467.003 396.385 467.536 395.218L467.942 394.353L468.383 393.529C468.675 392.991 468.955 392.465 469.236 391.95C469.808 390.937 470.277 389.946 470.821 389.088L472.321 386.633C472.79 385.877 473.202 385.162 473.62 384.543C474.038 383.925 474.427 383.364 474.764 382.867L476.333 380.577L476.905 379.805L476.882 379.713Z" fill="#EF4135"/>
<path d="M360.8 380.102C353.736 371.013 348.916 360.384 346.732 349.081C346.429 347.633 346.24 346.162 346.017 344.691C345.925 343.953 345.851 343.209 345.771 342.471L345.656 341.326L345.587 340.181C345.542 339.437 345.473 338.688 345.456 337.938C345.439 337.188 345.444 336.438 345.41 335.683C345.376 334.927 345.416 334.201 345.439 333.422C345.461 332.644 345.467 331.888 345.507 331.133C345.853 325.015 346.944 318.963 348.758 313.11C353.995 296.564 364.914 282.404 379.584 273.132C383.073 270.924 386.739 269.01 390.545 267.408C394.281 265.852 398.143 264.617 402.089 263.717C409.735 261.949 417.614 261.416 425.429 262.137C429.191 262.488 432.922 263.121 436.589 264.032C440.15 264.947 443.643 266.112 447.04 267.517C450.323 268.923 453.509 270.546 456.575 272.376C459.522 274.19 462.349 276.189 465.04 278.363C470.121 282.527 474.625 287.348 478.433 292.7C481.957 297.635 484.841 302.997 487.018 308.657C487.585 309.991 488.043 311.364 488.455 312.698C488.867 314.031 489.273 315.33 489.599 316.704C489.926 318.078 490.24 319.394 490.498 320.71C490.618 321.369 490.738 322.021 490.853 322.674C490.967 323.326 491.093 323.967 491.162 324.62C492.988 337.335 491.463 350.306 486.738 362.251C485.667 364.915 484.45 367.517 483.092 370.046C481.89 372.232 480.791 374.035 479.853 375.455L478.593 377.326L477.632 378.648L476.865 379.713L477.66 378.648L478.633 377.349L479.898 375.489C480.848 374.093 481.959 372.273 483.172 370.086C484.542 367.56 485.768 364.96 486.846 362.297C489.791 354.965 491.531 347.205 491.998 339.317C492.266 334.406 492.045 329.481 491.339 324.614C491.271 323.961 491.145 323.315 491.03 322.662C490.916 322.01 490.796 321.357 490.681 320.693C490.418 319.36 490.086 318.038 489.783 316.687C489.416 315.382 489.107 314.02 488.638 312.681C488.169 311.341 487.774 309.968 487.201 308.628C485.025 302.947 482.14 297.563 478.616 292.603C474.803 287.222 470.29 282.373 465.195 278.186C462.5 275.998 459.664 273.989 456.707 272.17C453.63 270.333 450.435 268.7 447.143 267.283C443.733 265.871 440.227 264.7 436.652 263.78C432.973 262.868 429.231 262.231 425.457 261.874C417.613 261.148 409.703 261.679 402.026 263.448C398.065 264.352 394.187 265.591 390.436 267.151C386.615 268.752 382.934 270.666 379.43 272.874C364.719 282.151 353.756 296.323 348.472 312.892C346.652 318.767 345.556 324.843 345.21 330.984C345.141 331.751 345.141 332.495 345.141 333.273C345.141 334.052 345.095 334.784 345.141 335.563C345.187 336.341 345.164 337.097 345.187 337.852C345.21 338.608 345.278 339.357 345.318 340.107L345.393 341.252L345.507 342.396C345.587 343.14 345.656 343.884 345.748 344.629C345.977 346.105 346.165 347.582 346.475 349.036C348.668 360.383 353.51 371.053 360.606 380.177L360.714 379.948H360.411L360.6 380.177C362.151 382.088 363.731 383.948 365.179 385.9C366.627 387.852 367.989 389.838 369.271 391.858C371.805 395.829 374.056 399.973 376.007 404.261C379.734 412.344 382.045 421.007 382.841 429.873V429.993H382.961L458.71 429.953H458.802V429.856C458.781 425.831 459.164 421.814 459.947 417.865C460.64 414.364 461.54 410.906 462.642 407.511C463.186 405.938 463.713 404.415 464.245 402.967L465.927 398.852C466.5 397.564 467.072 396.339 467.645 395.166C467.782 394.874 467.902 394.554 468.051 394.302C468.2 394.05 468.343 393.752 468.486 393.478C468.761 392.94 469.058 392.413 469.333 391.898C469.894 390.896 470.363 389.906 470.907 389.036L472.395 386.575C472.864 385.82 473.271 385.104 473.683 384.481L474.81 382.786L476.356 380.497C476.705 379.988 476.882 379.713 476.882 379.713L476.905 379.805L476.333 380.577L474.764 382.867C474.427 383.364 474.038 383.925 473.62 384.543C473.202 385.162 472.79 385.877 472.321 386.633L470.821 389.088C470.277 389.946 469.808 390.937 469.236 391.95C468.955 392.465 468.675 392.991 468.383 393.529L467.942 394.353L467.536 395.218C467.003 396.385 466.391 397.581 465.819 398.898C465.246 400.214 464.64 401.571 464.102 403.019C463.564 404.467 463.054 405.989 462.482 407.563C461.388 410.969 460.493 414.435 459.803 417.945C459.009 421.902 458.614 425.929 458.624 429.964L458.716 429.867L382.967 429.827L383.093 429.947C382.292 421.049 379.969 412.355 376.225 404.243C374.275 399.942 372.02 395.786 369.477 391.806C368.195 389.78 366.787 387.8 365.379 385.826C363.971 383.851 362.363 381.997 360.8 380.102ZM360.8 380.102L360.983 380.337H360.686L360.8 380.102Z" stroke="#F28078" stroke-width="0.57234"/>
<path d="M355.626 359.641C355.597 359.591 355.576 359.537 355.563 359.481C355.518 359.355 355.466 359.195 355.397 358.994C355.249 358.548 355.048 357.924 354.791 357.129L354.356 355.778C354.213 355.28 354.087 354.73 353.938 354.147C353.652 352.968 353.268 351.64 353.022 350.14C352.885 349.39 352.742 348.606 352.587 347.788C352.433 346.969 352.364 346.105 352.244 345.212C351.975 343.438 351.889 341.527 351.757 339.489C351.587 335.116 351.778 330.736 352.33 326.394C352.949 322.061 353.923 317.787 355.243 313.614C355.907 311.708 356.502 309.888 357.235 308.245C357.59 307.421 357.893 306.608 358.253 305.858L359.301 303.706C359.936 302.321 360.663 301.142 361.247 300.083C361.55 299.563 361.819 299.065 362.088 298.624L362.867 297.434L363.948 295.797L364.234 295.379C364.303 295.282 364.337 295.236 364.343 295.241C364.349 295.247 364.343 295.293 364.263 295.396L364 295.831L362.964 297.496L362.208 298.693C361.945 299.139 361.687 299.643 361.396 300.169C360.823 301.234 360.108 302.413 359.49 303.804L358.459 305.956C358.11 306.705 357.813 307.518 357.464 308.342C356.742 309.979 356.159 311.776 355.506 313.699C354.213 317.861 353.256 322.119 352.645 326.434C352.091 330.758 351.887 335.12 352.032 339.478C352.158 341.481 352.232 343.392 352.49 345.161C352.604 346.048 352.673 346.912 352.816 347.731C352.959 348.549 353.097 349.328 353.234 350.077C353.457 351.583 353.806 352.939 354.098 354.084C354.241 354.656 354.362 355.228 354.493 355.721C354.625 356.213 354.779 356.665 354.9 357.077C355.134 357.878 355.323 358.508 355.472 358.954L355.609 359.446C355.625 359.51 355.631 359.576 355.626 359.641Z" fill="#F28078"/>
<path d="M377.49 282.604C376.244 283.874 374.929 285.073 373.552 286.199C372.239 287.401 370.857 288.527 369.414 289.57C370.661 288.3 371.977 287.1 373.357 285.975C374.67 284.774 376.049 283.649 377.49 282.604Z" fill="#F28078"/>
<path d="M477.689 367.946C477.689 367.946 477.689 367.9 477.74 367.814L477.912 367.442L478.593 366.034L479.091 365.021C479.268 364.649 479.44 364.231 479.663 363.791C480.041 362.904 480.516 361.913 480.934 360.774L481.621 358.994C481.855 358.376 482.056 357.718 482.285 357.043C482.765 355.698 483.16 354.227 483.601 352.682C484.482 349.317 485.144 345.899 485.581 342.448C485.977 338.991 486.151 335.511 486.102 332.032C486.039 330.429 486.011 328.901 485.862 327.453C485.799 326.743 485.759 326.056 485.679 325.398C485.598 324.74 485.513 324.11 485.438 323.509C485.307 322.302 485.083 321.22 484.929 320.276C484.843 319.801 484.774 319.354 484.694 318.948C484.614 318.541 484.522 318.181 484.448 317.849L484.122 316.315C484.093 316.155 484.065 316.023 484.047 315.914C484.04 315.869 484.04 315.823 484.047 315.777C484.067 315.819 484.082 315.864 484.093 315.909C484.122 316.017 484.156 316.143 484.196 316.304C484.294 316.676 484.419 317.179 484.58 317.82L484.849 318.919C484.94 319.326 485.015 319.766 485.106 320.241C485.278 321.191 485.518 322.273 485.679 323.481L485.942 325.37C486.028 326.033 486.073 326.72 486.142 327.436C486.302 328.855 486.342 330.389 486.411 332.014C486.587 339.01 485.743 345.993 483.904 352.745C483.452 354.29 483.046 355.766 482.554 357.111C482.313 357.787 482.113 358.445 481.867 359.063L481.163 360.837C480.734 361.982 480.247 362.966 479.852 363.848C479.646 364.289 479.469 364.701 479.28 365.073L478.753 366.074L478.021 367.459L477.826 367.814C477.789 367.867 477.743 367.911 477.689 367.946Z" fill="#F28078"/>
<path d="M329.874 602.975L314.58 678.089L254.694 698.887C253.725 699.283 252.938 700.025 252.484 700.968C252.03 701.911 251.942 702.989 252.237 703.993L317.848 682.518L320.08 681.649L397.801 655.345L404.378 619.791L413.126 577.972C413.321 577.422 413.362 576.828 413.245 576.256C413.127 575.683 412.856 575.154 412.461 574.724C412.065 574.294 411.56 573.98 410.999 573.815C410.438 573.651 409.843 573.642 409.278 573.79L331.843 600.543C331.33 600.739 330.877 601.067 330.532 601.494C330.186 601.921 329.959 602.432 329.874 602.975Z" fill="url(#paint18_linear_313_1060)"/>
<path d="M409.279 573.791C409.308 573.917 409.317 574.047 409.304 574.176C409.243 574.486 409.187 574.86 409.121 575.332C408.932 576.391 408.673 577.875 408.359 579.748C407.645 583.645 406.635 589.206 405.387 596.054C402.792 609.984 399.193 629.296 395.11 651.104L395.126 651.345L394.885 651.361L383.613 655.201L322.917 675.68L304.491 681.788L299.472 683.419L298.16 683.81L297.7 683.92C297.834 683.842 297.976 683.779 298.123 683.732L299.414 683.261L304.391 681.489L322.719 675.113L383.335 654.397L394.625 650.572L394.34 650.896C398.519 629.097 402.216 609.795 404.893 595.893C406.236 589.006 407.312 583.474 408.106 579.571C408.485 577.709 408.797 576.303 409.014 575.178C409.113 574.72 409.186 574.345 409.263 574.05C409.341 573.754 409.279 573.791 409.279 573.791Z" fill="#162141"/>
<path d="M334.136 605.099L320.232 673.549L390.622 649.235L402.358 581.892L334.136 605.099Z" fill="#162141"/>
<path d="M279.504 588.732C279.698 588.864 279.848 589.051 279.936 589.269C280.023 589.487 280.045 589.726 279.997 589.956C279.95 590.186 279.835 590.397 279.668 590.562C279.501 590.727 279.289 590.839 279.059 590.884C278.828 590.929 278.59 590.905 278.373 590.814C278.156 590.724 277.971 590.572 277.84 590.376C277.71 590.181 277.64 589.952 277.64 589.717C277.639 589.482 277.708 589.252 277.838 589.057C277.924 588.924 278.036 588.81 278.168 588.722C278.299 588.633 278.447 588.572 278.602 588.542C278.757 588.512 278.917 588.513 279.072 588.545C279.227 588.578 279.374 588.641 279.504 588.732Z" fill="#85A9D8"/>
<path d="M338.172 539.509C338.219 539.74 338.196 539.98 338.106 540.198C338.016 540.416 337.864 540.603 337.668 540.734C337.472 540.865 337.242 540.936 337.006 540.936C336.77 540.936 336.54 540.867 336.344 540.736C336.148 540.605 335.995 540.419 335.904 540.201C335.814 539.983 335.79 539.744 335.836 539.513C335.882 539.281 335.996 539.069 336.162 538.902C336.329 538.736 336.541 538.622 336.773 538.576C337.082 538.515 337.403 538.579 337.665 538.754C337.928 538.928 338.11 539.2 338.172 539.509Z" fill="#85A9D8"/>
<path d="M313.789 572.068C315.254 569.227 314.139 565.735 311.297 564.269C308.455 562.804 304.963 563.919 303.498 566.761C302.032 569.603 303.148 573.095 305.99 574.56C308.832 576.026 312.323 574.91 313.789 572.068Z" fill="#85A9D8"/>
<path d="M59.148 620.252L60.056 621.769C61.0738 623.487 62.5664 624.876 64.3543 625.767L65.9454 626.55L64.4293 627.433C62.7236 628.454 61.3495 629.947 60.4725 631.731L59.6811 633.314L58.7732 631.798C57.747 630.096 56.2556 628.723 54.4748 627.841L52.8838 627.058L54.4082 626.142C56.1076 625.116 57.48 623.628 58.365 621.852L59.148 620.252Z" fill="#85A9D8"/>
<path d="M352.975 322.227L353.883 323.743C354.909 325.445 356.401 326.818 358.182 327.7L359.764 328.483L358.248 329.391C356.546 330.417 355.174 331.909 354.291 333.689L353.508 335.28L352.6 333.764C351.579 332.059 350.086 330.684 348.302 329.807L346.711 329.024L348.227 328.108C349.933 327.087 351.307 325.594 352.184 323.81L352.975 322.227Z" fill="#85A9D8"/>
<path d="M363.413 345.76L364.204 347.076C365.095 348.554 366.39 349.748 367.936 350.516L369.319 351.199L368.003 352.032C366.522 352.924 365.328 354.222 364.562 355.772L363.879 357.147L363.096 355.789C362.205 354.308 360.907 353.114 359.356 352.349L357.973 351.707L359.29 350.874C360.768 349.983 361.962 348.689 362.73 347.142L363.413 345.76Z" fill="#85A9D8"/>
<path d="M41.5545 603.118L42.1959 604.192C42.9211 605.397 43.9762 606.368 45.2364 606.991L46.361 607.549L45.2864 608.191C44.082 608.916 43.1107 609.971 42.4875 611.231L41.9293 612.356L41.2879 611.281C40.5538 610.075 39.4902 609.104 38.2225 608.482L37.0979 607.924L38.1725 607.283C39.3768 606.558 40.3482 605.502 40.9714 604.242L41.5545 603.118Z" fill="#85A9D8"/>
<path d="M353.691 503.832L354.341 504.906C355.064 506.112 356.12 507.084 357.381 507.705L358.506 508.263L357.431 508.905C356.225 509.627 355.253 510.683 354.632 511.945L354.074 513.07L353.425 511.995C352.7 510.793 351.648 509.822 350.392 509.196L349.268 508.646L350.342 507.997C351.545 507.269 352.516 506.215 353.141 504.956L353.691 503.832Z" fill="#85A9D8"/>
<path d="M30.7252 385.161L31.3749 386.227C32.0953 387.435 33.1518 388.408 34.4154 389.026L35.5317 389.584L34.4654 390.234C33.2571 390.954 32.2846 392.01 31.6665 393.274L31.1084 394.39L30.4836 393.357C29.7584 392.153 28.7033 391.182 27.4431 390.559L26.3269 390.009L27.3932 389.359C28.6018 388.637 29.5765 387.581 30.2004 386.319L30.7252 385.161Z" fill="#85A9D8"/>
<path d="M22.9771 115.024L23.6936 116.218C24.4965 117.555 25.6677 118.633 27.067 119.323L28.3208 119.94L27.1267 120.666C25.7867 121.469 24.7055 122.64 24.012 124.04L23.3951 125.283L22.6786 124.099C21.8723 122.758 20.698 121.677 19.2953 120.985L18.0514 120.368L19.2455 119.651C20.5833 118.844 21.661 117.67 22.3502 116.268L22.9771 115.024Z" fill="#F28078"/>
<path d="M281.275 246.069L281.991 247.263C282.797 248.601 283.967 249.681 285.365 250.377L286.619 250.994L285.424 251.711C284.084 252.517 283.003 253.691 282.31 255.094L281.693 256.338L280.976 255.144C280.168 253.808 278.999 252.729 277.603 252.029L276.349 251.412L277.543 250.696C278.883 249.893 279.964 248.722 280.658 247.322L281.275 246.069Z" fill="#F28078"/>
<path d="M140.976 0L141.692 1.19412C142.495 2.53418 143.666 3.61531 145.066 4.30879L146.319 4.92575L145.125 5.64222C143.796 6.43145 142.716 7.58009 142.011 8.95591L141.394 10.2097L140.677 9.01562C139.871 7.67486 138.697 6.5938 137.294 5.90095L136.05 5.28399L137.244 4.56752C138.579 3.762 139.657 2.59155 140.349 1.19412L140.976 0Z" fill="#F28078"/>
<path d="M308.93 112.447L309.646 113.641C310.452 114.981 311.627 116.062 313.03 116.755L314.273 117.372L313.079 118.089C311.744 118.894 310.667 120.065 309.975 121.462L309.358 122.716L308.641 121.522C307.835 120.181 306.661 119.1 305.258 118.407L304.014 117.79L305.198 117.074C306.536 116.268 307.616 115.098 308.313 113.7L308.93 112.447Z" fill="#F28078"/>
<path d="M301.128 78.613L301.646 79.4788C302.232 80.4577 303.089 81.2458 304.113 81.7476L305.029 82.2054L304.153 82.7228C303.177 83.3119 302.39 84.1683 301.884 85.1907L301.437 86.1062L300.909 85.2305C300.32 84.254 299.464 83.4667 298.441 82.9616L297.536 82.5138L298.402 81.9864C299.381 81.4004 300.169 80.5432 300.67 79.5186L301.128 78.613Z" fill="#F28078"/>
<path d="M3.59232 137.483L4.10977 138.349C4.69736 139.329 5.55388 140.12 6.57762 140.628L7.49311 141.075L6.61742 141.593C5.64517 142.187 4.85911 143.042 4.34859 144.061L3.9008 144.976L3.37339 144.101C2.78433 143.124 1.92794 142.337 0.905539 141.832L0 141.384L0.865734 140.857C1.84468 140.271 2.63277 139.413 3.13456 138.389L3.59232 137.483Z" fill="#F28078"/>
<path d="M326.284 84.0063L326.582 84.5039C326.92 85.0612 327.411 85.5101 327.995 85.7975L328.523 86.0563L328.025 86.3548C327.456 86.6864 326.995 87.1776 326.702 87.7678L326.443 88.2952L326.145 87.7977C325.81 87.2353 325.319 86.7824 324.732 86.4941L324.214 86.2354L324.712 85.9368C325.269 85.599 325.718 85.1087 326.005 84.5238L326.284 84.0063Z" fill="#F28078"/>
<defs>
<linearGradient id="paint0_linear_313_1060" x1="161.114" y1="62.9573" x2="161" y2="462.5" gradientUnits="userSpaceOnUse">
<stop stop-color="#2B407E"/>
<stop offset="1" stop-color="#162141" stop-opacity="0"/>
</linearGradient>
<linearGradient id="paint1_linear_313_1060" x1="114.027" y1="28.0444" x2="114.027" y2="100.634" gradientUnits="userSpaceOnUse">
<stop stop-color="#FF725E"/>
<stop offset="1" stop-color="#FF725E" stop-opacity="0"/>
</linearGradient>
<linearGradient id="paint2_linear_313_1060" x1="275.088" y1="259.842" x2="275.088" y2="367.38" gradientUnits="userSpaceOnUse">
<stop stop-color="#FF725E"/>
<stop offset="1" stop-color="#FF725E" stop-opacity="0"/>
</linearGradient>
<linearGradient id="paint3_linear_313_1060" x1="277.536" y1="263.187" x2="277.536" y2="365.133" gradientUnits="userSpaceOnUse">
<stop stop-color="#FF725E"/>
<stop offset="1" stop-color="#FF725E" stop-opacity="0"/>
</linearGradient>
<linearGradient id="paint4_linear_313_1060" x1="274.241" y1="289.048" x2="274.241" y2="334.834" gradientUnits="userSpaceOnUse">
<stop stop-color="#FF725E"/>
<stop offset="1" stop-color="#FF725E" stop-opacity="0"/>
</linearGradient>
<linearGradient id="paint5_linear_313_1060" x1="267.595" y1="312.344" x2="286.556" y2="315.428" gradientUnits="userSpaceOnUse">
<stop stop-color="#FF725E"/>
<stop offset="1" stop-color="#FF725E" stop-opacity="0"/>
</linearGradient>
<linearGradient id="paint6_linear_313_1060" x1="418.094" y1="276.44" x2="418.094" y2="633.58" gradientUnits="userSpaceOnUse">
<stop stop-color="#2B407E"/>
<stop offset="1" stop-color="#141E3C" stop-opacity="0"/>
</linearGradient>
<linearGradient id="paint7_linear_313_1060" x1="519.27" y1="501.506" x2="519.112" y2="703.692" gradientUnits="userSpaceOnUse">
<stop stop-color="#FF655E"/>
<stop offset="1" stop-color="#FF725E" stop-opacity="0"/>
</linearGradient>
<linearGradient id="paint8_linear_313_1060" x1="240.143" y1="117.03" x2="225.961" y2="211.554" gradientUnits="userSpaceOnUse">
<stop stop-color="#0051BA"/>
<stop offset="1" stop-color="#0051BA" stop-opacity="0"/>
</linearGradient>
<linearGradient id="paint9_linear_313_1060" x1="134.5" y1="161" x2="115.5" y2="195.5" gradientUnits="userSpaceOnUse">
<stop stop-color="#22315B"/>
<stop offset="1" stop-color="#22315B" stop-opacity="0"/>
</linearGradient>
<linearGradient id="paint10_linear_313_1060" x1="86.7441" y1="198.604" x2="63.3673" y2="363.8" gradientUnits="userSpaceOnUse">
<stop stop-color="#EF4135"/>
<stop offset="1" stop-color="#F28078" stop-opacity="0"/>
</linearGradient>
<linearGradient id="paint11_linear_313_1060" x1="105.122" y1="416.191" x2="102.163" y2="454.152" gradientUnits="userSpaceOnUse">
<stop stop-color="#F28078"/>
<stop offset="1" stop-color="#F28078" stop-opacity="0"/>
</linearGradient>
<linearGradient id="paint12_linear_313_1060" x1="76.7915" y1="386.564" x2="60.3827" y2="405.216" gradientUnits="userSpaceOnUse">
<stop stop-color="#F28078"/>
<stop offset="1" stop-color="#F28078" stop-opacity="0"/>
</linearGradient>
<linearGradient id="paint13_linear_313_1060" x1="84.2972" y1="403.63" x2="84.2972" y2="428.241" gradientUnits="userSpaceOnUse">
<stop stop-color="#F28078"/>
<stop offset="1" stop-color="#F28078" stop-opacity="0"/>
</linearGradient>
<linearGradient id="paint14_linear_313_1060" x1="138.033" y1="362.863" x2="127.919" y2="399.207" gradientUnits="userSpaceOnUse">
<stop stop-color="#F28078"/>
<stop offset="1" stop-color="#F28078" stop-opacity="0"/>
</linearGradient>
<linearGradient id="paint15_linear_313_1060" x1="421.94" y1="444.267" x2="421.94" y2="453.636" gradientUnits="userSpaceOnUse">
<stop stop-color="#0051BA"/>
<stop offset="1" stop-color="#0051BA" stop-opacity="0"/>
</linearGradient>
<linearGradient id="paint16_linear_313_1060" x1="421.94" y1="433.078" x2="421.94" y2="442.441" gradientUnits="userSpaceOnUse">
<stop stop-color="#0051BA"/>
<stop offset="1" stop-color="#0051BA" stop-opacity="0"/>
</linearGradient>
<linearGradient id="paint17_linear_313_1060" x1="422.084" y1="455.159" x2="422.084" y2="486.375" gradientUnits="userSpaceOnUse">
<stop stop-color="#0051BA"/>
<stop offset="1" stop-color="#0051BA" stop-opacity="0"/>
</linearGradient>
<linearGradient id="paint18_linear_313_1060" x1="328.742" y1="578.947" x2="264.901" y2="719.584" gradientUnits="userSpaceOnUse">
<stop stop-color="#F28078"/>
<stop offset="1" stop-color="#F28078" stop-opacity="0"/>
</linearGradient>
<clipPath id="clip0_313_1060">
<rect width="143.492" height="131.756" fill="white" transform="translate(397.364 501.004) rotate(0.235626)"/>
</clipPath>
</defs>
</svg>
