<svg width="460" height="503" viewBox="0 0 460 503" fill="none" xmlns="http://www.w3.org/2000/svg">
<path d="M39.809 398.201L40.6508 399.583C41.5842 401.149 42.953 402.41 44.5903 403.211L46.0365 403.935L44.655 404.777C43.0895 405.711 41.8294 407.081 41.0286 408.719L40.3055 410.166L39.496 408.827C38.5564 407.266 37.1893 406.006 35.5566 405.198L34.1104 404.486L35.4918 403.643C37.0578 402.707 38.3207 401.338 39.129 399.702L39.809 398.201Z" fill="#85A9D8"/>
<path d="M29.7702 47.9976L30.6985 49.5456C31.7388 51.2795 33.2562 52.6768 35.0693 53.5705L36.6938 54.3704L35.1466 55.3121C33.4104 56.3527 32.0096 57.8707 31.1111 59.6853L30.3117 61.2979L29.3835 59.7628C28.3388 58.0246 26.8173 56.6231 24.9998 55.7249L23.3882 54.9251L24.9353 53.9963C26.6687 52.9502 28.065 51.4277 28.958 49.6101L29.7702 47.9976Z" fill="#F28078"/>
<path d="M364.434 217.883L365.363 219.431C366.406 221.165 367.922 222.566 369.733 223.469L371.358 224.269L369.811 225.197C368.074 226.243 366.673 227.765 365.775 229.583L364.976 231.196L364.048 229.648C363 227.917 361.485 226.517 359.677 225.61L358.052 224.81L359.599 223.881C361.336 222.841 362.736 221.323 363.635 219.508L364.434 217.883Z" fill="#F28078"/>
<path d="M400.266 44.6562L401.194 46.2043C402.239 47.9425 403.76 49.3439 405.578 50.2421L407.189 51.042L405.642 51.9708C403.912 53.0151 402.516 54.5324 401.619 56.344L400.82 57.9695L399.892 56.4214C398.847 54.6833 397.326 53.2818 395.508 52.3836L393.896 51.5838L395.431 50.6549C397.164 49.6109 398.564 48.0938 399.466 46.2817L400.266 44.6562Z" fill="#85A9D8"/>
<path d="M390.157 0.794678L390.828 1.91702C391.587 3.18612 392.698 4.20778 394.025 4.85831L395.211 5.45173L394.077 6.12255C392.812 6.88621 391.792 7.99641 391.137 9.32185L390.557 10.5087L389.874 9.37346C389.11 8.10762 388.001 7.08695 386.676 6.43216L385.503 5.85164L386.625 5.16792C387.893 4.40825 388.914 3.29697 389.564 1.96862L390.157 0.794678Z" fill="#F28078"/>
<path d="M4.65439 77.1135L5.32483 78.2359C6.08614 79.5065 7.1959 80.5318 8.52231 81.1901L9.70847 81.7706L8.57387 82.4414C7.31417 83.2117 6.29571 84.3201 5.63426 85.6407L5.05408 86.8275L4.37075 85.6923C3.60752 84.4265 2.49795 83.4058 1.17326 82.751L0 82.1705L1.12169 81.4868C2.39007 80.7271 3.41115 79.6158 4.0613 78.2875L4.65439 77.1135Z" fill="#F28078"/>
<path d="M422.751 7.78662L423.137 8.43164C423.575 9.15408 424.21 9.73602 424.968 10.1087L425.652 10.4441L425.007 10.8311C424.269 11.261 423.673 11.8978 423.292 12.663L422.957 13.3467L422.57 12.7017C422.137 11.9726 421.5 11.3854 420.739 11.0117L420.069 10.6763L420.714 10.2893C421.436 9.85131 422.017 9.21565 422.39 8.45745L422.751 7.78662Z" fill="#85A9D8"/>
<path d="M268.17 420.062L269.098 421.61C270.139 423.344 271.656 424.741 273.469 425.635L275.094 426.435L273.547 427.377C271.81 428.417 270.41 429.935 269.511 431.75L268.712 433.362L267.783 431.827C266.739 430.089 265.217 428.688 263.4 427.789L261.788 426.99L263.335 426.061C265.069 425.015 266.465 423.492 267.358 421.675L268.17 420.062Z" fill="#85A9D8"/>
<path d="M243.054 449.178L243.725 450.3C244.486 451.571 245.596 452.596 246.922 453.255L248.108 453.835L246.974 454.506C245.714 455.276 244.696 456.385 244.034 457.705L243.454 458.892L242.771 457.757C242.007 456.491 240.898 455.47 239.573 454.815L238.4 454.235L239.522 453.551C240.79 452.792 241.811 451.68 242.461 450.352L243.054 449.178Z" fill="#F28078"/>
<g clip-path="url(#clip0_474_6038)">
<rect x="338" y="242" width="123" height="141" rx="9.15743" fill="url(#paint0_linear_474_6038)"/>
<rect x="39" y="112" width="123" height="190" rx="9.15743" fill="url(#paint1_linear_474_6038)"/>
<path d="M169.598 342C169.349 342 169.349 272.522 169.598 186.848C169.847 101.175 170.256 31.6968 170.505 31.6968C170.753 31.6968 170.771 101.157 170.505 186.866C170.238 272.575 169.864 342 169.598 342Z" fill="#BCCEE6"/>
<path d="M266.92 379.341C266.621 379.341 266.621 301.572 266.92 205.649C267.218 109.725 267.656 31.9358 267.935 31.9358C268.214 31.9358 268.233 109.686 267.935 205.649C267.636 301.612 267.119 379.341 266.92 379.341Z" fill="#BCCEE6"/>
<path d="M364.45 196C364.353 196 364.353 168.913 364.45 135.503C364.547 102.094 364.706 75 364.803 75C364.9 75 364.907 102.08 364.803 135.503C364.699 168.927 364.568 196 364.45 196Z" fill="#BCCEE6"/>
<path d="M452.734 115.558C452.734 115.675 391.235 115.775 315.375 115.775C239.516 115.775 178 115.675 178 115.558C178 115.441 239.499 115.341 315.375 115.341C391.252 115.341 452.734 115.432 452.734 115.558Z" fill="#BCCEE6"/>
<path d="M347 204.574C347 204.651 306.483 204.717 256.506 204.717C206.528 204.717 166 204.651 166 204.574C166 204.497 206.517 204.431 256.506 204.431C306.494 204.431 347 204.491 347 204.574Z" fill="#BCCEE6"/>
<path d="M332 293.57C332 293.618 308.272 293.654 279.003 293.654C249.735 293.654 226 293.618 226 293.57C226 293.522 249.728 293.486 279.003 293.486C308.278 293.486 332 293.525 332 293.57Z" fill="#BCCEE6"/>
<path d="M177.939 31C177.939 31 170.773 100.35 180.308 114.881L252.325 110.501L248.503 33.4683L177.939 31Z" fill="url(#paint2_linear_474_6038)"/>
<path d="M177.939 31C177.939 31 178.437 91.3327 181.522 109.725L257.162 106.142C257.162 106.142 250.513 46.8446 253.081 31H177.939Z" fill="#F28078"/>
<path d="M215.202 39.5395H215.48H216.296C217.347 39.4975 218.4 39.5507 219.441 39.6987C221.108 39.9313 222.731 40.4075 224.258 41.112C226.273 42.1123 228.056 43.5225 229.494 45.2522C231.229 47.3805 232.466 49.8696 233.116 52.5376C233.697 55.6709 233.422 58.9029 232.32 61.893C231.755 63.5141 231.042 65.0799 230.19 66.5707C229.294 68.097 228.483 69.672 227.762 71.2883C226.262 74.709 225.238 78.3188 224.716 82.0172V82.276H224.477L217.013 82.3954L209.17 82.5148H208.892V82.2361C208.562 78.5448 207.317 74.9939 205.269 71.9053C204.353 70.3527 203.278 68.8996 202.442 67.4266C201.464 66.0369 200.573 64.5877 199.775 63.0873C198.383 60.2274 197.97 56.9889 198.601 53.8712C199.04 51.1894 200.029 48.6276 201.507 46.347C202.785 44.5039 204.475 42.984 206.443 41.9082C207.9 41.1018 209.461 40.499 211.081 40.1167C212.095 39.8671 213.127 39.6941 214.167 39.5992H215.261H214.983H214.186C213.157 39.7164 212.138 39.9161 211.141 40.1963C209.546 40.6067 208.012 41.2293 206.583 42.0475C204.685 43.1275 203.058 44.625 201.825 46.4266C200.396 48.6763 199.447 51.1974 199.039 53.8314C198.455 56.8546 198.874 59.9859 200.233 62.7489C201.028 64.2276 201.912 65.6568 202.88 67.0286C203.796 68.4816 204.871 69.9347 205.727 71.5072C207.847 74.6724 209.134 78.3216 209.469 82.1167L209.19 81.838L217.013 81.6987L224.477 81.5992L224.219 81.838C224.733 78.08 225.779 74.414 227.324 70.9499C228.062 69.3218 228.886 67.7338 229.792 66.1925C230.633 64.7336 231.339 63.2013 231.902 61.6143C232.994 58.7125 233.283 55.5699 232.738 52.5176C232.118 49.908 230.928 47.4677 229.255 45.3717C227.864 43.6691 226.136 42.273 224.179 41.2712C222.686 40.5513 221.097 40.0486 219.461 39.7783C218.435 39.607 217.397 39.5205 216.356 39.5195H215.261L215.202 39.5395Z" fill="#2A3E7A"/>
<path d="M219.063 81.5591V81.3202V80.6236L218.645 77.9165C218.307 75.5676 217.809 72.1639 217.471 67.9639C217.471 66.889 217.312 65.7942 217.272 64.6397C217.232 63.4852 217.172 62.271 217.272 61.0169C217.297 59.7133 217.581 58.4277 218.108 57.2349C218.685 55.9524 219.711 54.9256 220.994 54.3487C221.683 54.0675 222.438 53.9912 223.169 54.1289C223.9 54.2666 224.575 54.6125 225.114 55.125C225.66 55.6469 225.982 56.3608 226.01 57.1155C225.986 57.9024 225.714 58.6616 225.234 59.2852C224.747 59.9122 224.119 60.4165 223.403 60.7581C222.69 61.1043 221.933 61.3521 221.153 61.4947C219.589 61.8319 217.996 62.0185 216.396 62.052C214.787 62.1195 213.175 62.0463 211.579 61.833C210.796 61.708 210.033 61.4804 209.31 61.1563C208.561 60.8449 207.884 60.3843 207.319 59.8027C206.777 59.2536 206.398 58.5644 206.224 57.8122C206.058 57.0545 206.149 56.2629 206.483 55.5629C206.811 54.8762 207.377 54.3316 208.076 54.0302C208.413 53.8774 208.78 53.7983 209.15 53.7983C209.521 53.7983 209.888 53.8774 210.225 54.0302C210.871 54.3342 211.426 54.8006 211.838 55.3837C212.228 55.9902 212.498 56.6659 212.634 57.3743C212.874 58.6477 213.001 59.94 213.012 61.2359C213.151 63.724 213.271 66.0529 213.39 68.1629C213.589 72.4027 213.768 75.8264 213.888 78.1155C213.888 79.2899 213.888 80.2056 214.007 80.8425V81.5591V81.798C214.003 81.7184 214.003 81.6387 214.007 81.5591V80.8425C214.007 80.2056 213.908 79.2899 213.828 78.1155C213.689 75.7468 213.49 72.3231 213.251 68.1629C213.131 66.033 213.012 63.724 212.873 61.2359C212.838 59.9537 212.705 58.676 212.475 57.4141C212.328 56.768 212.065 56.1541 211.698 55.6027C211.323 55.04 210.8 54.5922 210.185 54.3089C209.878 54.156 209.543 54.0682 209.201 54.0511C208.858 54.034 208.516 54.0879 208.195 54.2093C207.549 54.4894 207.031 55.0005 206.742 55.6425C206.42 56.2892 206.328 57.0268 206.483 57.7326C206.636 58.4838 207.002 59.175 207.538 59.7231C208.599 60.8217 210.004 61.5241 211.519 61.7136C213.095 61.9268 214.687 62.0001 216.277 61.9326C217.869 61.8959 219.454 61.716 221.014 61.3951C221.77 61.2341 222.504 60.987 223.204 60.6586C223.889 60.3382 224.489 59.8608 224.955 59.2653C225.393 58.6914 225.644 57.9962 225.672 57.2747C225.686 56.9038 225.621 56.5341 225.48 56.1907C225.34 55.8472 225.126 55.5381 224.856 55.2842C224.351 54.7967 223.714 54.4673 223.025 54.3365C222.335 54.2056 221.623 54.2791 220.974 54.5477C219.745 55.1007 218.76 56.085 218.207 57.3146C217.687 58.4823 217.396 59.7393 217.351 61.0169C217.351 62.271 217.351 63.4653 217.351 64.6198C217.351 65.7743 217.351 66.889 217.531 67.9439C217.849 72.1638 218.327 75.5676 218.625 77.8965C218.785 79.0709 218.924 79.8871 219.004 80.6036L219.103 81.3202C219.094 81.4005 219.081 81.4803 219.063 81.5591Z" fill="#2A3E7A"/>
<path d="M209.11 81.9574C209.11 81.9574 209.21 82.8929 209.309 84.4654C209.409 86.0379 209.528 88.4465 209.648 91.0142V90.855L214.744 96.8266L214.485 96.727L220.456 96.3886L220.198 96.5081L223.124 92.9251L224.597 91.1536V91.3725C224.597 87.9289 224.457 84.6645 224.378 81.6787L224.696 81.9772L213.708 82.0967H210.524C210.126 82.124 209.727 82.124 209.329 82.0967C209.68 82.0632 210.033 82.0632 210.384 82.0967L213.489 81.9374L224.676 81.4995H224.995V81.818C224.995 84.8038 225.174 88.0683 225.273 91.5119V91.6512H225.174C224.696 92.2284 224.198 92.8256 223.721 93.4426C222.706 94.6569 221.73 95.8512 220.775 97.0057L220.675 97.1251H220.516L214.544 97.4038H214.385V97.2844L209.389 91.3128V91.2133C209.389 88.6057 209.389 86.3763 209.389 84.5052C209.11 82.7536 209.11 81.9175 209.11 81.9574Z" fill="#2A3E7A"/>
<path d="M224.318 90.4769C224.125 90.416 223.938 90.336 223.761 90.238C223.402 90.0788 222.885 89.8598 222.228 89.6409C220.519 89.0553 218.719 88.779 216.913 88.8248C215.107 88.8823 213.327 89.2667 211.658 89.9593C211.148 90.1624 210.649 90.3951 210.165 90.656L209.628 90.9148C209.779 90.7818 209.946 90.6682 210.126 90.5764C210.59 90.282 211.076 90.0226 211.579 89.8001C213.261 89.0527 215.073 88.6403 216.913 88.5859C218.745 88.5395 220.57 88.8436 222.288 89.4816C222.807 89.6719 223.312 89.8981 223.8 90.1584C223.986 90.2417 224.16 90.3488 224.318 90.4769Z" fill="#2A3E7A"/>
<path d="M224.318 88.128L223.761 87.8891C223.402 87.7299 222.885 87.5109 222.228 87.272C220.517 86.6941 218.718 86.4245 216.913 86.4758C215.107 86.5333 213.327 86.9178 211.658 87.6104C211.144 87.805 210.645 88.0379 210.165 88.3071C209.996 88.4125 209.816 88.4992 209.628 88.5659C209.628 88.5659 209.787 88.4265 210.126 88.2275C210.585 87.9254 211.072 87.6656 211.579 87.4512C214.968 85.9415 218.815 85.8271 222.288 87.1327C222.809 87.3182 223.315 87.5445 223.8 87.8095C223.986 87.8928 224.16 87.9998 224.318 88.128Z" fill="#2A3E7A"/>
<path d="M224.179 85.8787C223.986 85.8178 223.799 85.7378 223.621 85.6398C223.263 85.4806 222.746 85.2616 222.089 85.0427C220.38 84.4571 218.58 84.1808 216.774 84.2266C214.968 84.2841 213.188 84.6685 211.519 85.3611C211.008 85.5642 210.51 85.7969 210.026 86.0578L209.489 86.3365C209.489 86.3365 209.648 86.1773 209.986 85.9782C210.455 85.6916 210.941 85.4324 211.439 85.2019C214.829 83.6922 218.676 83.5778 222.148 84.8834C222.666 85.0775 223.172 85.3035 223.661 85.5602C223.847 85.6435 224.021 85.7506 224.179 85.8787Z" fill="#2A3E7A"/>
<g clip-path="url(#clip1_474_6038)">
<path d="M361.526 205.403C361.526 205.403 349.78 204.009 347 209.05C347 209.05 349.379 215.456 361.021 214.981L361.526 205.403Z" fill="#2E427C"/>
<path d="M360.515 203.193L359.34 216.316L373.48 217.695C373.48 217.695 379.294 218.169 385.999 225.361C392.705 232.552 395.352 235.829 395.352 235.829L398.4 187.758L389.107 196.447C387.261 198.164 385.14 199.562 382.832 200.584C380.038 201.956 377.073 202.953 374.015 203.549C369.512 203.731 365.002 203.612 360.515 203.193Z" fill="url(#paint3_linear_474_6038)"/>
<path opacity="0.4" d="M397.389 205.284L604.715 212.846V225.687L396.616 217.428L397.389 205.284Z" fill="white"/>
<path d="M464.841 251.211L464.886 251.192L465.613 275.675C465.548 275.711 465.46 275.757 465.352 275.815C465.085 275.956 464.691 276.163 464.184 276.423C463.171 276.943 461.705 277.675 459.9 278.525C456.289 280.224 451.321 282.39 445.891 284.26C440.46 286.13 434.576 287.7 429.13 288.213C423.678 288.727 418.707 288.177 415.064 285.852C413.768 285.021 412.665 283.609 411.733 281.744C410.803 279.88 410.053 277.583 409.454 275.008C408.255 269.857 407.665 263.626 407.413 257.6C407.16 251.577 407.246 245.768 407.394 241.464C407.468 239.313 407.558 237.538 407.63 236.302C407.666 235.683 407.697 235.2 407.719 234.871C407.725 234.777 407.731 234.696 407.735 234.627L425.362 235.276L425.364 235.361C425.371 235.582 425.38 235.906 425.393 236.318C425.418 237.142 425.456 238.32 425.505 239.735C425.602 242.565 425.745 246.345 425.923 250.14C426.102 253.935 426.317 257.748 426.56 260.646C426.681 262.094 426.81 263.318 426.945 264.199C427.013 264.638 427.084 265 427.158 265.264C427.195 265.395 427.235 265.512 427.282 265.605C427.32 265.683 427.392 265.808 427.524 265.865C427.592 265.895 427.662 265.899 427.709 265.9C427.762 265.9 427.82 265.895 427.878 265.887C427.996 265.871 428.142 265.839 428.311 265.796C428.65 265.709 429.108 265.567 429.662 265.381C430.773 265.008 432.292 264.449 434.079 263.766C437.653 262.398 442.308 260.528 446.925 258.643C451.542 256.757 456.124 254.856 459.55 253.427C461.263 252.712 462.688 252.115 463.685 251.697C464.183 251.488 464.574 251.323 464.841 251.211Z" fill="#162141" stroke="#F28078" stroke-width="0.54"/>
<path d="M537.97 299.914L556.674 276.59L533.688 253.474C529.269 248.877 523.837 245.369 517.823 243.228C514.892 242.192 511.828 241.578 508.724 241.404V239.551L498.643 239.743C498.643 239.743 498.123 241.33 497.572 243.124C497.037 244.607 496.77 247.483 496.086 247.483C495.402 247.483 494.42 244.518 493.439 243.035L491.714 239.58L482.407 239.135V241.463C476.313 242.251 470.388 244.019 464.862 246.698L430.531 260.576L441.533 290.839L464.817 283.025C464.669 283.44 464.505 283.855 464.386 284.285C463.671 286.817 463.643 289.493 464.307 292.039C464.971 294.585 466.301 296.908 468.163 298.772L467.717 323.178V350L528.543 356.422L520.44 321.325L524.127 286.539L537.97 299.914Z" fill="#F28078"/>
<path d="M447.243 288.615C446.531 287.229 445.925 285.792 445.429 284.315C444.299 281.424 442.872 277.836 441.311 273.862L436.999 263.482C436.324 262.079 435.757 260.627 435.304 259.138C436.157 260.442 436.889 261.822 437.489 263.26C438.738 265.855 440.374 269.502 442.024 273.639C443.675 277.776 444.998 281.468 445.95 284.211C446.52 285.635 446.953 287.11 447.243 288.615Z" fill="#263238"/>
<path d="M398.37 187.758L604.714 196.047V243.495L395.322 235.829L398.37 187.758Z" fill="url(#paint4_linear_474_6038)"/>
</g>
<path d="M280 259L297 270.5C307 255.167 330.5 223.5 344.5 219.5" stroke="url(#paint5_linear_474_6038)" stroke-width="2" stroke-linecap="round"/>
</g>
<g clip-path="url(#clip2_474_6038)">
<path d="M-39.1588 149.343L-45.9447 159.604L-76.52 170.446L-67.7596 259.202L-71.0349 305.738C-71.4738 311.919 -66.3335 316.799 -64.1864 316.971H33.683C36.0807 316.971 39.3404 311.009 39.7479 307.73C40.0739 304.774 39.8129 301.783 38.98 298.928L33.9024 281.12C34.6546 292.197 31.3479 215.067 31.2225 212.259L38.6195 172.579L3.82847 158.459L-1.54689 150.143L-17.2185 162.067L-39.1588 149.343Z" fill="#455A64"/>
<path d="M38.5729 172.58C38.5729 172.58 45.5781 178.73 46.7535 183.421C47.9288 188.112 73.0818 242.681 73.0818 242.681L85.6191 246.07L88.9572 252.989C90.9264 256.983 91.456 261.536 90.4564 265.877C89.4568 270.217 86.9894 274.078 83.4721 276.806C83.0401 277.134 82.5902 277.438 82.1243 277.716C75.3699 281.733 63.2244 281.576 56.1565 273.229C49.449 265.384 29.8438 236.844 29.8438 236.844V201.951L38.5729 172.58Z" fill="url(#paint6_linear_474_6038)"/>
<path d="M73.8494 242.712C72.5776 242.894 71.3167 243.145 70.0725 243.465C67.157 244.47 64.5755 246.262 62.6128 248.643C60.684 251.074 59.1018 253.762 57.9113 256.629C57.4623 257.86 56.89 259.043 56.2031 260.159C56.3906 258.854 56.7599 257.581 57.3001 256.378C58.3772 253.351 59.9676 250.533 62.0016 248.047C64.0682 245.53 66.8588 243.711 69.9941 242.838C71.2402 242.424 72.5791 242.381 73.8494 242.712Z" fill="#462631"/>
<path d="M117.479 233.597L117.46 233.866L117.46 233.866C122.883 234.25 128.321 234.36 133.755 234.196L133.762 234.196L133.769 234.195C136.155 233.993 138.41 234.119 140.026 234.495C140.838 234.684 141.467 234.931 141.871 235.215C142.274 235.498 142.406 235.779 142.365 236.051C142.247 236.833 141.986 237.393 141.317 237.814C140.619 238.254 139.453 238.561 137.47 238.725C136.176 238.832 134.623 238.869 133.094 238.905C132.279 238.924 131.471 238.944 130.713 238.973C129.632 239.015 128.652 239.079 127.918 239.197C127.552 239.256 127.233 239.331 126.988 239.43C126.761 239.522 126.519 239.666 126.438 239.914C126.335 240.228 126.355 240.534 126.514 240.801C126.668 241.06 126.932 241.248 127.254 241.38C127.894 241.641 128.859 241.72 130.044 241.6C131.192 241.485 134.494 241.441 137.621 241.582C139.182 241.652 140.69 241.768 141.855 241.943C142.439 242.03 142.928 242.131 143.292 242.245C143.474 242.302 143.617 242.36 143.723 242.417C143.825 242.473 143.874 242.518 143.893 242.544C144.054 242.822 144.152 243.133 144.18 243.454C144.208 243.778 144.164 244.105 144.05 244.41C143.937 244.715 143.757 244.99 143.524 245.217C143.29 245.444 143.01 245.616 142.702 245.72L142.699 245.721L140.129 246.631L139.782 246.754L117.479 233.597ZM117.479 233.597C117.46 233.866 117.459 233.866 117.459 233.866L117.459 233.866L117.459 233.866L117.457 233.866L117.449 233.865L117.422 233.863C117.399 233.861 117.365 233.858 117.322 233.853C117.236 233.845 117.114 233.831 116.966 233.81C116.67 233.769 116.268 233.701 115.846 233.591C115.427 233.482 114.977 233.33 114.592 233.118C114.211 232.908 113.862 232.622 113.69 232.23L113.69 232.229C113.294 231.313 113.74 230.4 114.489 229.576C115.247 228.743 116.39 227.914 117.602 227.119C118.21 226.719 118.841 226.326 119.456 225.942L119.469 225.934C120.08 225.553 120.675 225.182 121.22 224.823C121.77 224.461 122.264 224.115 122.671 223.787C123.08 223.456 123.387 223.155 123.573 222.885L123.581 222.872L123.591 222.86C124.239 222.116 124.595 221.162 124.595 220.174C124.595 219.187 124.239 218.233 123.592 217.489C123.526 217.414 123.399 217.357 123.142 217.378C122.885 217.4 122.55 217.498 122.145 217.669C121.338 218.009 120.326 218.603 119.236 219.294C118.613 219.689 117.975 220.109 117.341 220.526C116.864 220.84 116.388 221.154 115.922 221.454C114.848 222.146 113.834 222.764 113.03 223.127L113.021 223.131L113.012 223.134C107.884 225.014 103.112 227.75 98.8979 231.227C97.1767 232.813 95.8851 234.809 95.1438 237.03C94.4063 239.24 94.2375 241.6 94.6527 243.891L100.2 253.95C100.295 253.955 100.432 253.961 100.606 253.97C100.963 253.987 101.476 254.013 102.101 254.047C103.351 254.114 105.051 254.213 106.849 254.338C108.647 254.462 110.545 254.613 112.19 254.785C113.821 254.955 115.223 255.148 116.032 255.361C120.97 256.185 126.011 256.185 130.95 255.36C131.788 255.155 132.337 254.968 132.691 254.79C133.047 254.612 133.171 254.46 133.218 254.343C133.267 254.221 133.259 254.076 133.208 253.837C133.198 253.79 133.186 253.739 133.174 253.686C133.129 253.49 133.073 253.251 133.055 252.993C133.05 252.988 133.041 252.98 133.025 252.969C132.972 252.931 132.877 252.886 132.73 252.841C132.437 252.751 132.006 252.681 131.47 252.628C130.4 252.522 128.971 252.489 127.519 252.477C126.995 252.472 126.468 252.47 125.956 252.468C125.053 252.465 124.194 252.461 123.475 252.444C122.91 252.431 122.422 252.409 122.06 252.371C121.879 252.351 121.72 252.327 121.595 252.296C121.533 252.28 121.471 252.26 121.416 252.234C121.366 252.21 121.293 252.169 121.24 252.094C120.933 251.661 121.103 251.16 121.266 250.851C121.353 250.686 121.454 250.544 121.531 250.444C121.57 250.394 121.604 250.353 121.629 250.325C121.641 250.311 121.651 250.299 121.658 250.291L121.667 250.282L121.67 250.279L121.671 250.278L121.671 250.278L121.671 250.278C121.671 250.278 121.671 250.278 121.867 250.463L121.671 250.278L121.754 250.19L121.875 250.193L136.403 250.617L136.419 250.617L136.434 250.62L136.435 250.62M117.479 233.597L136.435 250.62M136.435 250.62L136.435 250.62L136.44 250.62L136.462 250.623C136.481 250.626 136.509 250.629 136.547 250.634C136.621 250.642 136.731 250.653 136.866 250.663C137.137 250.682 137.512 250.697 137.925 250.676C138.768 250.633 139.705 250.448 140.291 249.931C140.823 249.461 140.798 248.795 140.582 248.161C140.477 247.851 140.331 247.571 140.211 247.367C140.151 247.266 140.098 247.185 140.06 247.129C140.042 247.102 140.027 247.081 140.017 247.067L140.006 247.052L140.003 247.048L140.003 247.048L140.003 247.048L140.003 247.048L136.435 250.62Z" fill="#162141" stroke="#F28078" stroke-width="0.54"/>
<path d="M81.7636 273.009C81.3721 272.976 80.9924 272.858 80.6509 272.664C79.6681 272.238 78.7459 271.684 77.9084 271.016C75.0631 268.821 73.1169 265.661 72.4358 262.131C71.7546 258.6 72.3856 254.941 74.2098 251.844C74.7432 250.914 75.3908 250.055 76.1375 249.286C76.6703 248.768 77.0151 248.517 77.0621 248.564C77.1091 248.611 75.9651 249.82 74.7897 252.157C73.2126 255.172 72.7087 258.635 73.3611 261.975C74.0134 265.315 75.7832 268.332 78.3785 270.53C80.2904 272.24 81.8419 272.852 81.7636 273.009Z" fill="#462631"/>
<path d="M116.273 228.168C116.367 228.278 115.599 229.031 114.596 230.349C114.025 231.097 113.633 231.967 113.452 232.89C113.232 233.942 113.248 235.181 113.06 236.515C112.9 237.672 112.512 238.785 111.917 239.79C111.322 240.795 110.533 241.671 109.597 242.367C108.876 243.006 107.97 243.396 107.011 243.481C107.011 243.324 107.951 242.948 109.189 241.912C110.792 240.501 111.842 238.566 112.151 236.452C112.241 235.221 112.398 233.995 112.621 232.781C112.864 231.746 113.366 230.791 114.079 230.004C115.285 228.607 116.194 228.058 116.273 228.168Z" fill="#F28078"/>
<path d="M118.858 244.893C118.858 244.626 123.701 244.893 129.625 245.317C135.549 245.74 140.344 246.415 140.329 246.682C136.729 246.844 133.121 246.697 129.546 246.242C125.952 246.1 122.376 245.648 118.858 244.893Z" fill="#F28078"/>
<path d="M76.8116 248.706L94.787 238.084L103.453 248.706L101.651 253.852L78.4885 271.11C75.6317 268.749 73.7228 265.434 73.1131 261.775C71.9377 255.295 76.8116 248.706 76.8116 248.706Z" fill="#162141"/>
</g>
<defs>
<linearGradient id="paint0_linear_474_6038" x1="399.5" y1="242" x2="399.465" y2="399.741" gradientUnits="userSpaceOnUse">
<stop stop-color="#F28078"/>
<stop offset="1" stop-color="#BC6660" stop-opacity="0"/>
</linearGradient>
<linearGradient id="paint1_linear_474_6038" x1="100.5" y1="112" x2="100.436" y2="324.558" gradientUnits="userSpaceOnUse">
<stop stop-color="#2A3E79"/>
<stop offset="1" stop-color="#293D77" stop-opacity="0"/>
</linearGradient>
<linearGradient id="paint2_linear_474_6038" x1="213.84" y1="31" x2="213.84" y2="114.881" gradientUnits="userSpaceOnUse">
<stop stop-color="#D7D9DE"/>
<stop offset="1" stop-color="#D7D9DE" stop-opacity="0"/>
</linearGradient>
<linearGradient id="paint3_linear_474_6038" x1="363" y1="212" x2="391" y2="232" gradientUnits="userSpaceOnUse">
<stop stop-color="#85A9D8"/>
<stop offset="1" stop-color="#85A9D8" stop-opacity="0"/>
</linearGradient>
<linearGradient id="paint4_linear_474_6038" x1="420" y1="234" x2="419.5" y2="173.5" gradientUnits="userSpaceOnUse">
<stop stop-color="#FF725E"/>
<stop offset="1" stop-color="#FF725E" stop-opacity="0"/>
</linearGradient>
<linearGradient id="paint5_linear_474_6038" x1="312.25" y1="219.5" x2="312.25" y2="270.5" gradientUnits="userSpaceOnUse">
<stop stop-color="#2E427C"/>
<stop offset="1" stop-color="#F28078"/>
</linearGradient>
<linearGradient id="paint6_linear_474_6038" x1="60.3967" y1="172.58" x2="112" y2="323" gradientUnits="userSpaceOnUse">
<stop stop-color="#C76E6B"/>
<stop offset="1" stop-color="#C76E6B" stop-opacity="0"/>
</linearGradient>
<clipPath id="clip0_474_6038">
<rect width="420" height="356.303" fill="white" transform="translate(40 31)"/>
</clipPath>
<clipPath id="clip1_474_6038">
<rect width="113" height="172" fill="white" transform="translate(347 178)"/>
</clipPath>
<clipPath id="clip2_474_6038">
<rect width="105" height="273" fill="white" transform="translate(40 56)"/>
</clipPath>
</defs>
</svg>
