<svg width="182" height="200" viewBox="0 0 182 200" fill="none" xmlns="http://www.w3.org/2000/svg">
<g id="Frame 34">
<g id="freepik--Calendar--inject-34">
<path id="Vector" d="M2.12044 50.2698C2.12044 50.2698 -6.68389 145.322 11.6628 175.881L174.841 177.808C174.841 177.808 147.813 95.415 150.154 47.7832L2.12044 50.2698Z" fill="#85A9D8"/>
<path id="Vector_2" d="M2.12054 50.2698C2.12054 50.2698 -8.22091 148.283 24.0021 169.229H181.267C181.267 169.229 153.355 121.381 151.155 50.2698H2.12054Z" fill="url(#paint0_linear_408_2529)"/>
<path id="Vector_3" d="M154.318 27.3494H1.32129V51.8821H154.318V27.3494Z" fill="url(#paint1_linear_408_2529)"/>
<path id="Vector_4" d="M14.9956 27.5421C14.9956 27.5421 16.5374 22 22.1594 22C26.9494 22 29.3232 25.8451 29.3232 29.3706C29.3232 32.8961 27.1468 36.6238 22.1594 36.8917" stroke="#0051BA" stroke-width="3" stroke-linecap="round" stroke-linejoin="round"/>
<path id="Vector_5" d="M20.2695 27.2646H12.7202V30.635H20.2695V27.2646Z" fill="#0051BA"/>
<path id="Vector_6" d="M44.0596 27.5421C44.0596 27.5421 45.6014 22 51.2234 22C56.0133 22 58.3872 25.8451 58.3872 29.3706C58.3872 32.8961 56.2108 36.6238 51.2234 36.8917" stroke="#0051BA" stroke-width="3" stroke-linecap="round" stroke-linejoin="round"/>
<path id="Vector_7" d="M49.3383 27.2646H41.7891V30.635H49.3383V27.2646Z" fill="#0051BA"/>
<path id="Vector_8" d="M73.1289 27.5421C73.1289 27.5421 74.6707 22 80.2927 22C85.0827 22 87.4565 25.8451 87.4565 29.3706C87.4565 32.8961 85.2801 36.6238 80.2927 36.8917" stroke="#0051BA" stroke-width="3" stroke-linecap="round" stroke-linejoin="round"/>
<path id="Vector_9" d="M78.4028 27.2646H70.8535V30.635H78.4028V27.2646Z" fill="#0051BA"/>
<path id="Vector_10" d="M102.193 27.5421C102.193 27.5421 103.735 22 109.357 22C114.147 22 116.52 25.8451 116.52 29.3706C116.52 32.8961 114.344 36.6238 109.357 36.8917" stroke="#0051BA" stroke-width="3" stroke-linecap="round" stroke-linejoin="round"/>
<path id="Vector_11" d="M107.472 27.2646H99.9224V30.635H107.472V27.2646Z" fill="#0051BA"/>
<path id="Vector_12" d="M131.262 27.5421C131.262 27.5421 132.804 22 138.426 22C143.215 22 145.589 25.8451 145.589 29.3706C145.589 32.8961 143.413 36.6238 138.426 36.8917" stroke="#0051BA" stroke-width="3" stroke-linecap="round" stroke-linejoin="round"/>
<path id="Vector_13" d="M136.536 27.2646H128.986V30.635H136.536V27.2646Z" fill="#0051BA"/>
<path id="Vector_14" d="M1.33515 52.7939C1.33515 52.7939 -0.357086 162.023 35.0483 162.023L180.482 162.075C180.482 162.075 159.696 140.866 153.538 52.7939H1.33515Z" fill="url(#paint2_linear_408_2529)"/>
<path id="Vector_15" d="M159.734 148.542C159.701 148.448 159.546 148.006 159.202 147.047C158.859 146.088 158.328 144.621 157.694 142.694C156.391 138.863 154.572 133.199 152.49 125.88C148.302 111.252 143.253 89.934 139.328 63.662L139.427 63.7466H16.1144H14.9392L15.0615 63.6056C17.2802 79.4186 19.56 94.8321 23.25 109.268C25.0176 116.325 27.2522 123.256 29.939 130.017C32.4892 136.423 35.5809 142.6 39.1805 148.481L39.0865 148.429L159.729 148.542L39.0865 148.65H39.0254L38.9925 148.598C35.3805 142.715 32.2763 136.535 29.7134 130.125C27.0226 123.356 24.7833 116.417 23.0103 109.352C19.3109 94.8979 17.031 79.4797 14.8076 63.662V63.521H16.1238L139.436 63.5445H139.521V63.6291C143.427 89.9011 148.452 111.219 152.598 125.847C154.666 133.171 156.462 138.84 157.769 142.675C159.076 146.511 159.673 148.349 159.734 148.542Z" fill="white"/>
<path id="Vector_16" d="M146.67 106.029C146.67 106.099 118.899 106.151 84.6498 106.151C50.4008 106.151 22.6011 106.099 22.6011 106.029C22.6011 105.958 50.3679 105.907 84.6498 105.907C118.932 105.907 146.67 105.954 146.67 106.029Z" fill="white"/>
<path id="Vector_17" d="M153.355 128.719C153.355 128.785 125.574 128.841 91.306 128.841C57.0382 128.841 29.2573 128.785 29.2573 128.719C29.2573 128.653 57.0288 128.597 91.306 128.597C125.583 128.597 153.355 128.649 153.355 128.719Z" fill="white"/>
<path id="Vector_18" d="M142.473 84.1662C142.473 84.232 114.701 84.2884 80.452 84.2884C46.203 84.2884 18.4033 84.232 18.4033 84.1662C18.4033 84.1004 46.1701 84.0439 80.452 84.0439C114.734 84.0439 142.473 84.0956 142.473 84.1662Z" fill="white"/>
<path id="Vector_19" d="M59.2991 148.542C59.2991 148.542 59.2709 148.471 59.2239 148.33C59.1769 148.189 59.1064 147.968 59.0218 147.7C58.8432 147.132 58.5893 146.314 58.2603 145.27C57.6022 143.16 56.6809 140.099 55.5668 136.306C53.3528 128.719 50.4196 118.199 47.5757 106.476C46.1655 100.614 44.901 95.0059 43.8152 89.8916C42.7293 84.7773 41.8409 80.1565 41.1499 76.2597C40.7879 74.3136 40.4918 72.5509 40.2098 71.0044C39.9277 69.4578 39.7397 68.1229 39.5611 67.0323C39.3824 65.9418 39.2649 65.1003 39.1756 64.5175C39.138 64.2354 39.1051 64.0192 39.0816 63.8594C39.0581 63.6995 39.0581 63.6384 39.0581 63.6384C39.0795 63.7094 39.0968 63.7816 39.1098 63.8547C39.138 64.0145 39.1756 64.2307 39.2273 64.5081L39.6551 67.0135C39.8337 68.1041 40.0687 69.439 40.3461 70.9809C40.6234 72.5227 40.929 74.2713 41.2862 76.2268C42.0007 80.1142 42.9315 84.7256 44.0032 89.8587C45.075 94.9918 46.3535 100.572 47.7637 106.433C50.5841 118.152 53.5032 128.677 55.6749 136.273C56.7655 140.066 57.6586 143.136 58.2932 145.256C58.5987 146.309 58.8385 147.136 59.0077 147.696L59.1863 148.335C59.285 148.467 59.2991 148.542 59.2991 148.542Z" fill="white"/>
<path id="Vector_20" d="M83.3666 148.542C83.3666 148.542 83.3384 148.471 83.2914 148.326L83.094 147.696L82.3513 145.261C81.7073 143.15 80.8048 140.09 79.7048 136.287C77.5237 128.691 74.5717 118.176 71.7137 106.462C68.8557 94.7475 66.5853 84.0535 65.1939 76.2739C64.8366 74.3326 64.5264 72.5698 64.282 71.0186C64.0375 69.4674 63.8119 68.1371 63.6474 67.0418C63.4828 65.9466 63.3653 65.1146 63.2807 64.527C63.2431 64.2449 63.2149 64.0287 63.1914 63.8689C63.1679 63.7091 63.1538 63.6479 63.1538 63.6479C63.1538 63.6479 63.1538 63.7185 63.2008 63.8689L63.3136 64.5176C63.4123 65.1052 63.5487 65.9278 63.7273 67.0277C63.9059 68.1277 64.1315 69.4533 64.3995 70.9998C64.6674 72.5463 64.9824 74.2902 65.3396 76.2457C66.7733 84.0112 69.0343 94.6958 71.9205 106.405C74.8067 118.114 77.7117 128.63 79.8505 136.236L82.4265 145.237C82.7274 146.29 82.9577 147.118 83.1222 147.682L83.2961 148.321C83.3249 148.393 83.3485 148.467 83.3666 148.542Z" fill="white"/>
<path id="Vector_21" d="M108.515 148.542C108.485 148.473 108.458 148.402 108.435 148.33C108.388 148.175 108.318 147.968 108.229 147.7L107.462 145.27C106.79 143.164 105.855 140.099 104.713 136.339C102.456 128.761 99.4055 118.27 96.4911 106.56C93.5767 94.8509 91.358 84.124 90.0794 76.3397C89.755 74.3936 89.4683 72.6261 89.2521 71.0702C89.0358 69.5143 88.829 68.1793 88.7021 67.0794C88.5752 65.9794 88.4671 65.1427 88.3966 64.5504C88.3637 64.2731 88.3401 64.0521 88.3213 63.8923C88.3025 63.7325 88.3213 63.6714 88.3213 63.6714C88.3213 63.6714 88.3213 63.7419 88.3589 63.8923L88.4577 64.5457C88.5423 65.1333 88.6598 65.9559 88.8102 67.0653C88.9606 68.1746 89.1628 69.5002 89.4025 71.0514C89.6422 72.6026 89.929 74.3654 90.2627 76.3115C91.5883 84.1052 93.807 94.8039 96.7402 106.504C99.6734 118.204 102.677 128.705 104.896 136.292C106.019 140.076 106.931 143.136 107.566 145.265C107.876 146.318 108.121 147.146 108.29 147.71C108.368 147.979 108.429 148.191 108.473 148.344C108.501 148.467 108.515 148.542 108.515 148.542Z" fill="white"/>
<path id="Vector_22" d="M133.664 148.542C133.633 148.473 133.607 148.402 133.584 148.33L133.372 147.7C133.184 147.136 132.902 146.323 132.578 145.28C131.891 143.178 130.923 140.109 129.757 136.348C127.407 128.79 124.276 118.317 121.296 106.617C119.792 100.769 118.476 95.1659 117.442 90.0375C116.887 87.4803 116.45 85.0313 116.031 82.7467C115.834 81.5998 115.644 80.4936 115.463 79.4281C115.279 78.3657 115.11 77.341 114.992 76.3632C113.742 68.5366 113.451 63.6479 113.451 63.6479C113.451 63.6479 113.451 63.7232 113.484 63.8689C113.516 64.0146 113.531 64.2449 113.563 64.527C113.629 65.1193 113.719 65.9701 113.841 67.0606C113.963 68.1512 114.137 69.5003 114.339 71.0562C114.541 72.6121 114.809 74.3843 115.105 76.335C115.246 77.3128 115.425 78.3375 115.613 79.3999C115.801 80.4622 115.994 81.5669 116.191 82.7138C116.638 84.9936 117.084 87.438 117.639 89.9905C118.706 95.1095 120.013 100.713 121.512 106.56C124.497 118.251 127.623 128.729 129.908 136.297L132.662 145.251C132.987 146.3 133.24 147.132 133.414 147.686C133.494 147.959 133.555 148.156 133.602 148.321C133.649 148.485 133.664 148.542 133.664 148.542Z" fill="white"/>
<path id="Vector_23" d="M89.4447 108.375C89.4447 108.337 89.6844 108.281 90.1545 108.248C90.8469 108.225 91.5392 108.295 92.2133 108.454C93.2913 108.704 94.3163 109.144 95.2406 109.752C96.486 110.558 97.5271 111.643 98.2819 112.92C99.1912 114.492 99.6696 116.275 99.6686 118.091C99.6762 119.097 99.5498 120.099 99.2925 121.071C99.0085 122.105 98.5746 123.092 98.0046 124C96.7113 126.012 94.8509 127.596 92.6583 128.552C90.4656 129.509 88.0388 129.794 85.6841 129.372C83.2395 128.955 80.9782 127.808 79.1972 126.082C77.5512 124.448 76.4553 122.341 76.0619 120.056C75.6911 118.005 75.8861 115.893 76.626 113.945C77.2731 112.251 78.3761 110.769 79.813 109.663C80.9792 108.759 82.3206 108.107 83.7522 107.749C84.8251 107.47 85.9383 107.378 87.0426 107.477C87.2558 107.488 87.4679 107.514 87.6772 107.557C87.8746 107.59 88.058 107.613 88.2272 107.655C88.5609 107.749 88.843 107.815 89.0639 107.905C89.5011 108.083 89.722 108.196 89.7079 108.234C89.6703 108.351 88.7678 107.961 87.0191 107.952C85.9778 107.949 84.9423 108.107 83.9496 108.422C82.6386 108.82 81.4206 109.477 80.3677 110.354C79.1005 111.399 78.1404 112.768 77.5896 114.316C76.9597 116.095 76.8201 118.011 77.1853 119.863C77.5608 121.901 78.5555 123.774 80.0339 125.226C81.6504 126.769 83.6921 127.793 85.8957 128.164C88.0923 128.567 90.3597 128.286 92.392 127.361C94.2893 126.502 95.9056 125.125 97.055 123.388C97.5783 122.583 97.9821 121.706 98.2537 120.784C98.5042 119.908 98.6385 119.002 98.6532 118.091C98.6837 116.454 98.2971 114.836 97.5298 113.39C96.8738 112.192 95.9583 111.157 94.8504 110.358C94.0112 109.742 93.0778 109.266 92.0864 108.948C90.4412 108.403 89.44 108.487 89.4447 108.375Z" fill="white"/>
<path id="Vector_24" d="M87.3672 112.102L89.2051 114.739C89.2787 114.848 89.3782 114.937 89.4948 114.998C89.6113 115.059 89.7412 115.089 89.8726 115.087H93.0879C93.2393 115.086 93.3879 115.128 93.517 115.207C93.646 115.287 93.7503 115.4 93.8183 115.536C93.8862 115.671 93.9149 115.823 93.9013 115.973C93.8877 116.124 93.8323 116.268 93.7413 116.389L91.7999 118.951C91.7208 119.056 91.6684 119.178 91.6471 119.307C91.6258 119.437 91.6363 119.569 91.6777 119.694L92.6883 122.745C92.7365 122.888 92.7433 123.042 92.7082 123.189C92.6731 123.337 92.5973 123.471 92.4896 123.577C92.3818 123.684 92.2464 123.757 92.0987 123.791C91.951 123.824 91.797 123.815 91.6542 123.765L88.6176 122.712C88.4929 122.67 88.3602 122.659 88.2303 122.678C88.1004 122.698 87.977 122.748 87.8701 122.824L85.2801 124.733C85.1582 124.823 85.0136 124.877 84.8626 124.888C84.7117 124.9 84.5605 124.869 84.4263 124.799C84.292 124.729 84.1802 124.622 84.1034 124.492C84.0267 124.361 83.9881 124.212 83.9921 124.061L84.0532 120.85C84.0555 120.718 84.0259 120.588 83.967 120.47C83.9081 120.352 83.8215 120.25 83.7148 120.173L81.1059 118.293C80.9874 118.205 80.8956 118.086 80.8404 117.949C80.7852 117.811 80.7689 117.662 80.7932 117.516C80.8175 117.37 80.8814 117.234 80.978 117.123C81.0747 117.011 81.2002 116.928 81.3409 116.883L84.4199 115.943C84.5453 115.904 84.6594 115.835 84.7527 115.743C84.846 115.65 84.9156 115.537 84.9557 115.411L85.9288 112.351C85.9715 112.205 86.0543 112.075 86.1677 111.973C86.2811 111.872 86.4206 111.805 86.5704 111.779C86.7201 111.753 86.8742 111.769 87.015 111.827C87.1559 111.884 87.2779 111.979 87.3672 112.102Z" fill="white"/>
</g>
</g>
<defs>
<linearGradient id="paint0_linear_408_2529" x1="90.9037" y1="50.2698" x2="163.5" y2="204" gradientUnits="userSpaceOnUse">
<stop stop-color="#0051BA"/>
<stop offset="1" stop-color="#0051BA" stop-opacity="0"/>
</linearGradient>
<linearGradient id="paint1_linear_408_2529" x1="86.9966" y1="51.9401" x2="87.8058" y2="25.2368" gradientUnits="userSpaceOnUse">
<stop stop-color="#EF4135"/>
<stop offset="1" stop-color="#EF4135" stop-opacity="0"/>
</linearGradient>
<linearGradient id="paint2_linear_408_2529" x1="90.9021" y1="52.7939" x2="90.9021" y2="162.075" gradientUnits="userSpaceOnUse">
<stop stop-color="#0051BA"/>
<stop offset="1" stop-color="#0051BA" stop-opacity="0"/>
</linearGradient>
</defs>
</svg>
