<svg width="182" height="200" viewBox="0 0 182 200" fill="none" xmlns="http://www.w3.org/2000/svg">
<g id="Frame 34">
<g id="freepik--Calendar--inject-34">
<path id="Vector" d="M2.1202 50.2698C2.1202 50.2698 -6.68414 145.322 11.6625 175.881L174.841 177.808C174.841 177.808 147.812 95.415 150.153 47.7832L2.1202 50.2698Z" fill="#162141"/>
<path id="Vector_2" d="M2.12019 50.2698C2.12019 50.2698 -8.22126 148.283 24.0018 169.229H181.267C181.267 169.229 153.355 121.381 151.155 50.2698H2.12019Z" fill="#2A3D78"/>
<path id="Vector_3" d="M154.318 27.3494H1.32111V51.8821H154.318V27.3494Z" fill="url(#paint0_linear_313_965)"/>
<path id="Vector_4" d="M14.9953 27.5421C14.9953 27.5421 16.5371 22 22.1591 22C26.949 22 29.3229 25.8451 29.3229 29.3706C29.3229 32.8961 27.1465 36.6238 22.1591 36.8917" stroke="#85A9D8" stroke-width="3" stroke-linecap="round" stroke-linejoin="round"/>
<path id="Vector_5" d="M20.2694 27.2646H12.7202V30.635H20.2694V27.2646Z" fill="#263238"/>
<path id="Vector_6" d="M44.0595 27.5421C44.0595 27.5421 45.6013 22 51.2233 22C56.0132 22 58.3871 25.8451 58.3871 29.3706C58.3871 32.8961 56.2107 36.6238 51.2233 36.8917" stroke="#85A9D8" stroke-width="3" stroke-linecap="round" stroke-linejoin="round"/>
<path id="Vector_7" d="M49.3383 27.2646H41.789V30.635H49.3383V27.2646Z" fill="#263238"/>
<path id="Vector_8" d="M73.1285 27.5421C73.1285 27.5421 74.6703 22 80.2923 22C85.0822 22 87.4561 25.8451 87.4561 29.3706C87.4561 32.8961 85.2797 36.6238 80.2923 36.8917" stroke="#85A9D8" stroke-width="3" stroke-linecap="round" stroke-linejoin="round"/>
<path id="Vector_9" d="M78.4025 27.2646H70.8532V30.635H78.4025V27.2646Z" fill="#263238"/>
<path id="Vector_10" d="M102.193 27.5421C102.193 27.5421 103.734 22 109.356 22C114.146 22 116.52 25.8451 116.52 29.3706C116.52 32.8961 114.344 36.6238 109.356 36.8917" stroke="#85A9D8" stroke-width="3" stroke-linecap="round" stroke-linejoin="round"/>
<path id="Vector_11" d="M107.471 27.2646H99.9221V30.635H107.471V27.2646Z" fill="#263238"/>
<path id="Vector_12" d="M131.261 27.5421C131.261 27.5421 132.803 22 138.425 22C143.215 22 145.589 25.8451 145.589 29.3706C145.589 32.8961 143.413 36.6238 138.425 36.8917" stroke="#85A9D8" stroke-width="3" stroke-linecap="round" stroke-linejoin="round"/>
<path id="Vector_13" d="M136.535 27.2646H128.986V30.635H136.535V27.2646Z" fill="#263238"/>
<path id="Vector_14" d="M1.33513 52.7939C1.33513 52.7939 -0.357105 162.023 35.0483 162.023L180.482 162.075C180.482 162.075 159.696 140.866 153.538 52.7939H1.33513Z" fill="#0051BA"/>
<path id="Vector_15" d="M159.733 148.542C159.7 148.448 159.545 148.006 159.202 147.047C158.859 146.088 158.328 144.621 157.693 142.694C156.391 138.863 154.572 133.199 152.489 125.88C148.301 111.252 143.253 89.934 139.328 63.662L139.426 63.7466H16.1139H14.9387L15.061 63.6056C17.2797 79.4186 19.5595 94.8321 23.2495 109.268C25.0171 116.325 27.2517 123.256 29.9386 130.017C32.4887 136.423 35.5804 142.6 39.1801 148.481L39.086 148.429L159.728 148.542L39.086 148.65H39.0249L38.992 148.598C35.38 142.715 32.2758 136.535 29.7129 130.125C27.0221 123.356 24.7828 116.417 23.0098 109.352C19.3104 94.8979 17.0305 79.4797 14.8071 63.662V63.521H16.1233L139.436 63.5445H139.52V63.6291C143.427 89.9011 148.452 111.219 152.598 125.847C154.666 133.171 156.462 138.84 157.768 142.675C159.075 146.511 159.672 148.349 159.733 148.542Z" fill="#F28078"/>
<path id="Vector_16" d="M146.67 106.029C146.67 106.099 118.899 106.151 84.6497 106.151C50.4007 106.151 22.601 106.099 22.601 106.029C22.601 105.958 50.3678 105.907 84.6497 105.907C118.932 105.907 146.67 105.954 146.67 106.029Z" fill="#F28078"/>
<path id="Vector_17" d="M153.355 128.719C153.355 128.785 125.574 128.841 91.3058 128.841C57.038 128.841 29.2571 128.785 29.2571 128.719C29.2571 128.653 57.0286 128.597 91.3058 128.597C125.583 128.597 153.355 128.649 153.355 128.719Z" fill="#F28078"/>
<path id="Vector_18" d="M142.473 84.1662C142.473 84.232 114.701 84.2884 80.452 84.2884C46.203 84.2884 18.4033 84.232 18.4033 84.1662C18.4033 84.1004 46.1701 84.0439 80.452 84.0439C114.734 84.0439 142.473 84.0956 142.473 84.1662Z" fill="#F28078"/>
<path id="Vector_19" d="M59.299 148.542C59.299 148.542 59.2708 148.471 59.2238 148.33C59.1768 148.189 59.1063 147.968 59.0217 147.7C58.8431 147.132 58.5892 146.314 58.2602 145.27C57.6021 143.16 56.6808 140.099 55.5667 136.306C53.3527 128.719 50.4195 118.199 47.5756 106.476C46.1654 100.614 44.9009 95.0059 43.8151 89.8916C42.7292 84.7773 41.8408 80.1565 41.1498 76.2597C40.7878 74.3136 40.4917 72.5509 40.2097 71.0044C39.9276 69.4578 39.7396 68.1229 39.561 67.0323C39.3823 65.9418 39.2648 65.1003 39.1755 64.5175C39.1379 64.2354 39.105 64.0192 39.0815 63.8594C39.058 63.6995 39.058 63.6384 39.058 63.6384C39.0794 63.7094 39.0967 63.7816 39.1097 63.8547C39.1379 64.0145 39.1755 64.2307 39.2272 64.5081L39.655 67.0135C39.8336 68.1041 40.0686 69.439 40.346 70.9809C40.6233 72.5227 40.9289 74.2713 41.2861 76.2268C42.0006 80.1142 42.9313 84.7256 44.0031 89.8587C45.0748 94.9918 46.3534 100.572 47.7636 106.433C50.584 118.152 53.5031 128.677 55.6748 136.273C56.7654 140.066 57.6585 143.136 58.2931 145.256C58.5986 146.309 58.8384 147.136 59.0076 147.696L59.1862 148.335C59.2849 148.467 59.299 148.542 59.299 148.542Z" fill="#F28078"/>
<path id="Vector_20" d="M83.3665 148.542C83.3665 148.542 83.3383 148.471 83.2913 148.326L83.0938 147.696L82.3511 145.261C81.7071 143.15 80.8046 140.09 79.7047 136.287C77.5235 128.691 74.5715 118.176 71.7135 106.462C68.8555 94.7475 66.5851 84.0535 65.1937 76.2739C64.8365 74.3326 64.5262 72.5698 64.2818 71.0186C64.0374 69.4674 63.8117 68.1371 63.6472 67.0418C63.4827 65.9466 63.3652 65.1146 63.2805 64.527C63.2429 64.2449 63.2147 64.0287 63.1912 63.8689C63.1677 63.7091 63.1536 63.6479 63.1536 63.6479C63.1536 63.6479 63.1536 63.7185 63.2006 63.8689L63.3135 64.5176C63.4122 65.1052 63.5485 65.9278 63.7271 67.0277C63.9057 68.1277 64.1314 69.4533 64.3993 70.9998C64.6672 72.5463 64.9822 74.2902 65.3394 76.2457C66.7731 84.0112 69.0342 94.6958 71.9204 106.405C74.8066 118.114 77.7116 128.63 79.8504 136.236L82.4263 145.237C82.7272 146.29 82.9575 147.118 83.122 147.682L83.296 148.321C83.3247 148.393 83.3483 148.467 83.3665 148.542Z" fill="#F28078"/>
<path id="Vector_21" d="M108.515 148.542C108.485 148.473 108.458 148.402 108.435 148.33C108.388 148.175 108.318 147.968 108.228 147.7L107.462 145.27C106.79 143.164 105.854 140.099 104.712 136.339C102.456 128.761 99.4051 118.27 96.4907 106.56C93.5763 94.8509 91.3576 84.124 90.079 76.3397C89.7546 74.3936 89.4679 72.6261 89.2517 71.0702C89.0354 69.5143 88.8286 68.1793 88.7017 67.0794C88.5748 65.9794 88.4667 65.1427 88.3962 64.5504C88.3632 64.2731 88.3397 64.0521 88.3209 63.8923C88.3021 63.7325 88.3209 63.6714 88.3209 63.6714C88.3209 63.6714 88.3209 63.7419 88.3585 63.8923L88.4572 64.5457C88.5419 65.1333 88.6594 65.9559 88.8098 67.0653C88.9602 68.1746 89.1624 69.5002 89.4021 71.0514C89.6418 72.6026 89.9286 74.3654 90.2623 76.3115C91.5879 84.1052 93.8066 94.8039 96.7398 106.504C99.673 118.204 102.677 128.705 104.895 136.292C106.019 140.076 106.931 143.136 107.565 145.265C107.876 146.318 108.12 147.146 108.289 147.71C108.368 147.979 108.429 148.191 108.473 148.344C108.501 148.467 108.515 148.542 108.515 148.542Z" fill="#F28078"/>
<path id="Vector_22" d="M133.663 148.542C133.633 148.473 133.606 148.402 133.583 148.33L133.372 147.7C133.184 147.136 132.902 146.323 132.578 145.28C131.891 143.178 130.923 140.109 129.757 136.348C127.407 128.79 124.276 118.317 121.296 106.617C119.792 100.769 118.476 95.1659 117.441 90.0375C116.887 87.4803 116.45 85.0313 116.031 82.7467C115.834 81.5998 115.644 80.4936 115.462 79.4281C115.279 78.3657 115.11 77.341 114.992 76.3632C113.742 68.5366 113.451 63.6479 113.451 63.6479C113.451 63.6479 113.451 63.7232 113.483 63.8689C113.516 64.0146 113.53 64.2449 113.563 64.527C113.629 65.1193 113.718 65.9701 113.841 67.0606C113.963 68.1512 114.137 69.5003 114.339 71.0562C114.541 72.6121 114.809 74.3843 115.105 76.335C115.246 77.3128 115.425 78.3375 115.613 79.3999C115.801 80.4622 115.994 81.5669 116.191 82.7138C116.638 84.9936 117.084 87.438 117.639 89.9905C118.706 95.1095 120.013 100.713 121.512 106.56C124.497 118.251 127.623 128.729 129.908 136.297L132.662 145.251C132.987 146.3 133.24 147.132 133.414 147.686C133.494 147.959 133.555 148.156 133.602 148.321C133.649 148.485 133.663 148.542 133.663 148.542Z" fill="#F28078"/>
<path id="Vector_23" d="M89.4445 108.375C89.4445 108.337 89.6842 108.281 90.1543 108.248C90.8467 108.225 91.5391 108.295 92.2132 108.454C93.2911 108.704 94.3161 109.144 95.2404 109.752C96.4859 110.558 97.527 111.643 98.2818 112.92C99.1911 114.492 99.6694 116.275 99.6684 118.091C99.6761 119.097 99.5496 120.099 99.2924 121.071C99.0084 122.105 98.5745 123.092 98.0044 124C96.7111 126.012 94.8508 127.596 92.6581 128.552C90.4654 129.509 88.0387 129.794 85.684 129.372C83.2393 128.955 80.9781 127.808 79.1971 126.082C77.5511 124.448 76.4552 122.341 76.0617 120.056C75.691 118.005 75.886 115.893 76.6258 113.945C77.273 112.251 78.376 110.769 79.8129 109.663C80.979 108.759 82.3205 108.107 83.752 107.749C84.825 107.47 85.9381 107.378 87.0425 107.477C87.2557 107.488 87.4678 107.514 87.6771 107.557C87.8745 107.59 88.0578 107.613 88.227 107.655C88.5608 107.749 88.8428 107.815 89.0638 107.905C89.5009 108.083 89.7218 108.196 89.7077 108.234C89.6701 108.351 88.7676 107.961 87.019 107.952C85.9776 107.949 84.9421 108.107 83.9494 108.422C82.6384 108.82 81.4205 109.477 80.3675 110.354C79.1003 111.399 78.1402 112.768 77.5894 114.316C76.9596 116.095 76.8199 118.011 77.1852 119.863C77.5607 121.901 78.5554 123.774 80.0338 125.226C81.6503 126.769 83.692 127.793 85.8955 128.164C88.0922 128.567 90.3595 128.286 92.3918 127.361C94.2891 126.502 95.9055 125.125 97.0549 123.388C97.5782 122.583 97.982 121.706 98.2536 120.784C98.5041 119.908 98.6384 119.002 98.6531 118.091C98.6836 116.454 98.297 114.836 97.5296 113.39C96.8736 112.192 95.9582 111.157 94.8503 110.358C94.011 109.742 93.0776 109.266 92.0863 108.948C90.441 108.403 89.4398 108.487 89.4445 108.375Z" fill="#F28078"/>
<path id="Vector_24" d="M87.3667 112.102L89.2047 114.739C89.2782 114.848 89.3777 114.937 89.4943 114.998C89.6108 115.059 89.7407 115.089 89.8721 115.087H93.0874C93.2388 115.086 93.3874 115.128 93.5165 115.207C93.6455 115.287 93.7499 115.4 93.8178 115.536C93.8857 115.671 93.9145 115.823 93.9009 115.973C93.8873 116.124 93.8318 116.268 93.7408 116.389L91.7994 118.951C91.7203 119.056 91.6679 119.178 91.6466 119.307C91.6253 119.437 91.6358 119.569 91.6772 119.694L92.6878 122.745C92.736 122.888 92.7429 123.042 92.7077 123.189C92.6726 123.337 92.5968 123.471 92.4891 123.577C92.3813 123.684 92.2459 123.757 92.0982 123.791C91.9505 123.824 91.7965 123.815 91.6537 123.765L88.6171 122.712C88.4924 122.67 88.3597 122.659 88.2298 122.678C88.0999 122.698 87.9765 122.748 87.8697 122.824L85.2796 124.733C85.1577 124.823 85.0131 124.877 84.8621 124.888C84.7112 124.9 84.56 124.869 84.4258 124.799C84.2916 124.729 84.1797 124.622 84.1029 124.492C84.0262 124.361 83.9876 124.212 83.9916 124.061L84.0527 120.85C84.055 120.718 84.0254 120.588 83.9665 120.47C83.9076 120.352 83.821 120.25 83.7143 120.173L81.1054 118.293C80.9869 118.205 80.8951 118.086 80.8399 117.949C80.7847 117.811 80.7684 117.662 80.7927 117.516C80.817 117.37 80.8809 117.234 80.9776 117.123C81.0742 117.011 81.1998 116.928 81.3405 116.883L84.4194 115.943C84.5448 115.904 84.659 115.835 84.7522 115.743C84.8455 115.65 84.9151 115.537 84.9553 115.411L85.9283 112.351C85.971 112.205 86.0538 112.075 86.1672 111.973C86.2806 111.872 86.4201 111.805 86.5699 111.779C86.7197 111.753 86.8737 111.769 87.0146 111.827C87.1554 111.884 87.2774 111.979 87.3667 112.102Z" fill="#F28078"/>
<path id="Vector_25" opacity="0.2" d="M87.3667 112.102L89.2047 114.739C89.2782 114.848 89.3777 114.937 89.4943 114.998C89.6108 115.059 89.7407 115.089 89.8721 115.087H93.0874C93.2388 115.086 93.3874 115.128 93.5165 115.207C93.6455 115.287 93.7499 115.4 93.8178 115.536C93.8857 115.671 93.9145 115.823 93.9009 115.973C93.8873 116.124 93.8318 116.268 93.7408 116.389L91.7994 118.951C91.7203 119.056 91.6679 119.178 91.6466 119.307C91.6253 119.437 91.6358 119.569 91.6772 119.694L92.6878 122.745C92.736 122.888 92.7429 123.042 92.7077 123.189C92.6726 123.337 92.5968 123.471 92.4891 123.577C92.3813 123.684 92.2459 123.757 92.0982 123.791C91.9505 123.824 91.7965 123.815 91.6537 123.765L88.6171 122.712C88.4924 122.67 88.3597 122.659 88.2298 122.678C88.0999 122.698 87.9765 122.748 87.8697 122.824L85.2796 124.733C85.1577 124.823 85.0131 124.877 84.8621 124.888C84.7112 124.9 84.56 124.869 84.4258 124.799C84.2916 124.729 84.1797 124.622 84.1029 124.492C84.0262 124.361 83.9876 124.212 83.9916 124.061L84.0527 120.85C84.055 120.718 84.0254 120.588 83.9665 120.47C83.9076 120.352 83.821 120.25 83.7143 120.173L81.1054 118.293C80.9869 118.205 80.8951 118.086 80.8399 117.949C80.7847 117.811 80.7684 117.662 80.7927 117.516C80.817 117.37 80.8809 117.234 80.9776 117.123C81.0742 117.011 81.1998 116.928 81.3404 116.883L84.4194 115.943C84.5448 115.904 84.659 115.835 84.7522 115.743C84.8455 115.65 84.9151 115.537 84.9553 115.411L85.9283 112.351C85.971 112.205 86.0538 112.075 86.1672 111.973C86.2806 111.872 86.4201 111.805 86.5699 111.779C86.7197 111.753 86.8737 111.769 87.0146 111.827C87.1554 111.884 87.2774 111.979 87.3667 112.102Z" fill="#F28078"/>
</g>
</g>
<defs>
<linearGradient id="paint0_linear_313_965" x1="86.9964" y1="51.9401" x2="87.8056" y2="25.2368" gradientUnits="userSpaceOnUse">
<stop stop-color="#F28078"/>
<stop offset="1" stop-color="#F28078" stop-opacity="0"/>
</linearGradient>
</defs>
</svg>
