<svg width="277" height="186" viewBox="0 0 277 186" fill="none" xmlns="http://www.w3.org/2000/svg">
<path d="M117.841 16.9133C118.639 16.5627 119.315 15.9835 119.783 15.2489C120.252 14.5143 120.493 13.6573 120.474 12.7861C120.474 11.6915 120.04 10.6418 119.266 9.86776C118.492 9.09376 117.442 8.65894 116.347 8.65894C115.253 8.65894 114.203 9.09376 113.429 9.86776C112.655 10.6418 112.22 11.6915 112.22 12.7861C112.204 13.658 112.446 14.5152 112.916 15.2497C113.386 15.9842 114.063 16.563 114.861 16.9133C108.497 17.8708 108.786 24.788 108.786 24.788L123.834 24.8623C123.834 24.8623 124.156 17.8626 117.841 16.9133Z" fill="url(#paint0_linear_408_2583)"/>
<path d="M243.53 148.864C245.269 148.091 246.743 146.825 247.77 145.223C248.797 143.621 249.332 141.753 249.308 139.85C249.308 134.468 245.263 130.093 240.228 130.068C235.193 130.044 231.074 134.386 231.058 139.767C231.02 141.682 231.548 143.564 232.576 145.18C233.604 146.795 235.086 148.071 236.836 148.847C222.803 150.969 223.414 166.247 223.414 166.247L256.663 166.404C256.663 166.404 257.505 150.952 243.53 148.864Z" fill="url(#paint1_linear_408_2583)"/>
<path d="M240.121 186C232.882 186.002 225.805 183.857 219.785 179.836C213.765 175.815 209.073 170.1 206.301 163.412C203.53 156.724 202.804 149.365 204.215 142.265C205.626 135.165 209.111 128.643 214.23 123.523C219.348 118.404 225.869 114.917 232.969 113.504C240.069 112.091 247.429 112.816 254.117 115.586C260.805 118.355 266.522 123.047 270.544 129.066C274.566 135.085 276.712 142.161 276.712 149.4C276.704 159.103 272.846 168.406 265.986 175.268C259.126 182.129 249.824 185.989 240.121 186ZM240.121 113.849C233.089 113.849 226.216 115.934 220.369 119.84C214.523 123.747 209.966 129.299 207.275 135.795C204.585 142.291 203.881 149.44 205.252 156.336C206.624 163.232 210.01 169.567 214.982 174.539C219.954 179.511 226.289 182.897 233.185 184.269C240.081 185.64 247.23 184.936 253.726 182.246C260.222 179.555 265.774 174.998 269.681 169.152C273.587 163.305 275.672 156.432 275.672 149.4C275.661 139.975 271.912 130.938 265.248 124.273C258.583 117.609 249.546 113.86 240.121 113.849Z" fill="#EF4135"/>
<path d="M36.5916 67.7663C38.1879 67.0629 39.5417 65.9049 40.4841 64.437C41.4265 62.9691 41.9158 61.2561 41.8909 59.5119C41.8909 54.5593 38.193 50.6054 33.587 50.5807C28.9811 50.5559 25.2418 54.518 25.2171 59.4294C25.1826 61.184 25.6693 62.9095 26.6155 64.3876C27.5617 65.8657 28.925 67.03 30.5329 67.7333C17.6973 69.6648 18.2834 83.6064 18.2834 83.6064L48.6182 83.7468C48.6182 83.7468 49.3116 69.6896 36.5916 67.7663Z" fill="url(#paint2_linear_408_2583)"/>
<path d="M33.4555 101.692C26.8417 101.694 20.3759 99.7338 14.8759 96.0605C9.37584 92.3872 5.08867 87.1654 2.55653 81.0555C0.0243858 74.9456 -0.638991 68.2219 0.650307 61.735C1.93961 55.248 5.12366 49.2891 9.79979 44.6118C14.4759 39.9345 20.4341 36.749 26.9207 35.4581C33.4074 34.1672 40.1311 34.8289 46.2417 37.3595C52.3523 39.8902 57.5751 44.176 61.2498 49.6751C64.9244 55.1743 66.8857 61.6396 66.8857 68.2534C66.877 77.1177 63.3524 85.6166 57.0851 91.8854C50.8179 98.1542 42.3198 101.681 33.4555 101.692ZM33.4555 35.8633C27.047 35.8616 20.782 37.7606 15.4528 41.3199C10.1237 44.8793 5.9698 49.9392 3.51662 55.8595C1.06344 61.7799 0.421145 68.2948 1.67098 74.5803C2.92082 80.8657 6.00663 86.6393 10.5381 91.1708C15.0696 95.7023 20.8432 98.7881 27.1287 100.038C33.4141 101.288 39.929 100.646 45.8494 98.1923C51.7698 95.7392 56.8297 91.5853 60.389 86.2561C63.9484 80.927 65.8473 74.6619 65.8457 68.2534C65.8326 59.667 62.4159 51.4361 56.3444 45.3646C50.2729 39.2931 42.0419 35.8764 33.4555 35.8633Z" fill="#0051BA"/>
<path d="M249.102 47.7269C250.342 47.1746 251.394 46.2715 252.127 45.1289C252.86 43.9864 253.243 42.6543 253.229 41.2967C253.288 40.4064 253.165 39.5134 252.866 38.6727C252.567 37.832 252.099 37.0614 251.491 36.4083C250.883 35.7552 250.148 35.2336 249.331 34.8754C248.513 34.5172 247.631 34.33 246.739 34.3255C245.847 34.321 244.963 34.4992 244.142 34.8491C243.322 35.199 242.581 35.7132 241.967 36.3601C241.352 37.007 240.876 37.7728 240.569 38.6105C240.262 39.4481 240.129 40.3398 240.179 41.2307C240.151 42.5996 240.527 43.9465 241.261 45.1022C241.996 46.2579 243.055 47.171 244.306 47.7269C234.269 49.2457 234.723 60.158 234.723 60.158L258.553 60.2818C258.553 60.2818 259.057 49.2374 249.102 47.7269Z" fill="url(#paint3_linear_408_2583)"/>
<path d="M246.642 74.3141C241.443 74.3141 236.36 72.7719 232.037 69.8825C227.715 66.9931 224.346 62.8865 222.358 58.0822C220.37 53.2779 219.851 47.9918 220.868 42.8927C221.885 37.7936 224.391 33.1107 228.07 29.4364C231.749 25.7621 236.435 23.2616 241.535 22.2512C246.636 21.2409 251.921 21.7661 256.723 23.7603C261.525 25.7546 265.627 29.1284 268.511 33.4548C271.395 37.7811 272.931 42.8657 272.924 48.0652C272.909 55.0279 270.134 61.7005 265.208 66.6208C260.281 71.541 253.605 74.3076 246.642 74.3141ZM246.642 22.7986C241.651 22.7986 236.772 24.2784 232.621 27.0509C228.471 29.8234 225.235 33.7642 223.324 38.3751C221.413 42.986 220.912 48.06 221.884 52.9558C222.856 57.8515 225.257 62.3493 228.785 65.8804C232.312 69.4115 236.808 71.8175 241.703 72.7943C246.597 73.771 251.672 73.2747 256.285 71.368C260.898 69.4613 264.841 66.2298 267.618 62.0821C270.395 57.9343 271.879 53.0565 271.884 48.0652C271.878 41.3734 269.216 34.9577 264.483 30.2267C259.751 25.4956 253.334 22.836 246.642 22.8316V22.7986Z" fill="#0051BA"/>
<path d="M153.723 103.724C154.6 103.332 155.344 102.693 155.864 101.886C156.385 101.078 156.659 100.137 156.654 99.1763C156.694 98.5485 156.605 97.919 156.393 97.3267C156.182 96.7343 155.851 96.1915 155.422 95.7317C154.992 95.2718 154.473 94.9046 153.897 94.6526C153.32 94.4007 152.699 94.2692 152.069 94.2664C151.44 94.2636 150.817 94.3894 150.239 94.6362C149.66 94.8831 149.138 95.2456 148.704 95.7016C148.271 96.1575 147.935 96.6974 147.718 97.2878C147.501 97.8782 147.407 98.5069 147.442 99.135C147.428 100.103 147.699 101.053 148.219 101.869C148.74 102.684 149.489 103.329 150.372 103.724C143.29 104.789 143.612 112.499 143.612 112.499L160.368 112.573C160.368 112.573 160.781 104.781 153.723 103.724Z" fill="url(#paint4_linear_408_2583)"/>
<path d="M152.022 122.594C148.341 122.594 144.742 121.502 141.681 119.455C138.621 117.409 136.236 114.501 134.829 111.099C133.422 107.697 133.056 103.954 133.778 100.343C134.499 96.7333 136.275 93.4182 138.881 90.8178C141.487 88.2175 144.806 86.4488 148.418 85.7355C152.03 85.0223 155.772 85.3967 159.171 86.8112C162.57 88.2257 165.473 90.6168 167.512 93.6819C169.552 96.7469 170.636 100.348 170.628 104.03C170.612 108.956 168.646 113.675 165.159 117.154C161.672 120.633 156.948 122.589 152.022 122.594ZM152.022 86.225C148.509 86.225 145.074 87.2665 142.152 89.2178C139.231 91.1691 136.953 93.9427 135.607 97.1881C134.261 100.434 133.907 104.005 134.59 107.452C135.273 110.898 136.962 114.065 139.444 116.551C141.926 119.038 145.09 120.733 148.535 121.423C151.98 122.112 155.552 121.765 158.8 120.425C162.048 119.085 164.826 116.812 166.783 113.894C168.74 110.976 169.787 107.543 169.794 104.03C169.796 99.3126 167.926 94.7877 164.593 91.4491C161.261 88.1106 156.739 86.2316 152.022 86.225Z" fill="#0051BA"/>
<path d="M52.9648 140.78C53.7635 140.427 54.4414 139.848 54.9152 139.115C55.3889 138.382 55.6377 137.526 55.631 136.653C55.6669 136.08 55.5852 135.506 55.3907 134.966C55.1962 134.426 54.8932 133.931 54.5003 133.513C54.1074 133.095 53.6329 132.761 53.1062 132.533C52.5795 132.306 52.0117 132.188 51.4377 132.188C50.8638 132.188 50.296 132.306 49.7693 132.533C49.2425 132.761 48.7681 133.095 48.3752 133.513C47.9823 133.931 47.6793 134.426 47.4848 134.966C47.2903 135.506 47.2086 136.08 47.2445 136.653C47.2276 137.535 47.4726 138.403 47.9486 139.146C48.4246 139.89 49.1103 140.476 49.9189 140.829C43.464 141.803 43.7529 148.811 43.7529 148.811L59.0153 148.886C59.0153 148.886 59.3619 141.746 52.9648 140.78Z" fill="url(#paint5_linear_408_2583)"/>
<path d="M51.4215 158.098C48.043 158.099 44.74 157.099 41.9302 155.223C39.1204 153.347 36.9302 150.68 35.6366 147.559C34.3429 144.438 34.004 141.003 34.6627 137.689C35.3214 134.376 36.9481 131.332 39.3371 128.943C41.726 126.554 44.7698 124.927 48.0835 124.269C51.3971 123.61 54.8317 123.949 57.9527 125.243C61.0736 126.536 63.7408 128.726 65.6168 131.536C67.4928 134.346 68.4932 137.649 68.4916 141.027C68.485 145.553 66.6845 149.891 63.4846 153.091C60.2848 156.29 55.9468 158.091 51.4215 158.098ZM51.4215 124.989C48.2491 124.988 45.1475 125.927 42.5089 127.688C39.8703 129.449 37.8134 131.954 36.5982 134.884C35.3831 137.815 35.0643 141.04 35.6822 144.151C36.3001 147.263 37.8269 150.121 40.0696 152.365C42.3123 154.609 45.17 156.137 48.2813 156.757C51.3927 157.376 54.6178 157.059 57.5489 155.846C60.48 154.632 62.9853 152.576 64.748 149.939C66.5107 147.301 67.4515 144.2 67.4515 141.027C67.445 136.777 65.7543 132.703 62.7497 129.697C59.7452 126.691 55.6717 124.998 51.4215 124.989Z" fill="#EF4135"/>
<path d="M46.4026 122.971C46.4379 122.958 43.6575 118.488 40.1944 112.989C36.7312 107.49 33.8919 103.036 33.8624 103.052C33.8329 103.069 36.6096 107.535 40.0622 113.035C43.5147 118.534 46.3652 122.983 46.4026 122.971Z" fill="#EF4135"/>
<path d="M169.274 99.7458C169.208 99.6467 181.977 91.4914 197.776 81.5201C213.575 71.5488 226.452 63.5586 226.518 63.6576C226.584 63.7567 213.823 71.912 198.007 81.8833C182.192 91.8546 169.34 99.8448 169.274 99.7458Z" fill="#EF4135"/>
<path d="M131.552 101.117C131.552 101.171 115.932 98.4135 96.7237 94.9378C77.5154 91.4621 61.9144 88.6391 61.9219 88.585C61.9293 88.5309 77.5228 91.2883 96.7572 94.7408C115.992 98.1934 131.563 101.047 131.552 101.117Z" fill="#EF4135"/>
<path d="M245.009 110C244.94 109.99 245.35 102.611 245.914 93.4888C246.479 84.3664 247.014 76.991 247.072 77.0003C247.13 77.0097 246.731 84.3887 246.167 93.5111C245.602 102.634 245.076 110.005 245.009 110Z" fill="#EF4135"/>
<path d="M116.29 34.3052C112.897 34.3068 109.58 33.3022 106.758 31.4185C103.936 29.5347 101.736 26.8564 100.437 23.7223C99.1374 20.5882 98.7966 17.1392 99.4575 13.8114C100.118 10.4835 101.751 7.42646 104.15 5.0268C106.548 2.62715 109.605 0.9927 112.932 0.330194C116.26 -0.332311 119.709 0.00688405 122.844 1.30488C125.978 2.60288 128.658 4.80136 130.543 7.62227C132.428 10.4432 133.434 13.7598 133.434 17.1526C133.43 21.699 131.622 26.058 128.408 29.2736C125.194 32.4891 120.836 34.2986 116.29 34.3052ZM116.29 1.64263C113.22 1.64099 110.218 2.54994 107.665 4.25448C105.112 5.95901 103.122 8.38255 101.946 11.2185C100.771 14.0544 100.463 17.1753 101.061 20.1863C101.66 23.1973 103.138 25.9631 105.308 28.1339C107.479 30.3046 110.245 31.7828 113.256 32.3813C116.267 32.9798 119.388 32.6718 122.224 31.4962C125.06 30.3207 127.483 28.3304 129.188 25.7772C130.892 23.2239 131.801 20.2225 131.8 17.1526C131.787 13.0462 130.147 9.11215 127.241 6.21154C124.334 3.31094 120.396 1.67999 116.29 1.67564V1.64263Z" fill="#EF4135"/>
<path d="M142.439 88.9079C142.352 88.7288 142.277 88.5441 142.216 88.3548L141.663 86.704C141.168 85.2512 140.482 83.2289 139.632 80.7526C137.907 75.7339 135.431 68.825 132.467 61.297C129.504 53.769 126.599 47.0747 124.436 42.2046L121.852 36.4761L121.159 34.916C121.066 34.7378 120.994 34.5495 120.944 34.3547C121.057 34.5187 121.153 34.6928 121.233 34.8748L122.009 36.4018C122.669 37.7308 123.594 39.7036 124.708 42.0808C126.945 46.9014 129.892 53.637 132.864 61.1732C135.835 68.7094 138.27 75.6349 139.921 80.6865C140.747 83.2124 141.399 85.2595 141.82 86.6792C142.018 87.3643 142.183 87.9091 142.298 88.3301C142.366 88.517 142.413 88.7108 142.439 88.9079Z" fill="#EF4135"/>
<defs>
<linearGradient id="paint0_linear_408_2583" x1="116.31" y1="8.65894" x2="115.839" y2="38.7943" gradientUnits="userSpaceOnUse">
<stop stop-color="#0051BA"/>
<stop offset="1" stop-color="#0051BA" stop-opacity="0"/>
</linearGradient>
<linearGradient id="paint1_linear_408_2583" x1="240.041" y1="130.068" x2="239.512" y2="182.28" gradientUnits="userSpaceOnUse">
<stop stop-color="#0051BA"/>
<stop offset="1" stop-color="#0051BA" stop-opacity="0"/>
</linearGradient>
<linearGradient id="paint2_linear_408_2583" x1="33.4521" y1="50.5806" x2="32.9351" y2="91.4056" gradientUnits="userSpaceOnUse">
<stop stop-color="#EF4135"/>
<stop offset="1" stop-color="#EF4135" stop-opacity="0"/>
</linearGradient>
<linearGradient id="paint3_linear_408_2583" x1="246.639" y1="34.3254" x2="246.57" y2="74.4001" gradientUnits="userSpaceOnUse">
<stop stop-color="#EF4135"/>
<stop offset="1" stop-color="#EF4135" stop-opacity="0"/>
</linearGradient>
<linearGradient id="paint4_linear_408_2583" x1="151.991" y1="94.2664" x2="151.976" y2="129.669" gradientUnits="userSpaceOnUse">
<stop stop-color="#EF4135"/>
<stop offset="1" stop-color="#EF4135" stop-opacity="0"/>
</linearGradient>
<linearGradient id="paint5_linear_408_2583" x1="51.3848" y1="132.188" x2="51.0041" y2="166.337" gradientUnits="userSpaceOnUse">
<stop stop-color="#0051BA"/>
<stop offset="1" stop-color="#0051BA" stop-opacity="0"/>
</linearGradient>
</defs>
</svg>
