<svg width="277" height="200" viewBox="0 0 277 200" fill="none" xmlns="http://www.w3.org/2000/svg">
<path d="M117.841 23.9133C118.638 23.5627 119.314 22.9835 119.783 22.2489C120.252 21.5143 120.492 20.6573 120.474 19.7861C120.474 18.6915 120.039 17.6418 119.265 16.8678C118.491 16.0938 117.441 15.6589 116.347 15.6589C115.252 15.6589 114.202 16.0938 113.428 16.8678C112.654 17.6418 112.22 18.6915 112.22 19.7861C112.203 20.658 112.445 21.5152 112.915 22.2497C113.385 22.9842 114.062 23.563 114.861 23.9133C108.497 24.8708 108.786 31.788 108.786 31.788L123.833 31.8623C123.833 31.8623 124.155 24.8626 117.841 23.9133Z" fill="url(#paint0_linear_313_1018)"/>
<path d="M243.53 155.864C245.269 155.091 246.743 153.825 247.77 152.223C248.797 150.621 249.332 148.753 249.308 146.85C249.308 141.468 245.263 137.093 240.228 137.068C235.193 137.044 231.074 141.386 231.058 146.767C231.02 148.682 231.548 150.564 232.576 152.18C233.604 153.795 235.086 155.071 236.836 155.847C222.803 157.969 223.414 173.247 223.414 173.247L256.663 173.404C256.663 173.404 257.505 157.952 243.53 155.864Z" fill="url(#paint1_linear_313_1018)"/>
<path d="M240.121 193C232.881 193.002 225.804 190.857 219.785 186.836C213.765 182.815 209.072 177.1 206.301 170.412C203.529 163.724 202.803 156.365 204.215 149.265C205.626 142.165 209.111 135.643 214.229 130.523C219.348 125.404 225.869 121.917 232.969 120.504C240.069 119.091 247.428 119.816 254.117 122.586C260.805 125.355 266.521 130.047 270.543 136.066C274.565 142.085 276.712 149.161 276.712 156.4C276.703 166.103 272.846 175.406 265.986 182.268C259.125 189.129 249.823 192.989 240.121 193ZM240.121 120.849C233.089 120.849 226.216 122.934 220.369 126.84C214.523 130.747 209.966 136.299 207.275 142.795C204.584 149.291 203.88 156.44 205.252 163.336C206.624 170.232 210.01 176.567 214.982 181.539C219.954 186.511 226.288 189.897 233.185 191.269C240.081 192.64 247.229 191.936 253.726 189.246C260.222 186.555 265.774 181.998 269.681 176.152C273.587 170.305 275.672 163.432 275.672 156.4C275.661 146.975 271.912 137.938 265.247 131.273C258.582 124.609 249.546 120.86 240.121 120.849Z" fill="#F28078"/>
<path d="M36.5919 74.7663C38.1881 74.0629 39.542 72.9049 40.4844 71.437C41.4268 69.9691 41.9161 68.2561 41.8912 66.5119C41.8912 61.5593 38.1932 57.6054 33.5873 57.5807C28.9813 57.5559 25.2421 61.518 25.2173 66.4294C25.1829 68.184 25.6695 69.9095 26.6158 71.3876C27.562 72.8657 28.9252 74.03 30.5331 74.7333C17.6976 76.6648 18.2836 90.6064 18.2836 90.6064L48.6185 90.7468C48.6185 90.7468 49.3118 76.6896 36.5919 74.7663Z" fill="url(#paint2_linear_313_1018)"/>
<path d="M33.4553 108.692C26.8414 108.694 20.3756 106.734 14.8756 103.061C9.3756 99.3872 5.08843 94.1654 2.55629 88.0555C0.0241417 81.9456 -0.639235 75.2219 0.650063 68.735C1.93936 62.248 5.12342 56.2891 9.79954 51.6118C14.4757 46.9345 20.4338 43.749 26.9205 42.4581C33.4071 41.1672 40.1309 41.8289 46.2415 44.3595C52.352 46.8902 57.5749 51.176 61.2495 56.6751C64.9241 62.1743 66.8855 68.6396 66.8855 75.2534C66.8768 84.1177 63.3521 92.6166 57.0849 98.8854C50.8176 105.154 42.3196 108.681 33.4553 108.692ZM33.4553 42.8633C27.0468 42.8616 20.7817 44.7606 15.4526 48.3199C10.1234 51.8793 5.96956 56.9392 3.51638 62.8595C1.0632 68.7799 0.420901 75.2948 1.67074 81.5803C2.92057 87.8657 6.00639 93.6393 10.5379 98.1708C15.0694 102.702 20.843 105.788 27.1284 107.038C33.4139 108.288 39.9288 107.646 45.8492 105.192C51.7695 102.739 56.8294 98.5853 60.3888 93.2561C63.9481 87.927 65.8471 81.6619 65.8454 75.2534C65.8323 66.667 62.4156 58.4361 56.3441 52.3646C50.2726 46.2931 42.0417 42.8764 33.4553 42.8633Z" fill="#0051BA"/>
<path d="M249.102 54.7269C250.342 54.1746 251.394 53.2715 252.127 52.1289C252.86 50.9864 253.243 49.6543 253.229 48.2967C253.288 47.4064 253.165 46.5134 252.866 45.6727C252.567 44.832 252.099 44.0614 251.491 43.4083C250.883 42.7552 250.148 42.2336 249.33 41.8754C248.513 41.5172 247.631 41.33 246.739 41.3255C245.847 41.321 244.963 41.4992 244.142 41.8491C243.321 42.199 242.581 42.7132 241.966 43.3601C241.352 44.007 240.876 44.7728 240.569 45.6105C240.261 46.4481 240.129 47.3398 240.179 48.2307C240.15 49.5996 240.527 50.9465 241.261 52.1022C241.995 53.2579 243.055 54.171 244.306 54.7269C234.269 56.2457 234.723 67.158 234.723 67.158L258.553 67.2818C258.553 67.2818 259.057 56.2374 249.102 54.7269Z" fill="url(#paint3_linear_313_1018)"/>
<path d="M246.642 81.3141C241.443 81.3141 236.36 79.7719 232.037 76.8825C227.715 73.9931 224.346 69.8865 222.358 65.0822C220.37 60.2779 219.851 54.9918 220.868 49.8927C221.885 44.7936 224.391 40.1107 228.07 36.4364C231.749 32.7621 236.435 30.2616 241.535 29.2512C246.636 28.2409 251.921 28.7661 256.723 30.7603C261.525 32.7546 265.627 36.1284 268.511 40.4548C271.395 44.7811 272.931 49.8657 272.924 55.0652C272.909 62.0279 270.134 68.7005 265.208 73.6208C260.281 78.541 253.605 81.3076 246.642 81.3141ZM246.642 29.7986C241.651 29.7986 236.772 31.2784 232.621 34.0509C228.471 36.8234 225.235 40.7642 223.324 45.3751C221.413 49.986 220.912 55.06 221.884 59.9558C222.856 64.8515 225.257 69.3493 228.785 72.8804C232.313 76.4115 236.808 78.8175 241.703 79.7943C246.598 80.771 251.672 80.2747 256.285 78.368C260.898 76.4613 264.842 73.2298 267.618 69.0821C270.395 64.9343 271.879 60.0565 271.884 55.0652C271.878 48.3734 269.216 41.9577 264.483 37.2267C259.751 32.4956 253.334 29.836 246.642 29.8316V29.7986Z" fill="#0051BA"/>
<path d="M153.722 110.724C154.599 110.332 155.343 109.693 155.864 108.886C156.384 108.078 156.658 107.137 156.653 106.176C156.693 105.548 156.605 104.919 156.393 104.327C156.181 103.734 155.85 103.192 155.421 102.732C154.991 102.272 154.473 101.905 153.896 101.653C153.32 101.401 152.698 101.269 152.069 101.266C151.44 101.264 150.817 101.389 150.238 101.636C149.659 101.883 149.137 102.246 148.704 102.702C148.27 103.158 147.935 103.697 147.718 104.288C147.5 104.878 147.406 105.507 147.441 106.135C147.428 107.103 147.698 108.053 148.219 108.869C148.74 109.684 149.488 110.329 150.371 110.724C143.289 111.789 143.611 119.499 143.611 119.499L160.367 119.573C160.367 119.573 160.78 111.781 153.722 110.724Z" fill="url(#paint4_linear_313_1018)"/>
<path d="M152.022 129.594C148.341 129.594 144.742 128.502 141.681 126.455C138.621 124.409 136.236 121.501 134.829 118.099C133.422 114.697 133.056 110.954 133.777 107.343C134.499 103.733 136.275 100.418 138.881 97.8178C141.487 95.2175 144.806 93.4488 148.418 92.7355C152.03 92.0223 155.772 92.3967 159.171 93.8112C162.57 95.2257 165.473 97.6168 167.512 100.682C169.551 103.747 170.636 107.348 170.627 111.03C170.612 115.956 168.646 120.675 165.159 124.154C161.672 127.633 156.948 129.589 152.022 129.594ZM152.022 93.225C148.509 93.225 145.074 94.2665 142.152 96.2178C139.23 98.1691 136.952 100.943 135.606 104.188C134.26 107.434 133.907 111.005 134.59 114.452C135.273 117.898 136.962 121.065 139.444 123.551C141.926 126.038 145.09 127.733 148.535 128.423C151.98 129.112 155.552 128.765 158.8 127.425C162.048 126.085 164.826 123.812 166.783 120.894C168.739 117.976 169.787 114.543 169.794 111.03C169.796 106.313 167.925 101.788 164.593 98.4491C161.261 95.1106 156.739 93.2316 152.022 93.225Z" fill="#0051BA"/>
<path d="M52.9646 147.78C53.7632 147.427 54.4412 146.848 54.9149 146.115C55.3887 145.382 55.6375 144.526 55.6307 143.653C55.6667 143.08 55.5849 142.506 55.3904 141.966C55.196 141.426 54.893 140.931 54.5 140.513C54.1071 140.095 53.6327 139.761 53.106 139.533C52.5793 139.306 52.0114 139.188 51.4375 139.188C50.8636 139.188 50.2958 139.306 49.769 139.533C49.2423 139.761 48.7679 140.095 48.375 140.513C47.9821 140.931 47.679 141.426 47.4846 141.966C47.2901 142.506 47.2083 143.08 47.2443 143.653C47.2273 144.535 47.4723 145.403 47.9484 146.146C48.4244 146.89 49.11 147.476 49.9187 147.829C43.4638 148.803 43.7527 155.811 43.7527 155.811L59.015 155.886C59.015 155.886 59.3617 148.746 52.9646 147.78Z" fill="url(#paint5_linear_313_1018)"/>
<path d="M51.421 165.098C48.0426 165.099 44.7395 164.099 41.9297 162.223C39.12 160.347 36.9297 157.68 35.6361 154.559C34.3424 151.438 34.0035 148.003 34.6622 144.689C35.3209 141.376 36.9477 138.332 39.3366 135.943C41.7255 133.554 44.7694 131.927 48.083 131.269C51.3966 130.61 54.8312 130.949 57.9522 132.243C61.0732 133.536 63.7403 135.726 65.6163 138.536C67.4923 141.346 68.4927 144.649 68.4911 148.027C68.4845 152.553 66.684 156.891 63.4841 160.091C60.2843 163.29 55.9463 165.091 51.421 165.098ZM51.421 131.989C48.2486 131.988 45.147 132.927 42.5084 134.688C39.8699 136.449 37.8129 138.954 36.5977 141.884C35.3826 144.815 35.0638 148.04 35.6817 151.151C36.2996 154.263 37.8264 157.121 40.0691 159.365C42.3118 161.609 45.1695 163.137 48.2808 163.757C51.3922 164.376 54.6174 164.059 57.5484 162.846C60.4795 161.632 62.9849 159.576 64.7475 156.939C66.5102 154.301 67.451 151.2 67.451 148.027C67.4445 143.777 65.7538 139.703 62.7492 136.697C59.7447 133.691 55.6712 131.998 51.421 131.989Z" fill="#F28078"/>
<path d="M46.4028 129.971C46.4381 129.958 43.6577 125.488 40.1946 119.989C36.7314 114.49 33.8921 110.036 33.8626 110.052C33.8331 110.069 36.6098 114.535 40.0623 120.035C43.5149 125.534 46.3654 129.983 46.4028 129.971Z" fill="#F28078"/>
<path d="M169.274 106.746C169.208 106.647 181.977 98.4914 197.776 88.5201C213.575 78.5488 226.452 70.5586 226.518 70.6576C226.584 70.7567 213.823 78.912 198.007 88.8833C182.192 98.8546 169.34 106.845 169.274 106.746Z" fill="#F28078"/>
<path d="M131.552 108.117C131.552 108.171 115.932 105.413 96.7239 101.938C77.5156 98.4621 61.9146 95.6391 61.9221 95.585C61.9295 95.5309 77.523 98.2883 96.7574 101.741C115.992 105.193 131.563 108.047 131.552 108.117Z" fill="#F28078"/>
<path d="M245.009 117C244.94 116.99 245.35 109.611 245.914 100.489C246.479 91.3664 247.014 83.991 247.072 84.0003C247.13 84.0097 246.731 91.3887 246.167 100.511C245.602 109.634 245.076 117.005 245.009 117Z" fill="#F28078"/>
<path d="M116.289 41.3052C112.896 41.3068 109.579 40.3022 106.757 38.4185C103.936 36.5347 101.736 33.8564 100.436 30.7223C99.1368 27.5882 98.796 24.1392 99.4569 20.8114C100.118 17.4835 101.751 14.4265 104.149 12.0268C106.548 9.62715 109.604 7.9927 112.932 7.33019C116.259 6.66769 119.708 7.00688 122.843 8.30488C125.978 9.60288 128.657 11.8014 130.542 14.6223C132.427 17.4432 133.433 20.7598 133.433 24.1526C133.429 28.699 131.622 33.058 128.408 36.2736C125.194 39.4891 120.836 41.2986 116.289 41.3052ZM116.289 8.64263C113.219 8.64099 110.218 9.54994 107.665 11.2545C105.111 12.959 103.121 15.3825 101.946 18.2185C100.77 21.0544 100.462 24.1753 101.06 27.1863C101.659 30.1973 103.137 32.9631 105.308 35.1339C107.479 37.3046 110.244 38.7828 113.255 39.3813C116.266 39.9798 119.387 39.6718 122.223 38.4962C125.059 37.3207 127.483 35.3304 129.187 32.7772C130.892 30.2239 131.801 27.2225 131.799 24.1526C131.786 20.0462 130.147 16.1121 127.24 13.2115C124.333 10.3109 120.396 8.67999 116.289 8.67564V8.64263Z" fill="#F28078"/>
<path d="M142.439 95.9079C142.352 95.7288 142.277 95.5441 142.216 95.3548L141.663 93.704C141.168 92.2512 140.482 90.2289 139.632 87.7526C137.907 82.7339 135.431 75.825 132.467 68.297C129.504 60.769 126.599 54.0747 124.436 49.2046L121.852 43.4761L121.159 41.916C121.066 41.7378 120.994 41.5495 120.944 41.3547C121.057 41.5187 121.153 41.6928 121.233 41.8748L122.009 43.4018C122.669 44.7308 123.594 46.7036 124.708 49.0808C126.945 53.9014 129.892 60.637 132.864 68.1732C135.835 75.7094 138.27 82.6349 139.921 87.6865C140.747 90.2124 141.399 92.2595 141.82 93.6792C142.018 94.3643 142.183 94.9091 142.298 95.3301C142.366 95.517 142.413 95.7108 142.439 95.9079Z" fill="#F28078"/>
<defs>
<linearGradient id="paint0_linear_313_1018" x1="116.31" y1="15.6589" x2="115.838" y2="45.7943" gradientUnits="userSpaceOnUse">
<stop stop-color="#0051BA"/>
<stop offset="1" stop-color="#0051BA" stop-opacity="0"/>
</linearGradient>
<linearGradient id="paint1_linear_313_1018" x1="240.041" y1="137.068" x2="239.512" y2="189.28" gradientUnits="userSpaceOnUse">
<stop stop-color="#0051BA"/>
<stop offset="1" stop-color="#0051BA" stop-opacity="0"/>
</linearGradient>
<linearGradient id="paint2_linear_313_1018" x1="33.4524" y1="57.5806" x2="32.9353" y2="98.4056" gradientUnits="userSpaceOnUse">
<stop stop-color="#F28078"/>
<stop offset="1" stop-color="#F28078" stop-opacity="0"/>
</linearGradient>
<linearGradient id="paint3_linear_313_1018" x1="246.638" y1="41.3254" x2="246.57" y2="81.4001" gradientUnits="userSpaceOnUse">
<stop stop-color="#F28078"/>
<stop offset="1" stop-color="#F28078" stop-opacity="0"/>
</linearGradient>
<linearGradient id="paint4_linear_313_1018" x1="151.99" y1="101.266" x2="151.975" y2="136.669" gradientUnits="userSpaceOnUse">
<stop stop-color="#F28078"/>
<stop offset="1" stop-color="#F28078" stop-opacity="0"/>
</linearGradient>
<linearGradient id="paint5_linear_313_1018" x1="51.3845" y1="139.188" x2="51.0039" y2="173.337" gradientUnits="userSpaceOnUse">
<stop stop-color="#0051BA"/>
<stop offset="1" stop-color="#0051BA" stop-opacity="0"/>
</linearGradient>
</defs>
</svg>
