<svg width="254" height="200" viewBox="0 0 254 200" fill="none" xmlns="http://www.w3.org/2000/svg">
<g id="Frame 35">
<g id="freepik--Speaker--inject-383">
<path id="Vector" d="M27.419 116.584L43.2945 149.671L51.5877 147.517L104.621 193L120.27 163.435C120.27 163.435 88.6916 148.906 83.0264 137.285C77.3612 125.664 82.6817 126.008 82.6817 126.008L69.5634 105.652L27.419 116.584Z" fill="url(#paint0_linear_313_996)"/>
<path id="Vector_2" d="M47.9366 72.4797C47.9366 72.4797 64.5769 67.59 91.1904 48.7849C110.652 34.9989 125.86 18.6279 132.635 10.7548C134.164 8.92378 136.354 7.76928 138.729 7.54146C141.103 7.31365 143.473 8.03089 145.322 9.53773C151.181 14.4813 159.248 26.8672 168.037 58.349C183.546 113.849 172.42 124.404 167.757 123.574C163.093 122.745 132.398 112.589 112.203 111.727C92.009 110.865 61.2273 116.875 61.2273 116.875L47.9366 72.4797Z" fill="#0051BA"/>
<path id="Vector_3" d="M47.9366 72.4797C47.9819 72.7275 48.0431 72.9722 48.1198 73.2121C48.2705 73.7614 48.4752 74.4938 48.7444 75.4416L51.2539 84.1332C53.5157 91.8233 56.7791 102.971 60.8934 117.004L60.9795 117.306L61.3027 117.252C70.059 115.658 80.0754 114.107 91.1365 113.041C96.6725 112.524 102.478 112.125 108.498 112.147C114.743 112.252 120.966 112.897 127.099 114.075C139.862 116.326 153.045 120.182 166.949 123.994L167.628 124.145H168.414C168.931 124.107 169.439 123.991 169.922 123.8C170.353 123.542 170.794 123.305 171.203 123.014L172.28 121.937C173.469 120.43 174.354 118.708 174.887 116.864C175.96 113.209 176.5 109.419 176.492 105.609C176.488 97.9008 175.737 90.2108 174.251 82.6469C173.928 80.9452 173.605 79.2435 173.293 77.5526C172.98 75.8616 172.528 74.1922 172.162 72.5228C171.44 69.1732 170.589 65.8775 169.706 62.6141C168.037 56.0765 166.109 49.6896 164.03 43.5075C162.024 37.4062 159.65 31.4321 156.922 25.6179C154.197 19.9635 151.095 14.5137 146.776 10.2055C145.718 9.08503 144.438 8.19735 143.017 7.59909C141.58 7.0652 140.035 6.88437 138.513 7.0718C136.991 7.25922 135.537 7.80943 134.272 8.67613C133.103 9.53312 132.06 10.548 131.17 11.6918C127.443 15.9353 123.685 19.9204 119.947 23.6685C113.028 30.6248 105.694 37.1563 97.9865 43.2274C86.7809 51.9388 74.8092 59.6171 62.2182 66.1683C57.7485 68.4516 54.1727 70.0241 51.7278 71.015C50.5107 71.5212 49.5737 71.8766 48.9383 72.092C48.6126 72.2015 48.2927 72.3273 47.9797 72.4689C48.3173 72.4135 48.649 72.327 48.9706 72.2105C49.6168 72.0058 50.5754 71.6827 51.814 71.2088C54.2912 70.2826 57.8992 68.7747 62.412 66.5452C75.115 60.1252 87.1876 52.5276 98.4712 43.8521C106.244 37.8016 113.636 31.2767 120.604 24.3147C124.374 20.5774 128.143 16.5816 131.902 12.338C132.748 11.2439 133.741 10.2724 134.853 9.45159C135.989 8.69472 137.289 8.21852 138.645 8.06222C140.041 7.9004 141.456 8.07835 142.768 8.58091C144.081 9.08348 145.253 9.89578 146.184 10.9487C150.33 15.106 153.4 20.4804 156.082 26.081C158.784 31.8603 161.133 37.7985 163.115 43.8629C165.172 50.0343 167.1 56.378 168.759 62.9049C169.631 66.136 170.471 69.4317 171.193 72.7598C171.559 74.4292 171.968 76.0878 172.27 77.768C172.571 79.4481 172.905 81.1498 173.228 82.8408C174.697 90.3485 175.437 97.9808 175.436 105.631C175.452 109.326 174.933 113.005 173.896 116.552C173.411 118.255 172.603 119.85 171.516 121.248L170.611 122.131C170.277 122.368 169.922 122.562 169.534 122.788C168.8 123.084 167.987 123.122 167.229 122.896C153.411 119.137 140.088 115.27 127.282 113.052C121.105 111.886 114.838 111.259 108.552 111.178C102.467 111.178 96.7048 111.608 91.0935 112.147C80 113.224 69.9836 114.872 61.2057 116.541L61.615 116.789L51.674 84.241C50.5 80.4713 49.5953 77.5526 48.9706 75.5277C48.669 74.5692 48.4321 73.8152 48.249 73.266C48.0659 72.7167 47.9474 72.4905 47.9366 72.4797Z" fill="#F28078"/>
<path id="Vector_4" d="M4.4998 119.482L15.3132 117.823L9.09873 103.488L0.00854492 108.334L4.4998 119.482Z" fill="url(#paint1_linear_313_996)"/>
<path id="Vector_5" d="M7.65551 102.034L12.4914 113.202L15.1301 119.298C16.8365 123.317 20.0338 126.518 24.0505 128.229C28.0672 129.94 32.5907 130.028 36.6708 128.475L80.5493 116.455L62.7136 60.8477L18.2966 77.2617C13.7435 79.3086 10.124 82.9893 8.15369 87.5761C6.18337 92.1629 6.00561 97.322 7.65551 102.034Z" fill="url(#paint2_linear_313_996)"/>
<g id="Group" opacity="0.3">
<path id="Vector_6" d="M164.407 61.3432C172.464 90.9401 173.713 116.412 167.186 118.232C160.659 120.052 148.876 97.5316 140.809 67.9346C132.742 38.3377 131.504 12.8766 138.02 11.0564C144.536 9.23618 156.351 31.757 164.407 61.3432Z" fill="black"/>
</g>
<path id="Vector_7" d="M136.684 50.5513C136.684 50.5513 152.355 43.8414 157.148 64.6282C161.941 85.4149 146.378 86.2335 146.378 86.2335C141.497 74.8501 138.234 62.8394 136.684 50.5513Z" fill="url(#paint3_linear_313_996)"/>
<path id="Vector_8" d="M53.925 82.4852C54.0111 82.776 46.4827 85.5548 37.1017 88.7105C27.7207 91.8662 20.0307 94.1711 19.9337 93.8911C19.8368 93.611 27.376 90.8107 36.757 87.6658C46.138 84.5208 53.828 82.1944 53.925 82.4852Z" fill="#F28078"/>
<path id="Vector_9" d="M55.8635 88.6029C55.9497 88.8937 48.4212 91.6832 39.0402 94.8282C29.6593 97.9731 21.9692 100.3 21.8723 100.009C21.7754 99.7179 29.3146 96.9392 38.6956 93.7942C48.0766 90.6493 55.7774 88.3229 55.8635 88.6029Z" fill="#F28078"/>
<path id="Vector_10" d="M57.8023 94.7313C57.8884 95.0221 50.3599 97.8009 40.979 100.957C31.598 104.112 23.9079 106.417 23.811 106.137C23.7141 105.857 31.2533 103.057 40.6343 99.9119C50.0153 96.7669 57.7053 94.4405 57.8023 94.7313Z" fill="#F28078"/>
<path id="Vector_11" d="M59.741 100.86C59.8271 101.14 52.2987 103.929 42.9177 107.074C33.5367 110.219 25.8467 112.545 25.7497 112.255C25.6528 111.964 33.192 109.185 42.573 106.04C51.954 102.895 59.644 100.569 59.741 100.86Z" fill="#F28078"/>
<path id="Vector_12" d="M192.313 77.1324C192.249 77.3263 201.296 80.6651 212.529 84.5855C223.763 88.5059 232.918 91.5539 232.993 91.36C233.068 91.1662 224 87.8381 212.766 83.907C201.533 79.9758 192.378 76.9493 192.313 77.1324Z" fill="#F28078"/>
<path id="Vector_13" d="M188.662 55.8503C188.662 56.0442 203.137 54.0301 220.919 51.3483C238.701 48.6665 253.112 46.3293 253.09 46.1355C253.069 45.9416 238.615 47.9557 220.779 50.6375C202.944 53.3193 188.63 55.6888 188.662 55.8503Z" fill="#F28078"/>
<path id="Vector_14" d="M185.442 34.0835C185.582 34.2342 190.644 29.7107 196.751 23.9916C202.858 18.2726 207.704 13.5229 207.575 13.3721C207.446 13.2213 202.373 17.7448 196.266 23.4639C190.159 29.1829 185.313 33.9434 185.442 34.0835Z" fill="#F28078"/>
<path id="Vector_15" d="M134.918 14.2659C134.81 14.6146 134.756 14.9778 134.756 15.3429C134.692 16.183 134.616 17.1954 134.53 18.434C134.444 19.6726 134.401 21.3851 134.401 23.3345C134.401 25.2839 134.304 27.4165 134.401 29.7967C134.539 35.4339 134.971 41.06 135.694 46.6523C136.622 53.5012 137.945 60.2906 139.657 66.9868C141.429 73.6583 143.586 80.2213 146.119 86.6427C148.212 91.8664 150.582 96.9751 153.217 101.947C154.294 104.101 155.436 105.954 156.373 107.602C157.31 109.25 158.193 110.65 158.936 111.77L160.638 114.344C160.815 114.658 161.036 114.944 161.295 115.195C161.184 114.849 161.029 114.52 160.832 114.215C160.411 113.493 159.916 112.61 159.302 111.544C158.688 110.477 157.805 108.97 156.922 107.236C156.039 105.502 154.951 103.681 153.928 101.527C151.774 97.2192 149.415 92.0709 147.078 86.2011C144.616 79.7981 142.495 73.2693 140.723 66.6421C139.027 59.9903 137.686 53.2529 136.706 46.4585C135.866 40.1901 135.36 34.5034 135.177 29.7106C135.015 27.3195 135.036 25.1547 134.993 23.2483C134.95 21.342 134.993 19.7049 134.993 18.3586C134.993 17.0123 134.993 16.1076 134.993 15.2675C135.004 14.9319 134.978 14.5962 134.918 14.2659Z" fill="#F28078"/>
</g>
</g>
<defs>
<linearGradient id="paint0_linear_313_996" x1="68.4003" y1="92.0857" x2="98.0188" y2="172.325" gradientUnits="userSpaceOnUse">
<stop stop-color="#F28078"/>
<stop offset="1" stop-color="#F28078" stop-opacity="0.33"/>
</linearGradient>
<linearGradient id="paint1_linear_313_996" x1="23.1648" y1="106.087" x2="-10.2233" y2="121.704" gradientUnits="userSpaceOnUse">
<stop stop-color="#FF725E"/>
<stop offset="1" stop-color="#FF725E" stop-opacity="0"/>
</linearGradient>
<linearGradient id="paint2_linear_313_996" x1="59.2455" y1="60.8517" x2="37.7048" y2="100.702" gradientUnits="userSpaceOnUse">
<stop stop-color="#293E78"/>
<stop offset="1" stop-color="#024DAE"/>
</linearGradient>
<linearGradient id="paint3_linear_313_996" x1="147.374" y1="49.5186" x2="153.486" y2="94.2399" gradientUnits="userSpaceOnUse">
<stop stop-color="#141E3C"/>
<stop offset="1" stop-color="#141E3C" stop-opacity="0"/>
</linearGradient>
</defs>
</svg>
