<svg width="254" height="200" viewBox="0 0 254 200" fill="none" xmlns="http://www.w3.org/2000/svg">
<path d="M27.4189 116.584L43.2944 149.671L51.5876 147.517L104.621 193L120.27 163.435C120.27 163.435 88.6915 148.906 83.0263 137.285C77.3611 125.664 82.6816 126.008 82.6816 126.008L69.5633 105.652L27.4189 116.584Z" fill="url(#paint0_linear_408_2560)"/>
<path d="M47.9365 72.4797C47.9365 72.4797 64.5767 67.59 91.1903 48.7849C110.652 34.9989 125.86 18.6279 132.635 10.7548C134.164 8.92378 136.354 7.76928 138.728 7.54146C141.103 7.31365 143.472 8.03089 145.322 9.53773C151.181 14.4813 159.248 26.8672 168.037 58.349C183.546 113.849 172.42 124.404 167.757 123.574C163.093 122.745 132.398 112.589 112.203 111.727C92.0088 110.865 61.2271 116.875 61.2271 116.875L47.9365 72.4797Z" fill="#0051BA"/>
<path d="M47.9365 72.4797C47.9818 72.7275 48.043 72.9722 48.1196 73.2121C48.2704 73.7614 48.475 74.4938 48.7443 75.4416L51.2538 84.1332C53.5156 91.8233 56.779 102.971 60.8933 117.004L60.9794 117.306L61.3025 117.252C70.0588 115.658 80.0753 114.107 91.1364 113.041C96.6724 112.524 102.478 112.125 108.498 112.147C114.742 112.252 120.966 112.897 127.099 114.075C139.862 116.326 153.044 120.182 166.949 123.994L167.628 124.145H168.414C168.931 124.107 169.439 123.991 169.922 123.8C170.352 123.542 170.794 123.305 171.203 123.014L172.28 121.937C173.468 120.43 174.354 118.708 174.887 116.864C175.959 113.209 176.5 109.419 176.492 105.609C176.488 97.9008 175.737 90.2108 174.251 82.6469C173.928 80.9452 173.605 79.2435 173.293 77.5526C172.98 75.8616 172.528 74.1922 172.162 72.5228C171.44 69.1732 170.589 65.8775 169.706 62.6141C168.037 56.0765 166.109 49.6896 164.03 43.5075C162.024 37.4062 159.65 31.4321 156.922 25.6179C154.197 19.9635 151.095 14.5137 146.776 10.2055C145.718 9.08503 144.438 8.19735 143.017 7.59909C141.58 7.0652 140.035 6.88437 138.513 7.0718C136.991 7.25922 135.537 7.80943 134.272 8.67613C133.103 9.53312 132.059 10.548 131.17 11.6918C127.443 15.9353 123.684 19.9204 119.947 23.6685C113.028 30.6248 105.694 37.1563 97.9864 43.2274C86.7808 51.9388 74.8091 59.6171 62.218 66.1683C57.7483 68.4516 54.1725 70.0241 51.7277 71.015C50.5106 71.5212 49.5736 71.8766 48.9382 72.092C48.6125 72.2015 48.2926 72.3273 47.9796 72.4689C48.3172 72.4135 48.6489 72.327 48.9705 72.2105C49.6167 72.0058 50.5753 71.6827 51.8139 71.2088C54.291 70.2826 57.8991 68.7747 62.4119 66.5452C75.1149 60.1252 87.1875 52.5276 98.4711 43.8521C106.244 37.8016 113.636 31.2767 120.604 24.3147C124.374 20.5774 128.143 16.5816 131.902 12.338C132.747 11.2439 133.741 10.2724 134.853 9.45159C135.989 8.69472 137.289 8.21852 138.644 8.06222C140.041 7.9004 141.455 8.07835 142.768 8.58091C144.081 9.08348 145.253 9.89578 146.184 10.9487C150.33 15.106 153.4 20.4804 156.082 26.081C158.784 31.8603 161.133 37.7985 163.115 43.8629C165.172 50.0343 167.1 56.378 168.758 62.9049C169.631 66.136 170.471 69.4317 171.193 72.7598C171.559 74.4292 171.968 76.0878 172.27 77.768C172.571 79.4481 172.905 81.1498 173.228 82.8408C174.697 90.3485 175.437 97.9808 175.436 105.631C175.452 109.326 174.933 113.005 173.896 116.552C173.411 118.255 172.603 119.85 171.516 121.248L170.611 122.131C170.277 122.368 169.922 122.562 169.534 122.788C168.8 123.084 167.987 123.122 167.229 122.896C153.411 119.137 140.088 115.27 127.282 113.052C121.105 111.886 114.838 111.259 108.552 111.178C102.467 111.178 96.7047 111.608 91.0934 112.147C79.9999 113.224 69.9835 114.872 61.2056 116.541L61.6149 116.789L51.6738 84.241C50.4999 80.4713 49.5951 77.5526 48.9705 75.5277C48.6689 74.5692 48.432 73.8152 48.2489 73.266C48.0658 72.7167 47.9473 72.4905 47.9365 72.4797Z" fill="#EF4135"/>
<path d="M4.50004 119.482L15.3135 117.823L9.09897 103.488L0.00878906 108.334L4.50004 119.482Z" fill="url(#paint1_linear_408_2560)"/>
<path d="M7.65548 102.034L12.4914 113.202L15.1301 119.298C16.8364 123.317 20.0337 126.518 24.0504 128.229C28.0671 129.94 32.5906 130.028 36.6708 128.475L80.5492 116.455L62.7135 60.8477L18.2966 77.2617C13.7435 79.3086 10.124 82.9893 8.15366 87.5761C6.18334 92.1629 6.00558 97.322 7.65548 102.034Z" fill="url(#paint2_linear_408_2560)"/>
<g opacity="0.3">
<path d="M164.408 61.3432C172.464 90.9401 173.714 116.412 167.187 118.232C160.66 120.052 148.877 97.5316 140.81 67.9346C132.743 38.3377 131.505 12.8766 138.021 11.0564C144.537 9.23618 156.352 31.757 164.408 61.3432Z" fill="#090505"/>
</g>
<path d="M136.685 50.5513C136.685 50.5513 152.355 43.8414 157.148 64.6282C161.941 85.4149 146.378 86.2335 146.378 86.2335C141.497 74.8501 138.235 62.8394 136.685 50.5513Z" fill="white"/>
<path d="M53.9248 82.4852C54.011 82.776 46.4825 85.5548 37.1015 88.7105C27.7205 91.8662 20.0305 94.1711 19.9335 93.8911C19.8366 93.611 27.3759 90.8107 36.7568 87.6658C46.1378 84.5208 53.8279 82.1944 53.9248 82.4852Z" fill="white"/>
<path d="M55.8642 88.6029C55.9504 88.8937 48.4219 91.6832 39.0409 94.8282C29.66 97.9731 21.9699 100.3 21.873 100.009C21.7761 99.7179 29.3153 96.9392 38.6963 93.7942C48.0773 90.6493 55.7781 88.3229 55.8642 88.6029Z" fill="white"/>
<path d="M57.8027 94.7313C57.8889 95.0221 50.3604 97.8009 40.9794 100.957C31.5984 104.112 23.9084 106.417 23.8115 106.137C23.7145 105.857 31.2538 103.057 40.6348 99.9119C50.0157 96.7669 57.7058 94.4405 57.8027 94.7313Z" fill="white"/>
<path d="M59.7412 100.86C59.8274 101.14 52.2989 103.929 42.9179 107.074C33.5369 110.219 25.8469 112.545 25.7499 112.255C25.653 111.964 33.1923 109.185 42.5732 106.04C51.9542 102.895 59.6443 100.569 59.7412 100.86Z" fill="white"/>
<path d="M192.314 77.1324C192.249 77.3263 201.296 80.6651 212.53 84.5855C223.763 88.5059 232.918 91.5539 232.993 91.36C233.069 91.1662 224 87.8381 212.767 83.907C201.533 79.9758 192.378 76.9493 192.314 77.1324Z" fill="#EF4135"/>
<path d="M188.662 55.8503C188.662 56.0442 203.138 54.0301 220.919 51.3483C238.701 48.6665 253.112 46.3293 253.09 46.1355C253.069 45.9416 238.615 47.9557 220.779 50.6375C202.944 53.3193 188.63 55.6888 188.662 55.8503Z" fill="#EF4135"/>
<path d="M185.442 34.0835C185.582 34.2342 190.644 29.7107 196.751 23.9916C202.858 18.2726 207.704 13.5229 207.575 13.3721C207.446 13.2213 202.373 17.7448 196.266 23.4639C190.159 29.1829 185.313 33.9434 185.442 34.0835Z" fill="#EF4135"/>
<path d="M134.918 14.2659C134.81 14.6146 134.756 14.9778 134.757 15.3429C134.692 16.183 134.617 17.1954 134.531 18.434C134.445 19.6726 134.401 21.3851 134.401 23.3345C134.401 25.2839 134.305 27.4165 134.401 29.7967C134.54 35.4339 134.971 41.06 135.694 46.6523C136.622 53.5012 137.946 60.2906 139.657 66.9868C141.429 73.6583 143.587 80.2213 146.12 86.6427C148.213 91.8664 150.582 96.9751 153.217 101.947C154.294 104.101 155.436 105.954 156.373 107.602C157.31 109.25 158.193 110.65 158.936 111.77L160.638 114.344C160.815 114.658 161.036 114.944 161.295 115.195C161.185 114.849 161.029 114.52 160.832 114.215C160.412 113.493 159.916 112.61 159.303 111.544C158.689 110.477 157.805 108.97 156.922 107.236C156.039 105.502 154.951 103.681 153.928 101.527C151.774 97.2192 149.415 92.0709 147.078 86.2011C144.616 79.7981 142.495 73.2693 140.724 66.6421C139.027 59.9903 137.686 53.2529 136.706 46.4585C135.866 40.1901 135.36 34.5034 135.177 29.7106C135.015 27.3195 135.037 25.1547 134.994 23.2483C134.951 21.342 134.994 19.7049 134.994 18.3586C134.994 17.0123 134.994 16.1076 134.994 15.2675C135.004 14.9319 134.979 14.5962 134.918 14.2659Z" fill="#F28078"/>
<defs>
<linearGradient id="paint0_linear_408_2560" x1="68.4002" y1="92.0857" x2="98.0187" y2="172.325" gradientUnits="userSpaceOnUse">
<stop stop-color="#EF4135"/>
<stop offset="1" stop-color="#EF4135" stop-opacity="0.33"/>
</linearGradient>
<linearGradient id="paint1_linear_408_2560" x1="23.1651" y1="106.087" x2="-10.223" y2="121.704" gradientUnits="userSpaceOnUse">
<stop stop-color="#EF4135"/>
<stop offset="1" stop-color="#EF4135" stop-opacity="0"/>
</linearGradient>
<linearGradient id="paint2_linear_408_2560" x1="62.4995" y1="49.5" x2="26.4995" y2="130" gradientUnits="userSpaceOnUse">
<stop stop-color="white"/>
<stop offset="1" stop-color="#0151BA"/>
</linearGradient>
</defs>
</svg>
