<svg width="18" height="18" viewBox="0 0 18 18" fill="none" xmlns="http://www.w3.org/2000/svg">
<g id="meetup" clip-path="url(#clip0_127_4036)">
<path id="Vector" d="M17.9825 15.1784C17.757 13.7317 15.0783 14.8449 14.9118 13.2597C14.6773 11.0097 18.023 6.1638 17.7598 4.27999C17.5252 2.58968 16.38 2.23249 15.3866 2.21168C14.4219 2.19761 14.1677 2.34949 13.8425 2.54018C13.6518 2.64818 13.383 2.86474 13.0078 2.50811C12.7586 2.27018 12.5887 2.10705 12.3283 1.89555C12.1933 1.78755 11.9795 1.65255 11.619 1.60024C11.2652 1.54455 10.796 1.60024 10.503 1.72343C10.2037 1.85224 9.9759 2.07499 9.7329 2.28593C9.48934 2.49686 8.87115 3.18536 8.29965 2.92999C8.04766 2.82199 7.20391 2.39955 6.59472 2.13968C5.42247 1.63286 3.7299 2.45299 3.11678 3.53974C2.20834 5.15074 0.41903 11.4907 0.142843 12.326C-0.46297 14.2008 0.919655 15.7302 2.77703 15.6419C3.56509 15.6042 4.08934 15.3202 4.58434 14.4151C4.87178 13.8931 7.57009 6.85061 7.77203 6.50805C7.91884 6.26505 8.40484 5.94274 8.81547 6.1503C9.2289 6.36405 9.31047 6.80336 9.24916 7.2168C9.14622 7.88786 7.24834 12.1887 7.17184 12.6725C7.04866 13.501 7.44184 13.9578 8.30303 14.0051C8.88972 14.0343 9.47809 13.8267 9.94103 12.9475C10.202 12.4576 13.2018 6.44674 13.4651 6.04511C13.7582 5.6058 13.9922 5.45843 14.2948 5.47643C14.526 5.48768 14.8916 5.54674 14.801 6.23749C14.7105 6.91755 12.2968 11.3242 12.0448 12.4019C11.7045 13.8492 12.4953 15.3084 13.802 15.9502C14.6345 16.3597 18.279 17.0572 17.9831 15.179L17.9825 15.1784Z" fill="white"/>
</g>
<defs>
<clipPath id="clip0_127_4036">
<rect width="18" height="18" fill="white"/>
</clipPath>
</defs>
</svg>
